SplineFontDB: 3.0
FontName: LinLibertineO
FullName: Linux Libertine O
FamilyName: Linux Libertine O
Weight: Book
Copyright: Linux Libertine by Philipp H. Poll, Open Font under Terms of following Free Software Licenses:\nGPL (General Public License) with font-exception and OFL (Open Font License).\nCreated with FontForge (http://fontforge.sf.net) Sept 2003, 2004, 2005, 2006, 2007, 2008
UComments: "2003-08-29: Created.+AAoA-2004-07-25: v(1.0) release candidate+AAoA-2005-12-28: v(1.1.0) stable+AAoA-2006-01-01: v(2.0.0) stable+AAoA-2006-09-05: v(2.2.0) stable+AAoA-2006-12-04: v(2.3.0) stable+AAoA-2007-03-11: v(2.4.0) stable+AAoA-2007-12-00: v(2.7.0) stable+AAoA-2008-06-00: v(2.8.14) stable+AAoA" 
Version: 4.4.1
ItalicAngle: 0
UnderlinePosition: -98
UnderlineWidth: 40
Ascent: 754
Descent: 246
LayerCount: 2
Layer: 0 0 "Back"  1
Layer: 1 0 "Fore"  0
NeedsXUIDChange: 1
XUID: [1021 993 1524925707 2876416]
FSType: 0
OS2Version: 0
OS2_WeightWidthSlopeOnly: 0
OS2_UseTypoMetrics: 0
CreationTime: 1156455862
ModificationTime: 1237590991
PfmFamily: 17
TTFWeight: 400
TTFWidth: 5
LineGap: 0
VLineGap: 0
OS2TypoAscent: 894
OS2TypoAOffset: 0
OS2TypoDescent: -246
OS2TypoDOffset: 0
OS2TypoLinegap: 0
OS2WinAscent: 894
OS2WinAOffset: 0
OS2WinDescent: 246
OS2WinDOffset: 0
HheadAscent: 894
HheadAOffset: 0
HheadDescent: -246
HheadDOffset: 0
OS2FamilyClass: 261
OS2Vendor: 'PfEd'
Lookup: 3 0 0 "'aalt' Alle Alternativen zeigen"  {"'aalt' Alle Alternativen zeigen 1"  } ['aalt' ('DFLT' <'dflt' > 'cyrl' <'dflt' > 'grek' <'dflt' > 'latn' <'AZE ' 'CRT ' 'DEU ' 'MOL ' 'ROM ' 'TRK ' 'dflt' > ) ]
Lookup: 1 0 0 "'locl' Localized Forms Romaenisch"  {"'locl' Localized Forms Romaenisch 1"  } ['locl' ('latn' <'MOL ' 'ROM ' > ) ]
Lookup: 1 0 0 "'smcp' Gemeine nach Kapitaelchen i > i.sc"  {"'smcp' Gemeine nach Kapitaelchen i > i.sc 1"  } ['smcp' ('DFLT' <'dflt' > 'cyrl' <'dflt' > 'grek' <'dflt' > 'latn' <'DEU ' 'MOL ' 'ROM ' 'dflt' > ) ]

StartChar: exclam
Encoding: 33 33 0
Width: 228
VWidth: 999
Flags: HW
HStem: -10 106<71.6089 156.391> 638 20G<102 126>
VStem: 61 106<0.608917 85.3911 411.697 645.75>
LayerCount: 2
Fore
SplineSet
114 658 m 0
 138 658 167 639 167 585 c 0
 167 520 153 478 143 392 c 0
 130 284 130 224 128 210 c 0
 127 199 124 190 114 190 c 0
 104 190 101 197 100 203 c 0
 98 224 92 314 84 392 c 0
 75 480 61 515 61 585 c 0
 61 639 90 658 114 658 c 0
61 43 m 0
 61 72 85 96 114 96 c 0
 143 96 167 72 167 43 c 0
 167 14 143 -10 114 -10 c 0
 85 -10 61 14 61 43 c 0
EndSplineSet
Colour: ff9ccc
EndChar

StartChar: quotedbl
Encoding: 34 34 1
Width: 336
VWidth: 999
Flags: HW
HStem: 426 218<85.8119 118.678> 427 218<211.812 244.678>
VStem: 63 86<487.695 633.98> 189 86<488.695 634.98>
LayerCount: 2
Fore
SplineSet
215 427 m 1
 215 427 189 586 189 595 c 0
 189 617 210 645 240 645 c 0
 266 645 275 628 275 612 c 0
 275 596 242 431 242 431 c 1
 215 427 l 1
89 426 m 1
 89 426 63 585 63 594 c 0
 63 616 84 644 114 644 c 0
 140 644 149 627 149 611 c 0
 149 595 116 430 116 430 c 1
 89 426 l 1
EndSplineSet
Colour: ff00ff
EndChar

StartChar: numbersign
Encoding: 35 35 2
Width: 440
VWidth: 487
Flags: HW
HStem: 183 48<32 115 156 258 299 382> 342 48<58 140 181 284 324 407>
DStem2: 88 13 121 13 0.158835 0.987305<5.24156 172.13 226.033 333.083 386.986 553.875> 232 13 265 13 0.155313 0.987865<5.12534 171.975 225.761 333.084 386.714 553.719>
LayerCount: 2
Fore
SplineSet
267 231 m 1
 284 342 l 1
 174 342 l 1
 156 231 l 1
 267 231 l 1
317 342 m 1
 299 231 l 1
 389 231 l 1
 382 183 l 1
 293 183 l 1
 265 13 l 1
 232 13 l 1
 258 183 l 1
 149 183 l 1
 121 13 l 1
 88 13 l 1
 115 183 l 1
 25 183 l 1
 32 231 l 1
 123 231 l 1
 140 342 l 1
 50 342 l 1
 58 390 l 1
 148 390 l 1
 175 560 l 1
 209 560 l 1
 181 390 l 1
 292 390 l 1
 318 560 l 1
 351 560 l 1
 324 390 l 1
 415 390 l 1
 407 342 l 1
 317 342 l 1
EndSplineSet
EndChar

StartChar: dollar
Encoding: 36 36 3
Width: 440
VWidth: 999
Flags: HW
HStem: -10 33<148.6 275.43> 1 21G<58 68.5> 542 30<160.039 276.129>
VStem: 42 26<115.775 146.808> 46 64<387.132 501.756> 198 34<-81 627> 328 72<70.3563 197.557> 342 26<419.923 435>
LayerCount: 2
Fore
SplineSet
92 12 m 0
 76 12 79 1 58 1 c 1
 58 38 50 90 42 146 c 1
 68 149 l 1
 83 89 131 34 198 24 c 1
 198 264 l 1
 139 290 46 331 46 429 c 0
 46 515 124 564 198 571 c 1
 198 627 l 1
 232 627 l 1
 232 572 l 1
 280 571 310 564 348 564 c 1
 351 519 360 470 368 421 c 1
 342 417 l 1
 337 435 l 1
 317 499 286 534 232 541 c 1
 232 327 l 1
 289 306 400 258 400 156 c 0
 400 124 387 2 232 -9 c 1
 232 -81 l 1
 198 -81 l 1
 198 -10 l 1
 140 -8 112 12 92 12 c 0
232 251 m 1
 232 24 l 1
 271 28 328 51 328 127 c 0
 328 207 273 235 232 251 c 1
198 341 m 1
 198 541 l 1
 150 535 110 498 110 438 c 0
 110 391 159 359 198 341 c 1
EndSplineSet
EndChar

StartChar: percent
Encoding: 37 37 4
Width: 637
VWidth: 999
Flags: HW
HStem: -12 29<446.826 512.932> 225 31<488.229 553.742> 303 29<126.123 191.163> 484 37<279.857 459.046> 540 31<166.506 233.537>
VStem: 59 51<340.095 479.734> 246 31<405.445 504.773> 380 52<24.9702 164.687> 568 30<93.569 210.69>
DStem2: 102 3 136 -12 0.584454 0.811427<7.70004 615.532 651.531 704.931>
LayerCount: 2
Fore
SplineSet
432 83 m 0
 432 31 458 17 477 17 c 0
 532 17 568 108 568 164 c 0
 568 216 537 225 523 225 c 0
 474 225 432 141 432 83 c 0
380 98 m 0
 380 173 438 256 512 256 c 0
 552 256 598 238 598 165 c 0
 598 98 554 -12 471 -12 c 0
 410 -12 380 45 380 98 c 0
364 521 m 0
 406 521 483 533 514 575 c 1
 546 559 l 1
 136 -12 l 1
 102 3 l 1
 461 503 l 1
 423 488 384 484 354 484 c 0
 331 484 293 494 274 505 c 1
 276 498 277 489 277 480 c 0
 277 416 233 303 149 303 c 0
 87 303 59 361 59 412 c 0
 59 489 118 571 190 571 c 0
 218 571 247 558 257 546 c 1
 311 521 346 521 364 521 c 0
110 398 m 0
 110 346 137 332 155 332 c 0
 210 332 246 421 246 479 c 0
 246 529 219 540 201 540 c 0
 152 540 110 456 110 398 c 0
EndSplineSet
EndChar

StartChar: parenleft
Encoding: 40 40 5
Width: 295
VWidth: 999
Flags: HW
VStem: 44 78<97.6984 405.148>
LayerCount: 2
Fore
SplineSet
44 252 m 0
 44 438 137 605 256 707 c 1
 274 689 l 1
 242 653 122 515 122 252 c 0
 122 -11 241 -149 274 -187 c 1
 256 -204 l 1
 48 -24 44 207 44 252 c 0
EndSplineSet
Substitution2: "'c2sc' Versale nach Kapitaelchen 1" parenleft.sc
AlternateSubs2: "'aalt' Alle Alternativen zeigen 1" parenleft.sc
Substitution2: "'sinf' Wissenschaftliche Indices 1" parenleft.inferior
Substitution2: "'sups' Hochgestellte 1" parenleft.superior
Substitution2: "'case' Versalformen 1" parenleft.sc
EndChar

StartChar: parenright
Encoding: 41 41 6
Width: 295
VWidth: 999
Flags: HW
VStem: 174 78<98.852 406.302>
LayerCount: 2
Fore
SplineSet
252 252 m 0
 252 66 159 -101 40 -203 c 1
 22 -185 l 1
 54 -149 174 -11 174 252 c 0
 174 515 55 653 22 691 c 1
 40 708 l 1
 248 528 252 297 252 252 c 0
EndSplineSet
Substitution2: "'c2sc' Versale nach Kapitaelchen 1" parenright.sc
AlternateSubs2: "'aalt' Alle Alternativen zeigen 1" parenright.sc
Substitution2: "'sinf' Wissenschaftliche Indices 1" parenright.inferior
Substitution2: "'sups' Hochgestellte 1" parenright.superior
Substitution2: "'case' Versalformen 1" parenright.sc
Colour: ff00ff
EndChar

StartChar: asterisk
Encoding: 42 42 7
Width: 369
VWidth: 999
Flags: HMW
LayerCount: 2
Fore
SplineSet
168 547 m 1
 155 550 141 551 126 551 c 0
 77 551 45 558 45 588 c 0
 45 602 54 618 78 618 c 0
 112 618 130 585 174 567 c 1
 170 606 151 633 151 659 c 0
 151 680 163 698 181 698 c 0
 199 698 214 687 214 663 c 0
 214 636 197 596 195 566 c 1
 241 586 257 618 290 618 c 0
 317 618 324 598 324 588 c 0
 324 558 289 551 255 551 c 0
 236 551 218 550 200 547 c 1
 234 510 283 500 283 460 c 0
 283 442 268 431 254 431 c 0
 215 431 208 496 183 535 c 1
 158 490 151 431 113 431 c 0
 96 431 84 444 84 459 c 0
 84 502 135 510 168 547 c 1
EndSplineSet
EndChar

StartChar: plus
Encoding: 43 43 8
Width: 527
VWidth: 999
Flags: HMW
HStem: 208 49<66 238 289 461>
VStem: 238 51<34 208 257 431>
LayerCount: 2
Fore
SplineSet
289 257 m 1
 461 257 l 1
 461 208 l 1
 289 208 l 1
 289 34 l 1
 238 34 l 1
 238 208 l 1
 66 208 l 1
 66 257 l 1
 238 257 l 1
 238 431 l 1
 289 431 l 1
 289 257 l 1
EndSplineSet
AlternateSubs2: "'aalt' Alle Alternativen zeigen 1" plus.superior plus.inferior uni2098
Substitution2: "'sinf' Wissenschaftliche Indices 1" plus.inferior
Substitution2: "'sups' Hochgestellte 1" plus.superior
EndChar

StartChar: slash
Encoding: 47 47 9
Width: 323
VWidth: 999
Flags: HW
HStem: 626 20G<245.277 293>
VStem: 15 278
LayerCount: 2
Fore
SplineSet
293 646 m 1
 56 -59 l 1
 15 -59 l 1
 252 646 l 1
 293 646 l 1
EndSplineSet
Ligature2: "'frac' Brueche 1" uni2215
AlternateSubs2: "'aalt' Alle Alternativen zeigen 1" uni2215
EndChar

StartChar: one
Encoding: 49 49 10
Width: 440
VWidth: 999
Flags: HMW
HStem: -2 29<107 204.896 288.977 379> 558 20G<252.333 281.75>
VStem: 211 72<33.9397 475.982>
LayerCount: 2
Fore
SplineSet
191 476 m 0
 172 476 150 470 104 451 c 1
 89 478 l 1
 177 519 225 544 280 578 c 1
 284 578 286 578 286 573 c 0
 284 560 283 499 283 439 c 2
 283 97 l 2
 283 61 294 33 321 31 c 2
 373 27 l 2
 376 27 381 27 381 21 c 2
 381 0 l 1
 379 -2 l 1
 342 -1 283 0 247 0 c 0
 211 0 144 -1 107 -2 c 1
 105 0 l 1
 105 21 l 2
 105 24 108 27 113 27 c 2
 173 31 l 2
 203 33 211 60 211 97 c 2
 211 418 l 2
 211 452 208 476 191 476 c 0
EndSplineSet
AlternateSubs2: "'aalt' Alle Alternativen zeigen 1" one.oldstyle one.superior one.fitted
Substitution2: "'sups' Hochgestellte 1" one.superior
Substitution2: "'sinf' Wissenschaftliche Indices 1" one.inferior
Substitution2: "'pnum' Proportionalziffern 1" one.fitted
Substitution2: "'onum' Minuskelziffern 1" one.taboldstyle
EndChar

StartChar: two
Encoding: 50 50 11
Width: 440
VWidth: 487
Flags: HMW
HStem: 0 62<128 338.275> 547 31<152.53 260.878>
VStem: 59 74<62 95.8822 409.442 486.625> 309 79<352.993 506.617>
DStem2: 160 194 198 176 0.718358 0.695673<-92.3927 203.456>
LayerCount: 2
Fore
SplineSet
59 443 m 0
 59 500 114 578 219 578 c 0
 296 578 388 536 388 434 c 0
 388 362 347 320 293 268 c 2
 198 176 l 2
 193 171 128 107 128 62 c 1
 296 62 l 2
 330 62 349 85 365 152 c 1
 390 148 l 1
 367 -2 l 1
 367 -2 323 0 293 0 c 2
 128 0 l 2
 98 0 53 -2 53 -2 c 1
 53 54 67 99 160 194 c 1
 230 263 l 1
 286 320 309 369 309 430 c 0
 309 521 247 547 213 547 c 0
 144 547 125 511 125 487 c 0
 125 479 127 471 129 464 c 0
 131 457 133 450 133 442 c 0
 133 416 113 406 97 406 c 0
 75 406 59 423 59 443 c 0
EndSplineSet
AlternateSubs2: "'aalt' Alle Alternativen zeigen 1" two.oldstyle two.superior two.fitted
Substitution2: "'sups' Hochgestellte 1" two.superior
Substitution2: "'sinf' Wissenschaftliche Indices 1" two.inferior
Substitution2: "'pnum' Proportionalziffern 1" two.fitted
Substitution2: "'onum' Minuskelziffern 1" two.taboldstyle
EndChar

StartChar: three
Encoding: 51 51 12
Width: 440
VWidth: 487
Flags: HW
HStem: -10 31<144.212 243.934> 300 30<150.067 191.437> 547 31<152.591 257.64>
VStem: 48 66<425.524 509.453> 291 69<409.571 522.731> 315 80<99.0362 259.93>
LayerCount: 2
Fore
SplineSet
207 547 m 0
 182 547 114 533 114 472 c 0
 114 454 107 423 80 423 c 0
 57 423 48 442 48 455 c 0
 48 486 88 578 227 578 c 0
 324 578 360 517 360 477 c 0
 360 445 355 402 265 345 c 1
 266 343 l 1
 322 334 395 294 395 191 c 0
 395 66 295 -10 182 -10 c 0
 125 -10 45 15 45 53 c 0
 45 68 65 86 85 86 c 0
 104 86 113 75 122 62 c 0
 133 45 146 21 194 21 c 0
 227 21 315 52 315 178 c 0
 315 285 246 302 192 302 c 0
 180 302 167 302 151 300 c 1
 147 330 l 1
 232 343 291 417 291 463 c 0
 291 522 249 547 207 547 c 0
EndSplineSet
AlternateSubs2: "'aalt' Alle Alternativen zeigen 1" three.oldstyle three.superior three.fitted
Substitution2: "'sups' Hochgestellte 1" three.superior
Substitution2: "'sinf' Wissenschaftliche Indices 1" three.inferior
Substitution2: "'pnum' Proportionalziffern 1" three.fitted
Substitution2: "'onum' Minuskelziffern 1" three.taboldstyle
EndChar

StartChar: four
Encoding: 52 52 13
Width: 440
VWidth: 487
Flags: HW
HStem: -2 29<183 215 360 392> 153 45<81 259 327 419.054> 558 20G<298.806 331>
VStem: 259 68<33.8382 153 198 381.915>
DStem2: 25 196 81 198 0.576513 0.817088<33.9189 480.706>
LayerCount: 2
Fore
SplineSet
407 198 m 2
 417 198 421 192 421 183 c 0
 421 172 407 153 394 153 c 2
 327 153 l 1
 327 72 l 2
 327 44 332 31 360 29 c 2
 387 27 l 2
 393 27 394 22 394 20 c 2
 394 0 l 1
 392 -2 l 1
 392 -2 329 0 288 0 c 0
 247 0 183 -2 183 -2 c 1
 181 0 l 1
 181 20 l 2
 181 22 182 27 188 27 c 2
 215 29 l 2
 245 31 259 43 259 72 c 2
 259 153 l 1
 63 153 l 2
 34 153 26 179 23 193 c 0
 23 194 24 195 25 196 c 2
 287 568 l 2
 291 573 296 578 302 578 c 2
 328 578 l 2
 334 578 336 572 333 567 c 0
 262 464 153 304 81 198 c 1
 259 198 l 1
 259 355 l 2
 259 362 260 370 269 375 c 1
 280 383 298 392 313 392 c 0
 326 392 327 381 327 361 c 2
 327 198 l 1
 407 198 l 2
EndSplineSet
AlternateSubs2: "'aalt' Alle Alternativen zeigen 1" four.oldstyle four.superior four.fitted
Substitution2: "'sups' Hochgestellte 1" four.superior
Substitution2: "'sinf' Wissenschaftliche Indices 1" four.inferior
Substitution2: "'pnum' Proportionalziffern 1" four.fitted
Substitution2: "'onum' Minuskelziffern 1" four.taboldstyle
EndChar

StartChar: five
Encoding: 53 53 14
Width: 440
VWidth: 487
Flags: HW
HStem: -10 31<156.531 243.367> 323 47<121.426 259.454> 505 63<139.224 352.798> 510 68<139.51 204.36 208.345 251.899 255.315 353>
VStem: 306 80<99.5265 272.992>
DStem2: 72 300 121 355 0.116419 0.9932<60.3305 219.549>
LayerCount: 2
Fore
SplineSet
306 179 m 0
 306 282 254 323 192 323 c 0
 158 323 122 319 72 300 c 1
 104 573 l 1
 137 570 171 568 206 568 c 0
 256 568 308 572 362 578 c 1
 368 575 l 1
 353 510 l 1
 314 506 282 505 254 505 c 0
 209 505 175 509 140 513 c 1
 121 355 l 1
 138 362 176 370 217 370 c 0
 323 370 386 288 386 196 c 0
 386 77 303 -10 186 -10 c 0
 132 -10 51 22 51 61 c 0
 51 80 69 96 87 96 c 0
 107 96 120 81 132 65 c 0
 146 46 162 21 198 21 c 0
 255 21 306 89 306 179 c 0
EndSplineSet
AlternateSubs2: "'aalt' Alle Alternativen zeigen 1" five.oldstyle five.superior five.fitted
Substitution2: "'sups' Hochgestellte 1" five.superior
Substitution2: "'sinf' Wissenschaftliche Indices 1" five.inferior
Substitution2: "'pnum' Proportionalziffern 1" five.fitted
Substitution2: "'onum' Minuskelziffern 1" five.taboldstyle
EndChar

StartChar: six
Encoding: 54 54 15
Width: 440
VWidth: 487
Flags: HW
HStem: -10 30<185.001 280.275> 327 32<155.163 269.94> 558 20G<289 341>
VStem: 42 77<98.4738 336.175> 328 77<95.7322 268.757>
LayerCount: 2
Fore
SplineSet
139 336 m 1
 168 351 209 359 236 359 c 0
 365 359 405 272 405 191 c 0
 405 110 355 -10 231 -10 c 0
 158 -10 42 28 42 220 c 0
 42 295 71 381 130 449 c 0
 182 510 241 550 337 578 c 1
 345 573 348 565 348 554 c 1
 227 509 166 419 139 336 c 1
129 299 m 1
 122 269 119 241 119 217 c 0
 119 55 181 20 241 20 c 0
 287 20 328 70 328 174 c 0
 328 221 309 327 216 327 c 0
 198 327 162 326 129 299 c 1
EndSplineSet
AlternateSubs2: "'aalt' Alle Alternativen zeigen 1" six.oldstyle six.superior six.fitted
Substitution2: "'sups' Hochgestellte 1" six.superior
Substitution2: "'sinf' Wissenschaftliche Indices 1" six.inferior
Substitution2: "'pnum' Proportionalziffern 1" six.fitted
Substitution2: "'onum' Minuskelziffern 1" six.taboldstyle
EndChar

StartChar: seven
Encoding: 55 55 16
Width: 440
VWidth: 487
Flags: HMW
HStem: -12 21G<117 185> 506 62<104.886 328.815>
VStem: 48 27<426.222 459.789>
LayerCount: 2
Fore
SplineSet
161 506 m 2
 131 506 96 500 75 424 c 1
 48 427 l 1
 56 476 66 533 67 578 c 0
 67 580 69 581 71 581 c 0
 88 578 86 568 118 568 c 2
 313 568 l 2
 349 568 370 573 386 578 c 1
 401 567 l 1
 295 309 239 152 185 -9 c 1
 120 -12 l 1
 117 -6 l 1
 181 138 256 322 330 506 c 1
 161 506 l 2
EndSplineSet
AlternateSubs2: "'aalt' Alle Alternativen zeigen 1" seven.oldstyle seven.superior seven.fitted
Substitution2: "'sups' Hochgestellte 1" seven.superior
Substitution2: "'sinf' Wissenschaftliche Indices 1" seven.inferior
Substitution2: "'pnum' Proportionalziffern 1" seven.fitted
Substitution2: "'onum' Minuskelziffern 1" seven.taboldstyle
EndChar

StartChar: nine
Encoding: 57 57 17
Width: 440
VWidth: 487
Flags: HW
HStem: -10 20<95 147> 209 32<166.06 280.836> 548 30<155.725 250.999>
VStem: 31 77<299.243 472.268> 317 77<231.825 469.526>
LayerCount: 2
Fore
SplineSet
297 232 m 1
 268 217 227 209 200 209 c 0
 71 209 31 296 31 377 c 0
 31 458 81 578 205 578 c 0
 278 578 394 540 394 348 c 0
 394 273 365 187 306 119 c 0
 254 58 195 18 99 -10 c 1
 91 -5 88 3 88 14 c 1
 209 59 270 149 297 232 c 1
307 269 m 1
 314 299 317 327 317 351 c 0
 317 513 255 548 195 548 c 0
 149 548 108 498 108 394 c 0
 108 347 127 241 220 241 c 0
 238 241 274 242 307 269 c 1
EndSplineSet
AlternateSubs2: "'aalt' Alle Alternativen zeigen 1" nine.oldstyle nine.superior nine.fitted
Substitution2: "'sups' Hochgestellte 1" nine.superior
Substitution2: "'sinf' Wissenschaftliche Indices 1" nine.inferior
Substitution2: "'pnum' Proportionalziffern 1" nine.fitted
Substitution2: "'onum' Minuskelziffern 1" nine.taboldstyle
Colour: ff00ff
EndChar

StartChar: colon
Encoding: 58 58 18
Width: 220
VWidth: 999
Flags: HW
HStem: 39 106<74.6089 159.391> 302 106<74.6089 159.391>
VStem: 64 106<49.6089 134.391 312.609 397.391>
LayerCount: 2
Fore
SplineSet
64 355 m 0
 64 384 88 408 117 408 c 0
 146 408 170 384 170 355 c 0
 170 326 146 302 117 302 c 0
 88 302 64 326 64 355 c 0
64 92 m 0
 64 121 88 145 117 145 c 0
 146 145 170 121 170 92 c 0
 170 63 146 39 117 39 c 0
 88 39 64 63 64 92 c 0
EndSplineSet
Colour: ff00ff
EndChar

StartChar: less
Encoding: 60 60 19
Width: 487
VWidth: 999
Flags: HW
HStem: 73 331
DStem2: 49 263 122 239 0.940425 0.34<60.4911 397.706> 122 239 49 215 0.939653 -0.34213<0 337.557>
LayerCount: 2
Fore
SplineSet
122 239 m 1
 439 123 l 1
 439 73 l 1
 49 215 l 1
 49 263 l 1
 439 404 l 1
 439 354 l 1
 122 239 l 1
EndSplineSet
EndChar

StartChar: equal
Encoding: 61 61 20
Width: 527
VWidth: 999
Flags: HW
HStem: 144 49<66 461> 269 49<66 461>
LayerCount: 2
Fore
SplineSet
461 318 m 1
 461 269 l 1
 66 269 l 1
 66 318 l 1
 461 318 l 1
461 193 m 1
 461 144 l 1
 66 144 l 1
 66 193 l 1
 461 193 l 1
EndSplineSet
AlternateSubs2: "'aalt' Alle Alternativen zeigen 1" equal.superior
Substitution2: "'sinf' Wissenschaftliche Indices 1" equal.inferior
Substitution2: "'sups' Hochgestellte 1" equal.superior
EndChar

StartChar: greater
Encoding: 62 62 21
Width: 487
VWidth: 999
Flags: HW
HStem: 71 331
DStem2: 366 236 439 260 0.939653 -0.34213<-337.557 0> 439 212 366 236 0.940425 0.34<-397.706 -60.4911>
LayerCount: 2
Fore
SplineSet
366 236 m 1
 49 352 l 1
 49 402 l 1
 439 260 l 1
 439 212 l 1
 49 71 l 1
 49 121 l 1
 366 236 l 1
EndSplineSet
Colour: ff00ff
EndChar

StartChar: question
Encoding: 63 63 22
Width: 405
VWidth: 487
Flags: HW
HStem: -12 106<138 223> 629 29<130 240>
VStem: 29 67<507 591> 127 106<-2 84> 294 74<435 580>
LayerCount: 2
Fore
SplineSet
97 572 m 0
 97 557 99 551 103 546 c 0
 107 541 109 535 109 522 c 0
 109 499 89 487 70 487 c 0
 54 487 29 495 29 530 c 0
 29 568 50 596 80 620 c 1
 109 645 151 659 204 659 c 0
 306 659 369 599 369 508 c 0
 369 429 310 385 263 351 c 0
 240 334 220 318 211 301 c 0
 198 276 193 252 193 228 c 2
 193 184 l 2
 193 177 188 174 180 174 c 0
 172 174 167 177 167 184 c 2
 167 230 l 2
 167 273 170 331 234 391 c 0
 274 428 294 457 294 504 c 0
 294 569 251 629 194 629 c 0
 137 629 97 602 97 572 c 0
127 43 m 0
 127 72 151 96 180 96 c 0
 209 96 233 72 233 43 c 0
 233 14 209 -10 180 -10 c 0
 151 -10 127 14 127 43 c 0
EndSplineSet
Colour: ff9ccc
EndChar

StartChar: at
Encoding: 64 64 23
Width: 895
VWidth: 999
Flags: HMW
HStem: -158 33<366.698 569.227> 27 43<368.151 451.044> 379 31<449.098 547.769> 580 31<358.072 546.24>
VStem: 59 80<106.897 345.025> 273 73<90.7683 252.641> 515 68<62.2365 153.555> 759 80<177.345 388.462>
LayerCount: 2
Fore
SplineSet
569 316 m 0
 569 354 540 379 504 379 c 0
 487 379 444 370 414 339 c 0
 363 288 346 224 346 162 c 0
 346 114 361 70 424 70 c 0
 459 70 508 127 539 200 c 0
 552 231 569 282 569 316 c 0
583 74 m 0
 583 64 592 62 594 62 c 0
 696 62 759 109 759 275 c 0
 759 481 584 580 459 580 c 0
 307 580 139 478 139 241 c 0
 139 91 215 -125 473 -125 c 0
 558 -125 620 -102 674 -59 c 1
 687 -77 l 1
 627 -123 567 -158 454 -158 c 0
 215 -158 59 10 59 223 c 0
 59 438 244 611 469 611 c 0
 684 611 839 469 839 282 c 0
 839 168 769 27 551 27 c 0
 522 27 515 52 515 68 c 0
 515 83 522 106 530 131 c 1
 528 132 l 1
 484 58 430 29 395 29 c 0
 295 29 273 113 273 153 c 0
 273 296 400 410 506 410 c 0
 539 410 573 393 583 367 c 1
 588 391 l 1
 641 404 l 1
 656 399 l 1
 596 141 l 2
 590 114 583 80 583 74 c 0
EndSplineSet
EndChar

StartChar: A
Encoding: 65 65 24
Width: 695
VWidth: 999
Flags: HW
HStem: -2 29<4 63.4383 192 227 438 472 669 688> 241 42<240.956 437> 638 20G<355.667 370>
DStem2: 106.983 102 152 79 0.392949 0.91956<-35.5134 182.05 227.744 482.534> 329.333 622.333 338 550 0.392949 0.91956<-557.738 -393.648 -343.43 -63.1089> 390 628 340 550 0.35377 -0.935333<55.2675 339.317 384.261 592.374>
AnchorPoint: "unten_punkt" 308 -108 basechar 0
AnchorPoint: "unten_anhang" 116 5 basechar 0
AnchorPoint: "top_akzent" 353 873 basechar 0
LayerCount: 2
Fore
SplineSet
263 283 m 2
 437 283 l 1
 340 550 l 1
 338 550 l 1
 238 296 l 2
 234 286 241 283 263 283 c 2
152 79 m 2
 141 52 155 32 192 29 c 2
 221 27 l 2
 225 27 229 24 229 19 c 2
 229 0 l 1
 227 -2 l 1
 190 -1 137 0 96 0 c 0
 57 0 41 -1 4 -2 c 1
 2 0 l 1
 2 19 l 2
 2 24 5 27 10 27 c 0
 54 30 81 40 107 102 c 2
 329 622 l 2
 341 649 348 658 363 658 c 0
 377 658 383 647 390 628 c 2
 595 86 l 2
 609 47 629 32 669 28 c 2
 680 27 l 2
 685 27 690 24 690 19 c 2
 690 0 l 1
 688 -2 l 1
 651 -1 612 0 571 0 c 0
 532 0 475 -1 438 -2 c 1
 437 0 l 1
 437 19 l 2
 437 24 439 27 444 27 c 2
 472 29 l 2
 510 32 524 44 514 72 c 2
 453 241 l 1
 245 241 l 2
 221 241 215 237 210 224 c 2
 152 79 l 2
EndSplineSet
Position2: "'cpsp' Versalabstaende 1" dx=2 dy=0 dh=5 dv=0
Substitution2: "'c2sc' Versale nach Kapitaelchen 1" a.sc
EndChar

StartChar: B
Encoding: 66 66 25
Width: 582
VWidth: 999
Flags: HW
HStem: -2 34<19 54 194.805 379.143> 332 34<187 348.649> 613 34<19 54 190.534 342.72>
VStem: 106 81<39.6512 332 366 608.096> 405 77<426.275 559.02> 452 89<97.5427 249.544>
AnchorPoint: "unten_punkt" 268 -108 basechar 0
AnchorPoint: "unten_anhang" 250 0 basechar 0
AnchorPoint: "top_akzent" 267 805 basechar 0
LayerCount: 2
Fore
SplineSet
187 570 m 2
 187 366 l 1
 261 366 l 2
 344 366 405 396 405 481 c 0
 405 583 330 613 274 613 c 0
 187 613 187 603 187 570 c 2
187 332 m 1
 187 78 l 2
 187 45 200 32 270 32 c 0
 422 32 452 92 452 165 c 0
 452 255 393 332 256 332 c 2
 187 332 l 1
17 19 m 2
 17 24 19 27 24 27 c 2
 54 29 l 2
 96 32 106 36 106 71 c 2
 106 574 l 2
 106 608 97 613 54 616 c 2
 24 618 l 2
 19 618 17 621 17 625 c 2
 17 645 l 1
 19 647 l 1
 66 646 107 645 146 645 c 0
 186 645 232 647 267 647 c 0
 453 647 482 560 482 493 c 0
 482 439 439 387 389 362 c 1
 389 360 l 1
 476 335 541 280 541 184 c 0
 541 98 488 -2 289 -2 c 0
 200 -2 186 0 146 0 c 0
 107 0 66 -1 19 -2 c 1
 17 0 l 1
 17 19 l 2
EndSplineSet
Position2: "'cpsp' Versalabstaende 1" dx=2 dy=0 dh=5 dv=0
Substitution2: "'c2sc' Versale nach Kapitaelchen 1" b.sc
EndChar

StartChar: C
Encoding: 67 67 26
Width: 644
VWidth: 999
Flags: HMW
HStem: -12 42<270 460> 621 37<278 443>
VStem: 37 87<204 436>
AnchorPoint: "unten_punkt" 363 -110 basechar 0
AnchorPoint: "unten_anhang" 356 -7 basechar 0
AnchorPoint: "top_akzent" 350 805 basechar 0
LayerCount: 2
Fore
SplineSet
355 -10 m 0
 140 -10 37 154 37 315 c 0
 37 512 190 658 356 658 c 0
 479 658 518 616 575 613 c 1
 579 559 587 510 597 458 c 1
 567 454 l 1
 541 540 483 621 345 621 c 0
 266 621 124 537 124 334 c 0
 124 188 199 31 354 31 c 0
 447 31 515 62 586 140 c 1
 597 140 604 134 609 125 c 1
 541 36 452 -10 355 -10 c 0
EndSplineSet
Position2: "'cpsp' Versalabstaende 1" dx=2 dy=0 dh=5 dv=0
Substitution2: "'c2sc' Versale nach Kapitaelchen 1" c.sc
EndChar

StartChar: D
Encoding: 68 68 27
Width: 697
VWidth: 999
Flags: HW
HStem: -2 34<19 54 193.238 414.496> 613 34<19 54 194.838 370.214>
VStem: 106 81<39.3746 605.565> 562 92<179.249 418.917>
AnchorPoint: "unten_punkt" 279 -107 basechar 0
AnchorPoint: "unten_anhang" 279 4 basechar 0
AnchorPoint: "top_akzent" 306 805 basechar 0
LayerCount: 2
Fore
SplineSet
17 18 m 2
 17 23 20 27 24 27 c 2
 54 29 l 2
 89 31 106 42 106 74 c 2
 106 572 l 2
 106 608 95 613 54 616 c 2
 26 618 l 2
 21 618 17 621 17 626 c 2
 17 645 l 1
 19 647 l 1
 66 646 107 645 146 645 c 0
 186 645 245 647 309 647 c 0
 501 647 654 494 654 308 c 0
 654 62 468 -2 327 -2 c 0
 224 -2 185 0 146 0 c 0
 106 0 66 -1 19 -2 c 1
 17 0 l 1
 17 18 l 2
187 73 m 2
 187 41 198 32 296 32 c 0
 437 32 562 82 562 284 c 0
 562 438 487 613 271 613 c 0
 222 613 187 609 187 574 c 2
 187 73 l 2
EndSplineSet
Position2: "'cpsp' Versalabstaende 1" dx=2 dy=0 dh=5 dv=0
Substitution2: "'c2sc' Versale nach Kapitaelchen 1" d.sc
EndChar

StartChar: E
Encoding: 69 69 28
Width: 549
VWidth: 999
Flags: HMW
HStem: -2 29<14 50> 0 39<183.683 419.99> 323 38<182 352.428> 605 40<183.978 390.274> 618 29<14 50>
VStem: 101 81<40.4896 323 361 603.333> 362 33<252 285 403 436> 438 29<499.793 534.305> 489 31<133.405 166.129>
AnchorPoint: "unten_anhang" 279 4 basechar 0
AnchorPoint: "unten_punkt" 279 -107 basechar 0
AnchorPoint: "top_akzent" 283 805 basechar 0
LayerCount: 2
Fore
SplineSet
445 646 m 0
 447 638 462 542 467 501 c 1
 438 496 l 1
 416 565 398 605 323 605 c 2
 218 605 l 2
 194 605 182 595 182 571 c 2
 182 361 l 1
 309 361 l 2
 344 361 356 375 359 403 c 2
 362 428 l 2
 362 432 365 436 369 436 c 2
 391 436 l 1
 395 432 l 1
 392 392 391 362 391 342 c 0
 391 322 392 295 395 255 c 1
 391 252 l 1
 369 252 l 2
 364 252 362 257 362 260 c 2
 359 285 l 2
 356 314 343 323 309 323 c 2
 182 323 l 1
 182 72 l 2
 182 45 196 39 218 39 c 2
 354 39 l 2
 430 39 469 98 489 170 c 1
 520 165 l 1
 508 113 494 50 483 -2 c 1
 483 -2 403 0 355 0 c 2
 141 0 l 2
 102 0 61 -1 14 -2 c 1
 12 0 l 1
 12 20 l 2
 12 23 14 27 20 27 c 2
 50 29 l 2
 89 32 101 44 101 72 c 2
 101 571 l 2
 101 602 88 613 50 616 c 2
 20 618 l 2
 13 618 12 622 12 625 c 2
 12 645 l 1
 14 647 l 1
 61 646 102 645 141 645 c 2
 394 645 l 2
 418 645 424 646 441 649 c 0
 444 649 445 648 445 646 c 0
EndSplineSet
Position2: "'cpsp' Versalabstaende 1" dx=2 dy=0 dh=5 dv=0
Substitution2: "'c2sc' Versale nach Kapitaelchen 1" e.sc
EndChar

StartChar: F
Encoding: 70 70 29
Width: 477
VWidth: 999
Flags: HMW
HStem: -2 29<15 47 237 269> 323 38<182 352.428> 605 40<183.978 390.274> 618 29<14 50>
VStem: 101 81<35.9118 323 361 603.492> 362 33<252 285 403 436> 438 29<499.793 534.346>
AnchorPoint: "unten_anhang" 145 -1 basechar 0
AnchorPoint: "unten_punkt" 201 -111 basechar 0
AnchorPoint: "top_akzent" 286 798 basechar 0
LayerCount: 2
Fore
SplineSet
309 323 m 2
 182 323 l 1
 182 74 l 2
 182 43 197 32 237 29 c 2
 263 27 l 2
 268 27 271 24 271 19 c 2
 271 0 l 1
 269 -2 l 1
 222 -1 181 0 141 0 c 0
 102 0 62 -1 15 -2 c 1
 13 0 l 1
 13 19 l 2
 13 24 16 27 21 27 c 2
 47 29 l 2
 90 32 101 46 101 74 c 2
 101 571 l 2
 101 602 88 613 50 616 c 2
 20 618 l 2
 13 618 12 622 12 625 c 2
 12 645 l 1
 14 647 l 1
 61 646 102 645 141 645 c 2
 394 645 l 2
 418 645 424 646 441 649 c 0
 444 649 445 648 445 646 c 0
 447 638 462 542 467 501 c 1
 438 496 l 1
 416 565 398 605 323 605 c 2
 218 605 l 2
 194 605 182 595 182 571 c 2
 182 361 l 1
 309 361 l 2
 344 361 356 375 359 403 c 2
 362 428 l 2
 362 432 365 436 369 436 c 2
 391 436 l 1
 395 432 l 1
 392 392 391 362 391 342 c 0
 391 322 392 295 395 255 c 1
 391 252 l 1
 369 252 l 2
 364 252 362 257 362 260 c 2
 359 285 l 2
 356 314 343 323 309 323 c 2
EndSplineSet
Position2: "'cpsp' Versalabstaende 1" dx=2 dy=0 dh=5 dv=0
Substitution2: "'c2sc' Versale nach Kapitaelchen 1" f.sc
EndChar

StartChar: G
Encoding: 71 71 30
Width: 693
VWidth: 999
Flags: HW
HStem: -10 36<299.692 489.453> 271 36<453 485 626.062 672> 621 37<278.364 463.377>
VStem: 32 87<215.673 431.42> 540 81<83.4212 262.951> 585 30<457.6 492.683>
AnchorPoint: "unten_anhang" 365 2 basechar 0
AnchorPoint: "unten_punkt" 365 -111 basechar 0
AnchorPoint: "top_akzent" 363 798 basechar 0
LayerCount: 2
Fore
SplineSet
375 658 m 0
 497 658 533 613 593 613 c 1
 600 541 606 501 615 459 c 1
 585 453 l 1
 559 539 506 621 361 621 c 0
 226 621 119 502 119 327 c 0
 119 195 215 26 393 26 c 0
 447 26 506 42 540 74 c 1
 540 227 l 2
 540 258 525 266 485 269 c 2
 459 271 l 2
 455 271 451 274 451 279 c 2
 451 305 l 1
 453 307 l 1
 500 306 541 305 580 305 c 0
 620 305 642 306 672 307 c 1
 674 305 l 1
 674 279 l 2
 674 274 671 272 666 271 c 0
 637 268 621 262 621 227 c 2
 621 111 l 2
 621 100 626 92 637 83 c 1
 569 25 488 -10 370 -10 c 0
 169 -10 32 134 32 307 c 0
 32 527 203 658 375 658 c 0
EndSplineSet
Position2: "'cpsp' Versalabstaende 1" dx=2 dy=0 dh=5 dv=0
Substitution2: "'c2sc' Versale nach Kapitaelchen 1" g.sc
EndChar

StartChar: grave
Encoding: 96 96 31
Width: 392
VWidth: 999
Flags: HW
LayerCount: 2
Fore
SplineSet
178 699 m 1
 248 573 l 2
 253 563 254 556 254 549 c 0
 254 544 247 538 239 538 c 0
 233 538 226 543 210 558 c 2
 96 667 l 1
 98 678 l 1
 106 684 129 701 163 701 c 0
 168 701 174 700 178 699 c 1
EndSplineSet
Substitution2: "'case' Versalformen 1" grave.cap
Colour: ff00ff
EndChar

StartChar: ograve
Encoding: 242 242 32
Width: 484
VWidth: 999
Flags: HW
HStem: -10 33<205.005 309.227> 406 33<180.317 289.2>
VStem: 36 85<119.996 319.458> 363 85<113.472 321.738>
LayerCount: 2
Fore
SplineSet
224 671 m 1
 294 545 l 2
 299 535 300 528 300 521 c 0
 300 516 293 510 285 510 c 0
 279 510 272 515 256 530 c 2
 142 639 l 1
 144 650 l 1
 152 656 175 673 209 673 c 0
 214 673 220 672 224 671 c 1
36 205 m 0
 36 342 110 439 243 439 c 0
 391 439 448 318 448 214 c 0
 448 114 383 -10 241 -10 c 0
 107 -10 36 103 36 205 c 0
232 406 m 0
 152 406 121 315 121 228 c 0
 121 151 159 23 258 23 c 0
 303 23 363 50 363 182 c 0
 363 329 314 406 232 406 c 0
EndSplineSet
Substitution2: "'smcp' Gemeine nach Kapitaelchen 1" ograve.sc
AlternateSubs2: "'aalt' Alle Alternativen zeigen 1" ograve.sc
Colour: ff00ff
EndChar

StartChar: oacute
Encoding: 243 243 33
Width: 484
VWidth: 999
Flags: HW
HStem: -10 33<205.005 309.227> 406 33<180.317 289.2>
VStem: 36 85<119.996 319.458> 363 85<113.472 321.738>
LayerCount: 2
Fore
SplineSet
270 671 m 1
 273 672 279 673 284 673 c 0
 290 673 316 672 339 650 c 1
 342 639 l 1
 227 530 l 2
 212 515 204 511 197 511 c 0
 190 511 183 517 183 524 c 0
 183 535 186 539 194 552 c 2
 270 671 l 1
36 205 m 0
 36 342 110 439 243 439 c 0
 391 439 448 318 448 214 c 0
 448 114 383 -10 241 -10 c 0
 107 -10 36 103 36 205 c 0
232 406 m 0
 152 406 121 315 121 228 c 0
 121 151 159 23 258 23 c 0
 303 23 363 50 363 182 c 0
 363 329 314 406 232 406 c 0
EndSplineSet
Substitution2: "'smcp' Gemeine nach Kapitaelchen 1" oacute.sc
AlternateSubs2: "'aalt' Alle Alternativen zeigen 1" oacute.sc
Colour: ff00ff
EndChar

StartChar: ocircumflex
Encoding: 244 244 34
Width: 484
VWidth: 999
Flags: HW
HStem: -10 33<205.005 309.227> 406 33<180.317 289.2>
VStem: 36 85<119.996 319.458> 115 253<517 517> 363 85<113.472 321.738>
LayerCount: 2
Fore
SplineSet
267 646 m 1
 296 599 332 557 368 517 c 1
 347 503 l 1
 308 532 275 557 241 593 c 1
 204 555 172 530 134 503 c 1
 114 517 l 1
 150 557 188 600 217 646 c 1
 267 646 l 1
36 205 m 0
 36 342 110 439 243 439 c 0
 391 439 448 318 448 214 c 0
 448 114 383 -10 241 -10 c 0
 107 -10 36 103 36 205 c 0
232 406 m 0
 152 406 121 315 121 228 c 0
 121 151 159 23 258 23 c 0
 303 23 363 50 363 182 c 0
 363 329 314 406 232 406 c 0
EndSplineSet
Substitution2: "'smcp' Gemeine nach Kapitaelchen 1" ocircumflex.sc
AlternateSubs2: "'aalt' Alle Alternativen zeigen 1" ocircumflex.sc
Colour: ff00ff
EndChar

StartChar: otilde
Encoding: 245 245 35
Width: 484
VWidth: 999
Flags: HW
HStem: -10 33<205.005 309.227> 406 33<180.317 289.2> 526 44<253 340> 574 46<135 226> 613 10
VStem: 36 85<119.996 319.458> 363 85<113.472 321.738>
LayerCount: 2
Fore
SplineSet
304 570 m 0
 326 570 340 580 354 622 c 1
 378 616 l 1
 366 556 337 526 291 526 c 0
 269 526 248 538 227 552 c 0
 209 563 190 574 173 574 c 0
 147 574 134 559 124 526 c 1
 100 531 l 1
 114 590 137 620 180 620 c 0
 210 620 232 606 252 592 c 0
 268 580 285 570 304 570 c 0
36 205 m 0
 36 342 110 439 243 439 c 0
 391 439 448 318 448 214 c 0
 448 114 383 -10 241 -10 c 0
 107 -10 36 103 36 205 c 0
232 406 m 0
 152 406 121 315 121 228 c 0
 121 151 159 23 258 23 c 0
 303 23 363 50 363 182 c 0
 363 329 314 406 232 406 c 0
EndSplineSet
Substitution2: "'smcp' Gemeine nach Kapitaelchen 1" otilde.sc
AlternateSubs2: "'aalt' Alle Alternativen zeigen 1" otilde.sc
Colour: ff00ff
EndChar

StartChar: odieresis
Encoding: 246 246 36
Width: 484
VWidth: 999
Flags: HW
HStem: -10 33<205.005 309.227> 406 33<180.317 289.2> 527 92<123.347 200.653 283.347 360.653>
VStem: 36 85<119.996 319.458> 116 92<534.347 611.653> 276 92<534.347 611.653> 363 85<113.472 321.738>
LayerCount: 2
Fore
SplineSet
116 573 m 0
 116 598 137 619 162 619 c 0
 187 619 208 598 208 573 c 0
 208 548 187 527 162 527 c 0
 137 527 116 548 116 573 c 0
276 573 m 0
 276 598 297 619 322 619 c 0
 347 619 368 598 368 573 c 0
 368 548 347 527 322 527 c 0
 297 527 276 548 276 573 c 0
36 205 m 0
 36 342 110 439 243 439 c 0
 391 439 448 318 448 214 c 0
 448 114 383 -10 241 -10 c 0
 107 -10 36 103 36 205 c 0
232 406 m 0
 152 406 121 315 121 228 c 0
 121 151 159 23 258 23 c 0
 303 23 363 50 363 182 c 0
 363 329 314 406 232 406 c 0
EndSplineSet
Substitution2: "'smcp' Gemeine nach Kapitaelchen 1" odieresis.sc
AlternateSubs2: "'aalt' Alle Alternativen zeigen 1" odieresis.sc
Colour: ff00ff
EndChar

StartChar: divide
Encoding: 247 247 37
Width: 527
VWidth: 999
Flags: HW
HStem: 54 89<229.666 300.725> 208 49<66 461> 322 89<229.666 300.725>
VStem: 221 89<62.5104 133.57> 221 89<330.51 401.57>
LayerCount: 2
Fore
SplineSet
221 366 m 0
 221 390 241 411 265 411 c 0
 290 411 310 390 310 366 c 0
 310 342 290 322 265 322 c 0
 241 322 221 342 221 366 c 0
221 98 m 0
 221 122 241 143 265 143 c 0
 290 143 310 122 310 98 c 0
 310 74 290 54 265 54 c 0
 241 54 221 74 221 98 c 0
461 257 m 1
 461 208 l 1
 66 208 l 1
 66 257 l 1
 461 257 l 1
EndSplineSet
Colour: ff00ff
EndChar

StartChar: ugrave
Encoding: 249 249 38
Width: 517
VWidth: 999
Flags: HW
HStem: -10 45<187.687 290.565> 30 23<453 501> 402 29<28 44 293 309>
VStem: 88 75<61.0204 394.9> 353 75<82.098 394.9>
LayerCount: 2
Fore
SplineSet
219 671 m 1
 289 545 l 2
 294 535 295 528 295 521 c 0
 295 516 288 510 280 510 c 0
 274 510 267 515 251 530 c 2
 137 639 l 1
 139 650 l 1
 147 656 170 673 204 673 c 0
 209 673 215 672 219 671 c 1
353 352 m 2
 353 385 344 396 309 400 c 2
 293 402 l 1
 290 404 l 1
 290 429 l 1
 293 431 l 1
 330 430 360 429 392 429 c 0
 407 429 422 430 427 431 c 0
 429 431 431 431 431 429 c 2
 431 429 428 362 428 332 c 2
 428 116 l 2
 428 66 432 60 453 58 c 2
 501 53 l 1
 504 30 l 1
 442 19 398 6 376 -12 c 1
 353 -12 l 1
 355 64 l 1
 353 64 l 1
 297 4 254 -10 213 -10 c 0
 114 -10 88 57 88 126 c 2
 88 352 l 2
 88 385 79 396 44 400 c 2
 28 402 l 1
 25 404 l 1
 25 429 l 1
 28 431 l 1
 65 430 95 429 127 429 c 0
 142 429 157 430 162 431 c 0
 164 431 166 431 166 429 c 2
 166 429 163 362 163 332 c 2
 163 140 l 2
 163 51 209 35 239 35 c 0
 285 35 332 79 353 104 c 1
 353 352 l 2
EndSplineSet
Substitution2: "'smcp' Gemeine nach Kapitaelchen 1" ugrave.sc
AlternateSubs2: "'aalt' Alle Alternativen zeigen 1" ugrave.sc
Colour: ff00ff
EndChar

StartChar: uacute
Encoding: 250 250 39
Width: 517
VWidth: 999
Flags: HW
HStem: -10 45<187.687 290.565> 30 23<453 501> 402 29<28 44 293 309>
VStem: 88 75<61.0204 394.9> 353 75<82.098 394.9>
LayerCount: 2
Fore
SplineSet
297 671 m 1
 300 672 306 673 311 673 c 0
 317 673 343 672 366 650 c 1
 369 639 l 1
 254 530 l 2
 239 515 231 511 224 511 c 0
 217 511 210 517 210 524 c 0
 210 535 213 539 221 552 c 2
 297 671 l 1
353 352 m 2
 353 385 344 396 309 400 c 2
 293 402 l 1
 290 404 l 1
 290 429 l 1
 293 431 l 1
 330 430 360 429 392 429 c 0
 407 429 422 430 427 431 c 0
 429 431 431 431 431 429 c 2
 431 429 428 362 428 332 c 2
 428 116 l 2
 428 66 432 60 453 58 c 2
 501 53 l 1
 504 30 l 1
 442 19 398 6 376 -12 c 1
 353 -12 l 1
 355 64 l 1
 353 64 l 1
 297 4 254 -10 213 -10 c 0
 114 -10 88 57 88 126 c 2
 88 352 l 2
 88 385 79 396 44 400 c 2
 28 402 l 1
 25 404 l 1
 25 429 l 1
 28 431 l 1
 65 430 95 429 127 429 c 0
 142 429 157 430 162 431 c 0
 164 431 166 431 166 429 c 2
 166 429 163 362 163 332 c 2
 163 140 l 2
 163 51 209 35 239 35 c 0
 285 35 332 79 353 104 c 1
 353 352 l 2
EndSplineSet
Substitution2: "'smcp' Gemeine nach Kapitaelchen 1" uacute.sc
AlternateSubs2: "'aalt' Alle Alternativen zeigen 1" uacute.sc
Colour: ff00ff
EndChar

StartChar: ucircumflex
Encoding: 251 251 40
Width: 517
VWidth: 999
Flags: HW
HStem: -10 45<187.687 290.565> 30 23<453 501> 402 29<28 44 293 309>
VStem: 88 75<61.0204 394.9> 120 253<517 517> 353 75<82.098 394.9>
LayerCount: 2
Fore
SplineSet
272 646 m 1
 301 599 337 557 373 517 c 1
 352 503 l 1
 313 532 280 557 246 593 c 1
 209 555 177 530 139 503 c 1
 119 517 l 1
 155 557 193 600 222 646 c 1
 272 646 l 1
353 352 m 2
 353 385 344 396 309 400 c 2
 293 402 l 1
 290 404 l 1
 290 429 l 1
 293 431 l 1
 330 430 360 429 392 429 c 0
 407 429 422 430 427 431 c 0
 429 431 431 431 431 429 c 2
 431 429 428 362 428 332 c 2
 428 116 l 2
 428 66 432 60 453 58 c 2
 501 53 l 1
 504 30 l 1
 442 19 398 6 376 -12 c 1
 353 -12 l 1
 355 64 l 1
 353 64 l 1
 297 4 254 -10 213 -10 c 0
 114 -10 88 57 88 126 c 2
 88 352 l 2
 88 385 79 396 44 400 c 2
 28 402 l 1
 25 404 l 1
 25 429 l 1
 28 431 l 1
 65 430 95 429 127 429 c 0
 142 429 157 430 162 431 c 0
 164 431 166 431 166 429 c 2
 166 429 163 362 163 332 c 2
 163 140 l 2
 163 51 209 35 239 35 c 0
 285 35 332 79 353 104 c 1
 353 352 l 2
EndSplineSet
Substitution2: "'smcp' Gemeine nach Kapitaelchen 1" ucircumflex.sc
AlternateSubs2: "'aalt' Alle Alternativen zeigen 1" ucircumflex.sc
Colour: ff00ff
EndChar

StartChar: ebreve
Encoding: 277 277 41
Width: 427
VWidth: 999
Flags: HW
HStem: -10 49<195.372 321.672> 248 39<117 314.997> 405 34<173.337 282.104> 501 57<158.968 295.898>
VStem: 34 80<137.009 248> 93 26<607.805 639.769> 315 80<259.5 367.016> 336 27<609.333 639.63>
LayerCount: 2
Fore
SplineSet
120 648 m 1
 131 595 174 558 228 558 c 0
 280 558 326 590 336 648 c 1
 363 636 l 1
 351 550 287 501 228 501 c 0
 158 501 107 551 93 636 c 1
 120 648 l 1
117 287 m 1
 301 287 l 2
 311 287 315 292 315 301 c 0
 315 385 268 405 232 405 c 0
 209 405 135 400 117 287 c 1
381 95 m 1
 392 94 398 89 401 79 c 1
 363 27 304 -10 232 -10 c 0
 95 -10 34 84 34 199 c 0
 34 351 137 439 232 439 c 0
 364 439 395 349 395 265 c 0
 395 254 388 248 377 248 c 2
 114 248 l 1
 114 99 200 39 256 39 c 0
 311 39 346 57 381 95 c 1
EndSplineSet
Colour: ff00ff
EndChar

StartChar: Edotaccent
Encoding: 278 278 42
Width: 549
VWidth: 999
Flags: HW
HStem: -2 29<14 50> 0 39<183.683 419.99> 323 38<182 352.245> 416 20<367 392.5> 605 40<183.485 390.274> 618 28<14 50> 688 104<238.542 321.458>
VStem: 101 81<40.3443 323 361 603.225> 228 104<698.542 781.458> 361 34<252 316.054 403 436> 438 29<499.793 534.346> 489 31<128.12 166.129>
LayerCount: 2
Fore
SplineSet
228 740 m 0
 228 768 252 792 280 792 c 0
 308 792 332 768 332 740 c 0
 332 712 308 688 280 688 c 0
 252 688 228 712 228 740 c 0
445 646 m 0
 447 638 462 542 467 501 c 1
 438 496 l 1
 416 565 398 605 323 605 c 2
 218 605 l 2
 194 605 182 595 182 571 c 2
 182 361 l 1
 309 361 l 2
 344 361 356 375 359 403 c 2
 362 428 l 2
 362 432 365 436 369 436 c 2
 391 436 l 1
 395 432 l 1
 392 392 391 362 391 342 c 0
 391 322 392 295 395 255 c 1
 391 252 l 1
 369 252 l 2
 364 252 362 257 362 260 c 2
 359 285 l 2
 356 314 343 323 309 323 c 2
 182 323 l 1
 182 72 l 2
 182 45 196 39 218 39 c 2
 354 39 l 2
 430 39 469 98 489 170 c 1
 520 165 l 1
 508 113 494 50 483 -2 c 1
 483 -2 403 0 355 0 c 2
 141 0 l 2
 102 0 61 -1 14 -2 c 1
 12 0 l 1
 12 20 l 2
 12 23 14 27 20 27 c 2
 50 29 l 2
 89 32 101 44 101 72 c 2
 101 571 l 2
 101 602 88 613 50 616 c 2
 20 618 l 2
 13 618 12 622 12 625 c 2
 12 645 l 1
 14 647 l 1
 61 646 102 645 141 645 c 2
 394 645 l 2
 418 645 424 646 441 649 c 0
 444 649 445 648 445 646 c 0
EndSplineSet
Position2: "'cpsp' Versalabstaende 1" dx=2 dy=0 dh=5 dv=0
Colour: ff00ff
EndChar

StartChar: edotaccent
Encoding: 279 279 43
Width: 427
VWidth: 999
Flags: HW
HStem: -10 49<195.372 321.672> 248 39<117 314.997> 405 34<173.337 282.104> 523 96<190.332 269.668>
VStem: 34 80<137.009 248> 182 96<531.332 610.668> 315 80<259.5 367.016>
LayerCount: 2
Fore
SplineSet
182 571 m 0
 182 597 204 619 230 619 c 0
 256 619 278 597 278 571 c 0
 278 545 256 523 230 523 c 0
 204 523 182 545 182 571 c 0
117 287 m 1
 301 287 l 2
 311 287 315 292 315 301 c 0
 315 385 268 405 232 405 c 0
 209 405 135 400 117 287 c 1
381 95 m 1
 392 94 398 89 401 79 c 1
 363 27 304 -10 232 -10 c 0
 95 -10 34 84 34 199 c 0
 34 351 137 439 232 439 c 0
 364 439 395 349 395 265 c 0
 395 254 388 248 377 248 c 2
 114 248 l 1
 114 99 200 39 256 39 c 0
 311 39 346 57 381 95 c 1
EndSplineSet
Colour: ff00ff
EndChar

StartChar: Eogonek
Encoding: 280 280 44
Width: 549
VWidth: 999
Flags: HW
HStem: -200 38<372.519 455.833> -2 17<444.684 471> -2 29<14 50> 0 39<183.683 419.99> 323 38<182 352.245> 416 20<367 392.5> 605 40<183.485 390.274> 618 28<14 50>
VStem: 101 81<40.3443 323 361 603.225> 303 62<-155.299 -63.1465> 361 34<252 316.054 403 436> 438 29<499.793 534.346> 489 31<128.12 166.129>
LayerCount: 2
Fore
SplineSet
501 -135 m 1
 472 -180 432 -200 391 -200 c 0
 341 -200 303 -180 303 -126 c 0
 303 -85 338 -27 399 -0 c 1
 383 -0 368 0 355 0 c 2
 141 0 l 2
 102 0 61 -1 14 -2 c 1
 12 0 l 1
 12 20 l 2
 12 23 14 27 20 27 c 2
 50 29 l 2
 89 32 101 44 101 72 c 2
 101 571 l 2
 101 602 88 613 50 616 c 2
 20 618 l 2
 13 618 12 622 12 625 c 2
 12 645 l 1
 14 647 l 1
 61 646 102 645 141 645 c 2
 394 645 l 2
 418 645 424 646 441 649 c 0
 444 649 445 648 445 646 c 0
 447 638 462 542 467 501 c 1
 438 496 l 1
 416 565 398 605 323 605 c 2
 218 605 l 2
 194 605 182 595 182 571 c 2
 182 361 l 1
 309 361 l 2
 344 361 356 375 359 403 c 2
 362 428 l 2
 362 432 365 436 369 436 c 2
 391 436 l 1
 395 432 l 1
 392 392 391 362 391 342 c 0
 391 322 392 295 395 255 c 1
 391 252 l 1
 369 252 l 2
 364 252 362 257 362 260 c 2
 359 285 l 2
 356 314 343 323 309 323 c 2
 182 323 l 1
 182 72 l 2
 182 45 196 39 218 39 c 2
 354 39 l 2
 430 39 469 98 489 170 c 1
 520 165 l 1
 483 -0 l 1
 485 -2 l 1
 414 -2 365 -69 365 -115 c 0
 365 -141 378 -162 415 -162 c 0
 444 -162 460 -146 482 -124 c 1
 491 -124 497 -128 501 -135 c 1
EndSplineSet
Position2: "'cpsp' Versalabstaende 1" dx=2 dy=0 dh=5 dv=0
Substitution2: "'c2sc' Versale nach Kapitaelchen 1" eogonek.sc
Colour: ff9ccc
EndChar

StartChar: eogonek
Encoding: 281 281 45
Width: 427
VWidth: 999
Flags: HW
HStem: -200 38<244.519 327.833> -10 49<195.372 321.672> 248 39<117 314.997> 405 34<173.337 282.104>
VStem: 34 80<137.009 248> 175 62<-155.299 -69.1643> 315 80<259.5 367.016>
LayerCount: 2
Fore
SplineSet
373 -135 m 1
 344 -180 304 -200 263 -200 c 0
 213 -200 175 -180 175 -126 c 0
 175 -85 210 -45 260 -8 c 1
 251 -9 242 -10 232 -10 c 0
 95 -10 34 84 34 199 c 0
 34 351 137 439 232 439 c 0
 364 439 395 349 395 265 c 0
 395 254 388 248 377 248 c 2
 114 248 l 1
 114 99 200 39 256 39 c 0
 311 39 346 57 381 95 c 1
 392 94 398 89 401 79 c 1
 387 60 371 44 352 30 c 1
 273 -35 237 -67 237 -115 c 0
 237 -141 250 -162 287 -162 c 0
 316 -162 332 -146 354 -124 c 1
 363 -124 369 -128 373 -135 c 1
117 287 m 1
 301 287 l 2
 311 287 315 292 315 301 c 0
 315 385 268 405 232 405 c 0
 209 405 135 400 117 287 c 1
EndSplineSet
AlternateSubs2: "'aalt' Alle Alternativen zeigen 1" eogonek.sc
Substitution2: "'smcp' Gemeine nach Kapitaelchen 1" eogonek.sc
Colour: ff00ff
EndChar

StartChar: Ecaron
Encoding: 282 282 46
Width: 549
VWidth: 999
Flags: HW
HStem: -2 29<14 50> 0 39<183.683 419.99> 323 38<182 352.245> 416 20<367 392.5> 605 40<183.485 390.274> 618 28<14 50>
VStem: 101 81<40.3443 323 361 603.225> 361 34<252 316.054 403 436> 438 29<499.793 534.346> 489 31<128.12 166.129>
LayerCount: 2
Fore
SplineSet
268 697 m 1
 238 734 203 764 167 792 c 1
 183 812 l 1
 222 795 256 776 289 751 c 1
 326 777 358 796 396 812 c 1
 411 792 l 1
 373 763 341 731 311 697 c 1
 268 697 l 1
445 646 m 0
 447 638 462 542 467 501 c 1
 438 496 l 1
 416 565 398 605 323 605 c 2
 218 605 l 2
 194 605 182 595 182 571 c 2
 182 361 l 1
 309 361 l 2
 344 361 356 375 359 403 c 2
 362 428 l 2
 362 432 365 436 369 436 c 2
 391 436 l 1
 395 432 l 1
 392 392 391 362 391 342 c 0
 391 322 392 295 395 255 c 1
 391 252 l 1
 369 252 l 2
 364 252 362 257 362 260 c 2
 359 285 l 2
 356 314 343 323 309 323 c 2
 182 323 l 1
 182 72 l 2
 182 45 196 39 218 39 c 2
 354 39 l 2
 430 39 469 98 489 170 c 1
 520 165 l 1
 508 113 494 50 483 -2 c 1
 483 -2 403 0 355 0 c 2
 141 0 l 2
 102 0 61 -1 14 -2 c 1
 12 0 l 1
 12 20 l 2
 12 23 14 27 20 27 c 2
 50 29 l 2
 89 32 101 44 101 72 c 2
 101 571 l 2
 101 602 88 613 50 616 c 2
 20 618 l 2
 13 618 12 622 12 625 c 2
 12 645 l 1
 14 647 l 1
 61 646 102 645 141 645 c 2
 394 645 l 2
 418 645 424 646 441 649 c 0
 444 649 445 648 445 646 c 0
EndSplineSet
Position2: "'cpsp' Versalabstaende 1" dx=2 dy=0 dh=5 dv=0
Substitution2: "'c2sc' Versale nach Kapitaelchen 1" ecaron.sc
Colour: ff00ff
EndChar

StartChar: ecaron
Encoding: 283 283 47
Width: 427
VWidth: 999
Flags: HW
HStem: -10 49<195.372 321.672> 248 39<117 314.997> 405 34<173.337 282.104>
VStem: 34 80<137.009 248> 315 80<259.5 367.016>
LayerCount: 2
Fore
SplineSet
199 501 m 1
 170 548 133 593 98 631 c 1
 118 644 l 1
 157 615 190 590 224 554 c 1
 261 592 295 617 332 644 c 1
 351 631 l 1
 316 592 278 547 249 501 c 1
 199 501 l 1
117 287 m 1
 301 287 l 2
 311 287 315 292 315 301 c 0
 315 385 268 405 232 405 c 0
 209 405 135 400 117 287 c 1
381 95 m 1
 392 94 398 89 401 79 c 1
 363 27 304 -10 232 -10 c 0
 95 -10 34 84 34 199 c 0
 34 351 137 439 232 439 c 0
 364 439 395 349 395 265 c 0
 395 254 388 248 377 248 c 2
 114 248 l 1
 114 99 200 39 256 39 c 0
 311 39 346 57 381 95 c 1
EndSplineSet
AlternateSubs2: "'aalt' Alle Alternativen zeigen 1" ecaron.sc
Substitution2: "'smcp' Gemeine nach Kapitaelchen 1" ecaron.sc
Colour: ff00ff
EndChar

StartChar: Gcircumflex
Encoding: 284 284 48
Width: 693
VWidth: 999
Flags: HW
HStem: -10 36<299.692 489.453> 271 36<453 485 626.062 672> 621 37<278.364 463.377>
VStem: 32 87<215.673 431.42> 540 81<83.4212 262.951> 585 30<457.6 492.683>
LayerCount: 2
Fore
SplineSet
385 805 m 1
 415 769 450 738 486 711 c 1
 470 690 l 1
 431 708 397 727 364 752 c 1
 327 725 295 707 257 690 c 1
 243 711 l 1
 280 739 311 771 342 805 c 1
 385 805 l 1
375 658 m 0
 497 658 533 613 593 613 c 1
 600 541 606 501 615 459 c 1
 585 453 l 1
 559 539 506 621 361 621 c 0
 226 621 119 502 119 327 c 0
 119 195 215 26 393 26 c 0
 447 26 506 42 540 74 c 1
 540 227 l 2
 540 258 525 266 485 269 c 2
 459 271 l 2
 455 271 451 274 451 279 c 2
 451 305 l 1
 453 307 l 1
 500 306 541 305 580 305 c 0
 620 305 642 306 672 307 c 1
 674 305 l 1
 674 279 l 2
 674 274 671 272 666 271 c 0
 637 268 621 262 621 227 c 2
 621 111 l 2
 621 100 626 92 637 83 c 1
 569 25 488 -10 370 -10 c 0
 169 -10 32 134 32 307 c 0
 32 527 203 658 375 658 c 0
EndSplineSet
Position2: "'cpsp' Versalabstaende 1" dx=2 dy=0 dh=5 dv=0
Colour: ff00ff
EndChar

StartChar: gcircumflex
Encoding: 285 285 49
Width: 479
VWidth: 999
Flags: HW
HStem: -238 37<152.298 302.696> -12 61<172.809 359.728> 136 31<175.133 272.366> 408 31<167.815 264.598>
VStem: 32 66<-157.965 -57.3985> 59 78<210.052 363.612> 103 253<516 516> 308 76<209.75 368.749> 401 52<-133.448 -47.7496>
LayerCount: 2
Fore
SplineSet
255 645 m 1
 284 598 320 556 356 516 c 1
 335 502 l 1
 296 531 263 556 229 592 c 1
 192 554 160 529 122 502 c 1
 102 516 l 1
 138 556 176 599 205 645 c 1
 255 645 l 1
308 279 m 0
 308 362 274 408 214 408 c 0
 162 408 137 372 137 302 c 0
 137 238 147 167 227 167 c 0
 262 167 308 186 308 279 c 0
128 -10 m 1
 100 -45 98 -70 98 -104 c 0
 98 -172 178 -201 212 -201 c 0
 298 -201 401 -163 401 -91 c 0
 401 -65 389 -51 352 -29 c 0
 324 -13 283 -12 235 -12 c 0
 221 -12 196 -15 166 -15 c 0
 154 -15 139 -13 128 -10 c 1
428 388 m 0
 412 388 402 397 398 405 c 1
 392 414 388 417 381 417 c 0
 369 417 350 403 343 393 c 1
 371 363 384 336 384 289 c 0
 384 191 306 136 222 136 c 0
 185 136 157 143 134 157 c 1
 123 140 117 119 117 99 c 0
 117 56 150 42 178 42 c 0
 183 42 193 43 207 44 c 0
 230 47 253 49 270 49 c 0
 305 49 373 48 411 16 c 0
 439 -8 453 -33 453 -65 c 0
 453 -173 313 -238 184 -238 c 0
 111 -238 32 -211 32 -124 c 0
 32 -81 59 -35 110 -3 c 1
 85 10 67 38 67 74 c 0
 67 108 82 151 109 175 c 1
 82 202 59 233 59 287 c 0
 59 379 138 439 223 439 c 0
 279 439 312 419 323 411 c 1
 348 445 393 462 418 462 c 0
 444 462 462 445 462 424 c 0
 462 402 448 388 428 388 c 0
EndSplineSet
Colour: ff00ff
EndChar

StartChar: Gbreve
Encoding: 286 286 50
Width: 693
VWidth: 999
Flags: HW
HStem: -10 36<299.692 489.453> 271 36<453 485 626.062 672> 621 37<278.364 463.377> 693 52<293 449>
VStem: 32 87<215.673 431.42> 236 28<766 804> 480 27<768 806> 540 81<83.4212 262.951> 585 30<457.6 492.683>
LayerCount: 2
Fore
SplineSet
508 806 m 1
 502 735 438 693 372 693 c 0
 299 693 241 736 236 806 c 1
 264 806 l 1
 272 767 319 745 372 745 c 0
 421 745 473 767 480 806 c 1
 508 806 l 1
375 658 m 0
 497 658 533 613 593 613 c 1
 600 541 606 501 615 459 c 1
 585 453 l 1
 559 539 506 621 361 621 c 0
 226 621 119 502 119 327 c 0
 119 195 215 26 393 26 c 0
 447 26 506 42 540 74 c 1
 540 227 l 2
 540 258 525 266 485 269 c 2
 459 271 l 2
 455 271 451 274 451 279 c 2
 451 305 l 1
 453 307 l 1
 500 306 541 305 580 305 c 0
 620 305 642 306 672 307 c 1
 674 305 l 1
 674 279 l 2
 674 274 671 272 666 271 c 0
 637 268 621 262 621 227 c 2
 621 111 l 2
 621 100 626 92 637 83 c 1
 569 25 488 -10 370 -10 c 0
 169 -10 32 134 32 307 c 0
 32 527 203 658 375 658 c 0
EndSplineSet
Position2: "'cpsp' Versalabstaende 1" dx=2 dy=0 dh=5 dv=0
Substitution2: "'c2sc' Versale nach Kapitaelchen 1" gbreve.sc
Colour: ff00ff
EndChar

StartChar: gbreve
Encoding: 287 287 51
Width: 479
VWidth: 999
Flags: HW
HStem: -238 37<152.298 302.696> -12 61<172.809 359.728> 136 31<175.133 272.366> 408 31<167.815 264.598> 497 57<150.968 287.898>
VStem: 32 66<-157.965 -57.3985> 59 78<210.052 363.612> 85 26<603.805 635.769> 308 76<209.75 368.749> 328 27<605.333 635.63> 401 52<-133.448 -47.7496>
LayerCount: 2
Fore
SplineSet
112 644 m 1
 123 591 166 554 220 554 c 0
 272 554 318 586 328 644 c 1
 355 632 l 1
 343 546 279 497 220 497 c 0
 150 497 99 547 85 632 c 1
 112 644 l 1
308 279 m 0
 308 362 274 408 214 408 c 0
 162 408 137 372 137 302 c 0
 137 238 147 167 227 167 c 0
 262 167 308 186 308 279 c 0
128 -10 m 1
 100 -45 98 -70 98 -104 c 0
 98 -172 178 -201 212 -201 c 0
 298 -201 401 -163 401 -91 c 0
 401 -65 389 -51 352 -29 c 0
 324 -13 283 -12 235 -12 c 0
 221 -12 196 -15 166 -15 c 0
 154 -15 139 -13 128 -10 c 1
428 388 m 0
 412 388 402 397 398 405 c 1
 392 414 388 417 381 417 c 0
 369 417 350 403 343 393 c 1
 371 363 384 336 384 289 c 0
 384 191 306 136 222 136 c 0
 185 136 157 143 134 157 c 1
 123 140 117 119 117 99 c 0
 117 56 150 42 178 42 c 0
 183 42 193 43 207 44 c 0
 230 47 253 49 270 49 c 0
 305 49 373 48 411 16 c 0
 439 -8 453 -33 453 -65 c 0
 453 -173 313 -238 184 -238 c 0
 111 -238 32 -211 32 -124 c 0
 32 -81 59 -35 110 -3 c 1
 85 10 67 38 67 74 c 0
 67 108 82 151 109 175 c 1
 82 202 59 233 59 287 c 0
 59 379 138 439 223 439 c 0
 279 439 312 419 323 411 c 1
 348 445 393 462 418 462 c 0
 444 462 462 445 462 424 c 0
 462 402 448 388 428 388 c 0
EndSplineSet
AlternateSubs2: "'aalt' Alle Alternativen zeigen 1" gbreve.sc
Substitution2: "'smcp' Gemeine nach Kapitaelchen 1" gbreve.sc
Colour: ff00ff
EndChar

StartChar: Gdotaccent
Encoding: 288 288 52
Width: 693
VWidth: 999
Flags: HW
HStem: -10 36<299.692 489.453> 271 36<453 485 626.062 672> 621 37<278.364 463.377> 700 104<334.542 417.458>
VStem: 32 87<215.673 431.42> 324 104<710.542 793.458> 540 81<83.4212 262.951> 585 30<457.6 492.683>
LayerCount: 2
Fore
SplineSet
324 752 m 0
 324 780 348 804 376 804 c 0
 404 804 428 780 428 752 c 0
 428 724 404 700 376 700 c 0
 348 700 324 724 324 752 c 0
375 658 m 0
 497 658 533 613 593 613 c 1
 600 541 606 501 615 459 c 1
 585 453 l 1
 559 539 506 621 361 621 c 0
 226 621 119 502 119 327 c 0
 119 195 215 26 393 26 c 0
 447 26 506 42 540 74 c 1
 540 227 l 2
 540 258 525 266 485 269 c 2
 459 271 l 2
 455 271 451 274 451 279 c 2
 451 305 l 1
 453 307 l 1
 500 306 541 305 580 305 c 0
 620 305 642 306 672 307 c 1
 674 305 l 1
 674 279 l 2
 674 274 671 272 666 271 c 0
 637 268 621 262 621 227 c 2
 621 111 l 2
 621 100 626 92 637 83 c 1
 569 25 488 -10 370 -10 c 0
 169 -10 32 134 32 307 c 0
 32 527 203 658 375 658 c 0
EndSplineSet
Position2: "'cpsp' Versalabstaende 1" dx=2 dy=0 dh=5 dv=0
Colour: ff00ff
EndChar

StartChar: gdotaccent
Encoding: 289 289 53
Width: 479
VWidth: 999
Flags: HW
HStem: -238 37<152.298 302.696> -12 61<172.809 359.728> 136 31<175.133 272.366> 408 31<167.815 264.598> 522 96<185.332 264.668>
VStem: 32 66<-157.965 -57.3985> 59 78<210.052 363.612> 177 96<530.332 609.668> 308 76<209.75 368.749> 401 52<-133.448 -47.7496>
LayerCount: 2
Fore
SplineSet
177 570 m 0
 177 596 199 618 225 618 c 0
 251 618 273 596 273 570 c 0
 273 544 251 522 225 522 c 0
 199 522 177 544 177 570 c 0
308 279 m 0
 308 362 274 408 214 408 c 0
 162 408 137 372 137 302 c 0
 137 238 147 167 227 167 c 0
 262 167 308 186 308 279 c 0
128 -10 m 1
 100 -45 98 -70 98 -104 c 0
 98 -172 178 -201 212 -201 c 0
 298 -201 401 -163 401 -91 c 0
 401 -65 389 -51 352 -29 c 0
 324 -13 283 -12 235 -12 c 0
 221 -12 196 -15 166 -15 c 0
 154 -15 139 -13 128 -10 c 1
428 388 m 0
 412 388 402 397 398 405 c 1
 392 414 388 417 381 417 c 0
 369 417 350 403 343 393 c 1
 371 363 384 336 384 289 c 0
 384 191 306 136 222 136 c 0
 185 136 157 143 134 157 c 1
 123 140 117 119 117 99 c 0
 117 56 150 42 178 42 c 0
 183 42 193 43 207 44 c 0
 230 47 253 49 270 49 c 0
 305 49 373 48 411 16 c 0
 439 -8 453 -33 453 -65 c 0
 453 -173 313 -238 184 -238 c 0
 111 -238 32 -211 32 -124 c 0
 32 -81 59 -35 110 -3 c 1
 85 10 67 38 67 74 c 0
 67 108 82 151 109 175 c 1
 82 202 59 233 59 287 c 0
 59 379 138 439 223 439 c 0
 279 439 312 419 323 411 c 1
 348 445 393 462 418 462 c 0
 444 462 462 445 462 424 c 0
 462 402 448 388 428 388 c 0
EndSplineSet
Colour: ff00ff
EndChar

StartChar: Gcommaaccent
Encoding: 290 290 54
Width: 693
VWidth: 999
Flags: HW
HStem: -226 24<326.315 356.976> -123 82<331.324 396.34> -10 36<299.692 489.453> 271 36<453 485 626.062 672> 621 37<278.364 463.377>
VStem: 32 87<215.673 431.42> 398 39<-177.408 -99.958> 540 81<83.4212 262.951> 585 30<457.6 492.683>
LayerCount: 2
Fore
SplineSet
375 -41 m 0
 413 -41 437 -75 437 -127 c 0
 437 -187 388 -217 331 -226 c 1
 325 -220 323 -211 323 -202 c 1
 372 -191 398 -167 398 -149 c 0
 398 -129 385 -125 367 -123 c 1
 350 -120 325 -111 325 -84 c 0
 325 -60 346 -41 375 -41 c 0
375 658 m 0
 497 658 533 613 593 613 c 1
 600 541 606 501 615 459 c 1
 585 453 l 1
 559 539 506 621 361 621 c 0
 226 621 119 502 119 327 c 0
 119 195 215 26 393 26 c 0
 447 26 506 42 540 74 c 1
 540 227 l 2
 540 258 525 266 485 269 c 2
 459 271 l 2
 455 271 451 274 451 279 c 2
 451 305 l 1
 453 307 l 1
 500 306 541 305 580 305 c 0
 620 305 642 306 672 307 c 1
 674 305 l 1
 674 279 l 2
 674 274 671 272 666 271 c 0
 637 268 621 262 621 227 c 2
 621 111 l 2
 621 100 626 92 637 83 c 1
 569 25 488 -10 370 -10 c 0
 169 -10 32 134 32 307 c 0
 32 527 203 658 375 658 c 0
EndSplineSet
Position2: "'cpsp' Versalabstaende 1" dx=2 dy=0 dh=5 dv=0
Colour: ff00ff
EndChar

StartChar: gcommaaccent
Encoding: 291 291 55
Width: 479
VWidth: 999
Flags: HW
HStem: -238 37<152.298 302.696> -12 61<172.809 359.728> 136 31<175.133 272.366> 408 31<167.815 264.598> 511 82<199.561 272.708> 673 17<251.498 273>
VStem: 32 66<-157.965 -57.3985> 59 78<210.052 363.612> 166 32<584 635.93> 308 76<209.75 368.749> 401 52<-133.448 -47.7496>
LayerCount: 2
Fore
SplineSet
228 511 m 0
 189 511 166 548 166 584 c 0
 166 608 173 630 189 650 c 0
 206 671 234 688 272 693 c 1
 276 689 277 680 277 673 c 1
 220 661 200 629 200 606 c 0
 200 586 205 593 229 593 c 0
 269 593 279 569 279 552 c 0
 279 536 263 511 228 511 c 0
308 279 m 0
 308 362 274 408 214 408 c 0
 162 408 137 372 137 302 c 0
 137 238 147 167 227 167 c 0
 262 167 308 186 308 279 c 0
128 -10 m 1
 100 -45 98 -70 98 -104 c 0
 98 -172 178 -201 212 -201 c 0
 298 -201 401 -163 401 -91 c 0
 401 -65 389 -51 352 -29 c 0
 324 -13 283 -12 235 -12 c 0
 221 -12 196 -15 166 -15 c 0
 154 -15 139 -13 128 -10 c 1
428 388 m 0
 412 388 402 397 398 405 c 1
 392 414 388 417 381 417 c 0
 369 417 350 403 343 393 c 1
 371 363 384 336 384 289 c 0
 384 191 306 136 222 136 c 0
 185 136 157 143 134 157 c 1
 123 140 117 119 117 99 c 0
 117 56 150 42 178 42 c 0
 183 42 193 43 207 44 c 0
 230 47 253 49 270 49 c 0
 305 49 373 48 411 16 c 0
 439 -8 453 -33 453 -65 c 0
 453 -173 313 -238 184 -238 c 0
 111 -238 32 -211 32 -124 c 0
 32 -81 59 -35 110 -3 c 1
 85 10 67 38 67 74 c 0
 67 108 82 151 109 175 c 1
 82 202 59 233 59 287 c 0
 59 379 138 439 223 439 c 0
 279 439 312 419 323 411 c 1
 348 445 393 462 418 462 c 0
 444 462 462 445 462 424 c 0
 462 402 448 388 428 388 c 0
EndSplineSet
Colour: ff00ff
EndChar

StartChar: Hcircumflex
Encoding: 292 292 56
Width: 700
VWidth: 999
Flags: HW
HStem: -2 29<20 52 242 274 427 459 649 682> 321 42<187 513> 618 29<19 52 242 274 426 459 649 681>
VStem: 106 81<35.58 321 363 609.207> 513 81<35.748 321 363 609.203>
LayerCount: 2
Fore
SplineSet
513 74 m 2
 513 321 l 1
 187 321 l 1
 187 72 l 2
 187 41 202 32 242 29 c 2
 268 27 l 2
 272 27 276 24 276 19 c 2
 276 0 l 1
 274 -2 l 1
 224 -1 196 0 146 0 c 0
 96 0 70 -1 20 -2 c 1
 18 0 l 1
 18 19 l 2
 18 24 21 27 25 27 c 2
 52 29 l 2
 93 32 106 44 106 72 c 2
 106 574 l 2
 106 604 90 613 52 616 c 2
 25 618 l 2
 21 618 17 621 17 626 c 2
 17 645 l 1
 19 647 l 1
 69 646 96 645 146 645 c 0
 196 645 224 646 274 647 c 1
 276 645 l 1
 276 626 l 2
 276 621 273 618 268 618 c 2
 242 616 l 2
 202 613 187 602 187 574 c 2
 187 363 l 1
 513 363 l 1
 513 574 l 2
 513 604 498 613 459 616 c 2
 433 618 l 2
 428 618 424 621 424 626 c 2
 424 645 l 1
 426 647 l 1
 476 646 504 645 554 645 c 0
 604 645 631 646 681 647 c 1
 683 645 l 1
 683 626 l 2
 683 621 680 618 675 618 c 2
 649 616 l 2
 609 613 594 602 594 574 c 2
 594 74 l 2
 594 43 608 32 649 29 c 2
 675 27 l 2
 680 27 684 24 684 19 c 2
 684 0 l 1
 682 -2 l 1
 632 -1 604 0 554 0 c 0
 504 0 477 -1 427 -2 c 1
 425 0 l 1
 425 19 l 2
 425 24 428 27 433 27 c 2
 459 29 l 2
 502 32 513 46 513 74 c 2
368 803 m 1
 398 767 433 736 469 709 c 1
 453 688 l 1
 414 706 380 725 347 750 c 1
 310 723 278 705 240 688 c 1
 226 709 l 1
 263 737 294 769 325 803 c 1
 368 803 l 1
EndSplineSet
Position2: "'cpsp' Versalabstaende 1" dx=2 dy=0 dh=5 dv=0
Colour: ff00ff
EndChar

StartChar: hcircumflex
Encoding: 293 293 57
Width: 520
VWidth: 999
Flags: HW
HStem: -2 29<21 45 206 231 293 318 479 504> 392 47<245.141 344.739> 678 20<140.465 157.5>
VStem: 88 75<33.5257 337.568 356 639.899> 361 75<33.5163 375.24>
LayerCount: 2
Fore
SplineSet
286 832 m 1
 316 796 351 765 387 738 c 1
 371 717 l 1
 332 735 298 754 265 779 c 1
 228 752 196 734 158 717 c 1
 144 738 l 1
 181 766 212 798 243 832 c 1
 286 832 l 1
163 583 m 2
 163 356 l 1
 230 423 289 439 328 439 c 0
 400 439 436 387 436 284 c 2
 436 72 l 2
 436 43 446 32 479 29 c 2
 498 27 l 2
 502 27 506 24 506 19 c 2
 506 0 l 1
 504 -2 l 1
 454 -1 438 0 397 0 c 0
 358 0 343 -1 293 -2 c 1
 291 0 l 1
 291 19 l 2
 291 24 294 26 299 27 c 2
 318 29 l 2
 352 33 361 43 361 72 c 2
 361 295 l 2
 361 376 339 392 283 392 c 0
 254 392 211 366 163 319 c 1
 163 72 l 2
 163 43 173 32 206 29 c 2
 225 27 l 2
 229 27 233 24 233 19 c 2
 233 0 l 1
 231 -2 l 1
 181 -1 165 0 124 0 c 0
 85 0 71 -1 21 -2 c 1
 19 0 l 1
 19 19 l 2
 19 24 21 26 26 27 c 2
 45 29 l 2
 79 33 88 43 88 72 c 2
 88 563 l 2
 88 628 78 641 58 641 c 1
 26 643 l 2
 23 643 20 645 20 648 c 2
 18 672 l 1
 58 675 128 688 153 698 c 1
 162 698 166 695 166 688 c 2
 166 688 163 648 163 583 c 2
EndSplineSet
Colour: ff00ff
EndChar

StartChar: Hbar
Encoding: 294 294 58
Width: 700
VWidth: 999
Flags: HW
HStem: -2 29<20 52 242 274 427 459 649 682> 321 42<187 513> 512 34<41 656> 618 29<19 52 242 274 426 459 649 681>
VStem: 106 81<35.58 321 363 609.207> 513 81<35.748 321 363 609.203>
LayerCount: 2
Fore
SplineSet
513 74 m 2
 513 321 l 1
 187 321 l 1
 187 72 l 2
 187 41 202 32 242 29 c 2
 268 27 l 2
 272 27 276 24 276 19 c 2
 276 0 l 1
 274 -2 l 1
 224 -1 196 0 146 0 c 0
 96 0 70 -1 20 -2 c 1
 18 0 l 1
 18 19 l 2
 18 24 21 27 25 27 c 2
 52 29 l 2
 93 32 106 44 106 72 c 2
 106 512 l 1
 41 512 l 1
 41 546 l 1
 106 546 l 1
 106 574 l 2
 106 604 90 613 52 616 c 2
 25 618 l 2
 21 618 17 621 17 626 c 2
 17 645 l 1
 19 647 l 1
 69 646 96 645 146 645 c 0
 196 645 224 646 274 647 c 1
 276 645 l 1
 276 626 l 2
 276 621 273 618 268 618 c 2
 242 616 l 2
 202 613 187 602 187 574 c 2
 187 546 l 1
 513 546 l 1
 513 574 l 2
 513 604 498 613 459 616 c 2
 433 618 l 2
 428 618 424 621 424 626 c 2
 424 645 l 1
 426 647 l 1
 476 646 504 645 554 645 c 0
 604 645 631 646 681 647 c 1
 683 645 l 1
 683 626 l 2
 683 621 680 618 675 618 c 2
 649 616 l 2
 609 613 594 602 594 574 c 2
 594 546 l 1
 656 546 l 1
 656 512 l 1
 594 512 l 1
 594 74 l 2
 594 43 608 32 649 29 c 2
 675 27 l 2
 680 27 684 24 684 19 c 2
 684 0 l 1
 682 -2 l 1
 632 -1 604 0 554 0 c 0
 504 0 477 -1 427 -2 c 1
 425 0 l 1
 425 19 l 2
 425 24 428 27 433 27 c 2
 459 29 l 2
 502 32 513 46 513 74 c 2
513 512 m 1
 187 512 l 1
 187 363 l 1
 513 363 l 1
 513 512 l 1
EndSplineSet
Position2: "'cpsp' Versalabstaende 1" dx=2 dy=0 dh=5 dv=0
Colour: ff9ccc
EndChar

StartChar: hbar
Encoding: 295 295 59
Width: 520
VWidth: 999
Flags: HW
HStem: -2 29<21 45 206 231 293 318 479 504> 392 47<245.141 344.739> 530 39<26 341> 678 20<140.465 157.5>
VStem: 88 75<33.5257 337.568 356 639.899> 361 75<33.5163 375.24>
LayerCount: 2
Fore
SplineSet
88 569 m 1
 87 629 77 641 58 641 c 1
 26 643 l 2
 23 643 20 645 20 648 c 2
 18 672 l 1
 58 675 128 688 153 698 c 1
 162 698 166 695 166 688 c 2
 166 688 163 648 163 583 c 2
 163 569 l 1
 341 569 l 1
 341 530 l 1
 163 530 l 1
 163 356 l 1
 230 423 289 439 328 439 c 0
 400 439 436 387 436 284 c 2
 436 72 l 2
 436 43 446 32 479 29 c 2
 498 27 l 2
 502 27 506 24 506 19 c 2
 506 0 l 1
 504 -2 l 1
 454 -1 438 0 397 0 c 0
 358 0 343 -1 293 -2 c 1
 291 0 l 1
 291 19 l 2
 291 24 294 26 299 27 c 2
 318 29 l 2
 352 33 361 43 361 72 c 2
 361 295 l 2
 361 376 339 392 283 392 c 0
 254 392 211 366 163 319 c 1
 163 72 l 2
 163 43 173 32 206 29 c 2
 225 27 l 2
 229 27 233 24 233 19 c 2
 233 0 l 1
 231 -2 l 1
 181 -1 165 0 124 0 c 0
 85 0 71 -1 21 -2 c 1
 19 0 l 1
 19 19 l 2
 19 24 21 26 26 27 c 2
 45 29 l 2
 79 33 88 43 88 72 c 2
 88 530 l 1
 26 530 l 1
 26 569 l 1
 88 569 l 1
EndSplineSet
Colour: ff9ccc
EndChar

StartChar: Itilde
Encoding: 296 296 60
Width: 293
VWidth: 999
Flags: HW
HStem: -2 29<20 52 242 274> 618 29<19 52 242 274> 697 44<162 249> 745 46<44 135> 784 10
VStem: 106 81<35.3322 609.22>
LayerCount: 2
Fore
SplineSet
213 741 m 0
 235 741 249 751 263 793 c 1
 287 787 l 1
 275 727 246 697 200 697 c 0
 178 697 157 709 136 723 c 0
 118 734 99 745 82 745 c 0
 56 745 43 730 33 697 c 1
 9 702 l 1
 23 761 46 791 89 791 c 0
 119 791 141 777 161 763 c 0
 177 751 194 741 213 741 c 0
187 574 m 2
 187 71 l 2
 187 41 202 32 242 29 c 2
 268 27 l 2
 272 27 276 24 276 19 c 2
 276 0 l 1
 274 -2 l 1
 226 0 197 0 147 0 c 0
 97 0 69 0 20 -2 c 1
 18 0 l 1
 18 19 l 2
 18 24 21 27 25 27 c 2
 52 29 l 2
 94 32 106 43 106 71 c 2
 106 574 l 2
 106 604 91 613 52 616 c 2
 25 618 l 2
 21 618 17 621 17 626 c 2
 17 645 l 1
 19 647 l 1
 69 646 96 645 146 645 c 0
 196 645 225 646 274 647 c 1
 276 645 l 1
 276 626 l 2
 276 621 273 618 268 618 c 2
 242 616 l 2
 202 613 187 602 187 574 c 2
EndSplineSet
Position2: "'cpsp' Versalabstaende 1" dx=2 dy=0 dh=5 dv=0
Colour: ff00ff
EndChar

StartChar: itilde
Encoding: 297 297 61
Width: 267
VWidth: 999
Flags: HW
HStem: -2 29<34 59 219 245> 422 20<161.75 177.219> 526 44<138.2 216.5> 574 46<32 113.9> 613 10
VStem: 102 75<33.5056 383>
LayerCount: 2
Fore
SplineSet
184 570 m 0
 204 570 216 580 229 622 c 1
 251 616 l 1
 240 556 214 526 172 526 c 0
 153 526 134 538 115 552 c 0
 99 563 82 574 66 574 c 0
 43 574 31 559 22 526 c 1
 0 531 l 1
 13 590 34 620 72 620 c 0
 100 620 119 606 137 592 c 0
 152 580 167 570 184 570 c 0
180 439 m 2
 180 439 177 371 177 321 c 2
 177 72 l 2
 177 43 188 32 219 29 c 2
 238 27 l 2
 243 26 247 24 247 19 c 2
 247 0 l 1
 245 -2 l 1
 205 -1 176 0 138 0 c 0
 102 0 74 -1 34 -2 c 1
 32 0 l 1
 32 19 l 2
 32 24 35 26 40 27 c 2
 59 29 l 2
 93 33 102 43 102 72 c 2
 102 321 l 2
 102 371 94 381 80 383 c 2
 37 387 l 1
 35 411 l 1
 106 422 148 431 176 442 c 0
 178 442 180 441 180 439 c 2
EndSplineSet
Colour: ff00ff
EndChar

StartChar: Imacron
Encoding: 298 298 62
Width: 293
VWidth: 999
Flags: HW
HStem: -2 29<20 52 242 274> 618 29<19 52 242 274> 733 44<9.0876 287.515>
VStem: 8 281<733.205 777> 106 81<35.3322 609.22>
LayerCount: 2
Fore
SplineSet
265 733 m 2
 21 733 l 2
 12 733 8 741 8 748 c 0
 8 760 19 777 30 777 c 2
 275 777 l 2
 285 777 289 769 289 763 c 0
 289 751 278 733 265 733 c 2
187 574 m 2
 187 71 l 2
 187 41 202 32 242 29 c 2
 268 27 l 2
 272 27 276 24 276 19 c 2
 276 0 l 1
 274 -2 l 1
 226 0 197 0 147 0 c 0
 97 0 69 0 20 -2 c 1
 18 0 l 1
 18 19 l 2
 18 24 21 27 25 27 c 2
 52 29 l 2
 94 32 106 43 106 71 c 2
 106 574 l 2
 106 604 91 613 52 616 c 2
 25 618 l 2
 21 618 17 621 17 626 c 2
 17 645 l 1
 19 647 l 1
 69 646 96 645 146 645 c 0
 196 645 225 646 274 647 c 1
 276 645 l 1
 276 626 l 2
 276 621 273 618 268 618 c 2
 242 616 l 2
 202 613 187 602 187 574 c 2
EndSplineSet
Position2: "'cpsp' Versalabstaende 1" dx=2 dy=0 dh=5 dv=0
Colour: ff00ff
EndChar

StartChar: imacron
Encoding: 299 299 63
Width: 267
VWidth: 999
Flags: HW
HStem: -2 29<34 59 219 245> 422 20<161.75 177.219> 538 44<-1.42116 249.163>
VStem: -2 253<538.205 582> 102 75<33.5056 383>
LayerCount: 2
Fore
SplineSet
229 538 m 2
 9 538 l 2
 1 538 -2 546 -2 553 c 0
 -2 565 8 582 17 582 c 2
 238 582 l 2
 247 582 251 574 251 568 c 0
 251 556 241 538 229 538 c 2
180 439 m 2
 180 439 177 371 177 321 c 2
 177 72 l 2
 177 43 188 32 219 29 c 2
 238 27 l 2
 243 26 247 24 247 19 c 2
 247 0 l 1
 245 -2 l 1
 205 -1 176 0 138 0 c 0
 102 0 74 -1 34 -2 c 1
 32 0 l 1
 32 19 l 2
 32 24 35 26 40 27 c 2
 59 29 l 2
 93 33 102 43 102 72 c 2
 102 321 l 2
 102 371 94 381 80 383 c 2
 37 387 l 1
 35 411 l 1
 106 422 148 431 176 442 c 0
 178 442 180 441 180 439 c 2
EndSplineSet
Colour: ff00ff
EndChar

StartChar: Ibreve
Encoding: 300 300 64
Width: 293
VWidth: 999
Flags: HW
HStem: -2 29<20 52 242 274> 618 29<19 52 242 274> 692 52<70 226>
VStem: 13 28<765 803> 106 81<35.3322 609.22> 257 27<767 805>
LayerCount: 2
Fore
SplineSet
285 805 m 1
 279 734 215 692 149 692 c 0
 76 692 18 735 13 805 c 1
 41 805 l 1
 49 766 96 744 149 744 c 0
 198 744 250 766 257 805 c 1
 285 805 l 1
187 574 m 2
 187 71 l 2
 187 41 202 32 242 29 c 2
 268 27 l 2
 272 27 276 24 276 19 c 2
 276 0 l 1
 274 -2 l 1
 226 0 197 0 147 0 c 0
 97 0 69 0 20 -2 c 1
 18 0 l 1
 18 19 l 2
 18 24 21 27 25 27 c 2
 52 29 l 2
 94 32 106 43 106 71 c 2
 106 574 l 2
 106 604 91 613 52 616 c 2
 25 618 l 2
 21 618 17 621 17 626 c 2
 17 645 l 1
 19 647 l 1
 69 646 96 645 146 645 c 0
 196 645 225 646 274 647 c 1
 276 645 l 1
 276 626 l 2
 276 621 273 618 268 618 c 2
 242 616 l 2
 202 613 187 602 187 574 c 2
EndSplineSet
Position2: "'cpsp' Versalabstaende 1" dx=2 dy=0 dh=5 dv=0
Colour: ff00ff
EndChar

StartChar: ibreve
Encoding: 301 301 65
Width: 267
VWidth: 999
Flags: HW
HStem: -2 29<34 59 219 245> 422 20<161.75 177.219> 503 57<63.2712 186.508>
VStem: 4 23<609.805 641.769> 102 75<33.5056 383> 223 24<611.333 641.63>
LayerCount: 2
Fore
SplineSet
28 650 m 1
 38 597 77 560 125 560 c 0
 172 560 214 592 223 650 c 1
 247 638 l 1
 236 552 178 503 125 503 c 0
 62 503 16 553 4 638 c 1
 28 650 l 1
180 439 m 2
 180 439 177 371 177 321 c 2
 177 72 l 2
 177 43 188 32 219 29 c 2
 238 27 l 2
 243 26 247 24 247 19 c 2
 247 0 l 1
 245 -2 l 1
 205 -1 176 0 138 0 c 0
 102 0 74 -1 34 -2 c 1
 32 0 l 1
 32 19 l 2
 32 24 35 26 40 27 c 2
 59 29 l 2
 93 33 102 43 102 72 c 2
 102 321 l 2
 102 371 94 381 80 383 c 2
 37 387 l 1
 35 411 l 1
 106 422 148 431 176 442 c 0
 178 442 180 441 180 439 c 2
EndSplineSet
Colour: ff00ff
EndChar

StartChar: Iogonek
Encoding: 302 302 66
Width: 293
VWidth: 999
Flags: HW
HStem: -200 38<142.519 225.833> -2 17<214.684 241> -2 29<20 52 242 274> 618 29<19 52 242 274>
VStem: 73 62<-155.299 -63.1465> 106 81<35.3322 609.22>
LayerCount: 2
Fore
SplineSet
271 -135 m 1
 242 -180 202 -200 161 -200 c 0
 111 -200 73 -180 73 -126 c 0
 73 -84 109 -27 169 -0 c 1
 162 0 155 0 147 0 c 0
 97 0 69 0 20 -2 c 1
 18 0 l 1
 18 19 l 2
 18 24 21 27 25 27 c 2
 52 29 l 2
 94 32 106 43 106 71 c 2
 106 574 l 2
 106 604 91 613 52 616 c 2
 25 618 l 2
 21 618 17 621 17 626 c 2
 17 645 l 1
 19 647 l 1
 69 646 96 645 146 645 c 0
 196 645 225 646 274 647 c 1
 276 645 l 1
 276 626 l 2
 276 621 273 618 268 618 c 2
 242 616 l 2
 202 613 187 602 187 574 c 2
 187 71 l 2
 187 41 202 32 242 29 c 2
 268 27 l 2
 272 27 276 24 276 19 c 2
 276 0 l 1
 274 -2 l 1
 267 -2 261 -1 254 -1 c 1
 255 -2 l 1
 184 -2 135 -69 135 -115 c 0
 135 -141 148 -162 185 -162 c 0
 214 -162 230 -146 252 -124 c 1
 261 -124 267 -128 271 -135 c 1
EndSplineSet
Position2: "'cpsp' Versalabstaende 1" dx=2 dy=0 dh=5 dv=0
Colour: ff9ccc
EndChar

StartChar: iogonek
Encoding: 303 303 67
Width: 267
VWidth: 999
Flags: HW
HStem: -200 38<130.519 213.833> -2 17<202.684 229> -2 29<34 59 219 245> 422 20<161.75 177.219> 522 96<94.332 173.668>
VStem: 61 62<-155.299 -63.1465> 86 96<530.332 609.668> 102 75<33.5056 383>
LayerCount: 2
Fore
SplineSet
259 -135 m 1
 230 -180 190 -200 149 -200 c 0
 99 -200 61 -180 61 -126 c 0
 61 -84 97 -27 157 -0 c 1
 151 -0 145 -0 138 0 c 0
 102 0 74 -1 34 -2 c 1
 32 0 l 1
 32 19 l 2
 32 24 35 26 40 27 c 2
 59 29 l 2
 93 33 102 43 102 72 c 2
 102 321 l 2
 102 371 94 381 80 383 c 2
 37 387 l 1
 35 411 l 1
 106 422 148 431 176 442 c 0
 178 442 180 441 180 439 c 2
 180 439 177 371 177 321 c 2
 177 72 l 2
 177 43 188 32 219 29 c 2
 238 27 l 2
 243 26 247 24 247 19 c 2
 247 0 l 1
 245 -2 l 1
 243 -2 l 1
 243 -2 l 1
 172 -2 123 -69 123 -115 c 0
 123 -141 136 -162 173 -162 c 0
 202 -162 218 -146 240 -124 c 1
 249 -124 255 -128 259 -135 c 1
86 570 m 0
 86 596 108 618 134 618 c 0
 160 618 182 596 182 570 c 0
 182 544 160 522 134 522 c 0
 108 522 86 544 86 570 c 0
EndSplineSet
Colour: ff9ccc
EndChar

StartChar: Idotaccent
Encoding: 304 304 68
Width: 293
VWidth: 999
Flags: HW
HStem: -2 29<20 52 242 274> 618 29<19 52 242 274> 698 104<104.542 187.458>
VStem: 94 104<708.542 791.458> 106 81<35.3322 609.22>
LayerCount: 2
Fore
SplineSet
94 750 m 0
 94 778 118 802 146 802 c 0
 174 802 198 778 198 750 c 0
 198 722 174 698 146 698 c 0
 118 698 94 722 94 750 c 0
187 574 m 2
 187 71 l 2
 187 41 202 32 242 29 c 2
 268 27 l 2
 272 27 276 24 276 19 c 2
 276 0 l 1
 274 -2 l 1
 226 0 197 0 147 0 c 0
 97 0 69 0 20 -2 c 1
 18 0 l 1
 18 19 l 2
 18 24 21 27 25 27 c 2
 52 29 l 2
 94 32 106 43 106 71 c 2
 106 574 l 2
 106 604 91 613 52 616 c 2
 25 618 l 2
 21 618 17 621 17 626 c 2
 17 645 l 1
 19 647 l 1
 69 646 96 645 146 645 c 0
 196 645 225 646 274 647 c 1
 276 645 l 1
 276 626 l 2
 276 621 273 618 268 618 c 2
 242 616 l 2
 202 613 187 602 187 574 c 2
EndSplineSet
Substitution2: "'c2sc' Versale nach Kapitaelchen 1" idotaccent.sc
Position2: "'cpsp' Versalabstaende 1" dx=2 dy=0 dh=5 dv=0
Colour: ff00ff
EndChar

StartChar: afii10057
Encoding: 1032 1032 69
Width: 371
VWidth: 999
Flags: HW
HStem: -12 31<116.593 176.094> 618 28<94 137 333 356>
VStem: 198 81<62.921 602.762>
LayerCount: 2
Fore
SplineSet
143 19 m 0
 192 19 198 79 198 172 c 2
 198 559 l 2
 198 589 177 614 137 616 c 2
 101 618 l 2
 96 618 92 621 92 626 c 2
 92 645 l 1
 94 646 l 1
 94 646 198 645 237 645 c 0
 272 645 356 646 356 646 c 1
 358 645 l 1
 358 626 l 2
 358 621 355 619 350 618 c 2
 333 616 l 2
 294 611 279 600 279 572 c 2
 279 194 l 2
 279 16 206 -12 143 -12 c 0
 109 -12 39 -2 39 51 c 0
 39 76 57 86 72 86 c 0
 100 86 110 61 112 49 c 0
 114 36 121 19 143 19 c 0
EndSplineSet
EndChar

StartChar: afii10061
Encoding: 1036 1036 70
Width: 602
VWidth: 999
Flags: HW
HStem: -2 29<20 52 242 274 566 583> 323 43<187 280.713> 590 61<426.699 532.056> 618 29<19 52 242 274> 698 122
VStem: 106 81<35.3322 609.22> 288 201
LayerCount: 2
Fore
SplineSet
427 820 m 1
 456 807 476 789 489 768 c 1
 345 710 l 2
 324 701 312 698 303 698 c 0
 294 698 288 705 288 713 c 0
 288 720 290 725 303 734 c 2
 427 820 l 1
583 -2 m 1
 510 -1 l 2
 430 0 398 70 355 180 c 0
 316 280 298 321 187 323 c 1
 187 71 l 2
 187 41 202 32 242 29 c 2
 268 27 l 2
 272 27 276 24 276 19 c 2
 276 0 l 1
 274 -2 l 1
 226 0 197 0 147 0 c 0
 97 0 69 0 20 -2 c 1
 18 0 l 1
 18 19 l 2
 18 24 21 27 25 27 c 2
 52 29 l 2
 94 32 106 43 106 71 c 2
 106 574 l 2
 106 604 91 613 52 616 c 2
 25 618 l 2
 21 618 17 621 17 626 c 2
 17 645 l 1
 19 647 l 1
 69 646 96 645 146 645 c 0
 196 645 225 646 274 647 c 1
 276 645 l 1
 276 626 l 2
 276 621 273 618 268 618 c 2
 242 616 l 2
 202 613 187 602 187 574 c 2
 187 366 l 1
 223 366 268 367 292 381 c 0
 351 413 362 488 371 544 c 1
 379 602 432 651 502 651 c 0
 555 651 573 624 573 601 c 0
 573 576 550 559 529 559 c 0
 516 559 501 563 492 572 c 0
 482 583 469 590 456 590 c 0
 433 590 412 562 407 533 c 0
 396 470 379 368 299 343 c 1
 368 343 389 296 415 236 c 0
 473 103 531 31 566 28 c 2
 576 27 l 2
 581 27 584 24 584 19 c 2
 584 0 l 1
 583 -2 l 1
EndSplineSet
LCarets2: 1 0 
Colour: ff00ff
EndChar

StartChar: uni040D
Encoding: 1037 1037 71
Width: 700
VWidth: 999
Flags: HW
HStem: -2 29<20 52 242 274 427 459 649 682> 618 28<20 52 242 274 426 459 649 681>
VStem: 106 81<35.9534 78 134 609.354> 514 81<36.3852 505 561 608.905>
DStem2: 187 134 187 78 0.608002 0.793935<0 493.367>
LayerCount: 2
Fore
SplineSet
299 818 m 1
 420 734 l 2
 431 726 435 720 435 713 c 0
 435 705 428 698 420 698 c 0
 412 698 398 701 377 710 c 2
 223 773 l 1
 241 791 265 806 299 818 c 1
595 572 m 2
 595 73 l 2
 595 43 610 32 649 29 c 2
 675 27 l 2
 680 27 684 24 684 19 c 2
 684 0 l 1
 682 -2 l 1
 682 -2 595 0 556 0 c 0
 520 0 427 -2 427 -2 c 1
 425 0 l 1
 425 19 l 2
 425 24 428 27 433 27 c 2
 459 29 l 2
 499 32 514 45 514 73 c 2
 514 505 l 1
 187 78 l 1
 187 74 l 2
 187 43 201 32 242 29 c 2
 268 27 l 2
 272 27 276 24 276 19 c 2
 276 0 l 1
 274 -2 l 1
 274 -2 188 0 148 0 c 0
 113 0 20 -2 20 -2 c 1
 18 0 l 1
 18 19 l 2
 18 24 21 27 25 27 c 2
 52 29 l 2
 94 32 106 46 106 74 c 2
 106 573 l 2
 106 603 91 613 52 616 c 2
 25 618 l 2
 21 618 18 621 18 626 c 2
 18 645 l 1
 20 646 l 1
 20 646 106 644 146 644 c 0
 181 644 274 646 274 646 c 1
 276 645 l 1
 276 626 l 2
 276 621 273 618 268 618 c 2
 242 616 l 2
 201 613 187 601 187 573 c 2
 187 134 l 1
 514 561 l 1
 514 572 l 2
 514 603 499 613 459 616 c 2
 433 618 l 2
 428 618 424 621 424 626 c 2
 424 645 l 1
 426 646 l 1
 426 646 513 644 552 644 c 0
 588 644 681 647 681 647 c 1
 683 645 l 1
 683 626 l 2
 683 621 680 618 675 618 c 2
 649 616 l 2
 609 613 595 600 595 572 c 2
EndSplineSet
LCarets2: 1 0 
Colour: ff00ff
EndChar

StartChar: afii10062
Encoding: 1038 1038 72
Width: 580
VWidth: 999
Flags: HW
HStem: -22 62<133 229.447> 618 28<1 51.985 192 235 391 425 520.846 579> 697 31<266.536 357.309>
VStem: 187 70<735.681 802.162> 366 70<734.774 802.125>
DStem2: 170 575 88 559 0.41865 -0.908148<-32.5036 379.947> 283 136 342 161 0.370296 0.928914<-102.293 0 103.423 504.868>
LayerCount: 2
Fore
SplineSet
312 728 m 0
 345 728 368 745 368 762 c 0
 368 767 367 773 367 775 c 0
 367 790 377 805 400 805 c 0
 427 805 437 791 437 772 c 0
 437 720 378 697 312 697 c 0
 246 697 187 720 187 772 c 0
 187 791 197 805 224 805 c 0
 247 805 257 790 257 775 c 0
 257 773 256 767 256 762 c 0
 256 745 279 728 312 728 c 0
195 40 m 0
 227 40 252 61 283 136 c 1
 88 559 l 2
 79 579 58 615 10 618 c 0
 4 618 0 621 0 625 c 2
 0 645 l 1
 1 646 l 1
 1 646 64 645 105 645 c 0
 155 645 235 646 235 646 c 1
 237 645 l 1
 237 626 l 2
 237 621 235 618 230 618 c 2
 192 616 l 2
 160 614 158 601 170 575 c 2
 327 229 l 1
 329 229 l 1
 458 575 l 2
 471 610 465 613 425 616 c 2
 396 618 l 2
 392 618 390 621 390 625 c 2
 390 645 l 1
 391 646 l 1
 391 646 457 645 499 645 c 0
 531 645 579 646 579 646 c 1
 581 645 l 1
 581 626 l 2
 581 620 574 618 570 618 c 0
 524 615 514 606 499 566 c 2
 342 161 l 2
 299 52 244 -22 154 -22 c 0
 112 -22 66 1 66 33 c 0
 66 61 81 79 113 79 c 0
 127 79 149 72 159 60 c 0
 166 51 181 40 195 40 c 0
EndSplineSet
LCarets2: 1 0 
Colour: ff00ff
EndChar

StartChar: afii10020
Encoding: 1043 1043 73
Width: 481
VWidth: 999
Flags: HW
HStem: -2 29<14 47 238 270> 605 40<184.437 406.492> 618 28<14 50>
VStem: 102 81<36.3415 603.635> 457 29<488.793 527.352>
LayerCount: 2
Fore
SplineSet
183 71 m 2
 183 41 198 32 238 29 c 2
 264 27 l 2
 268 27 272 24 272 19 c 2
 272 0 l 1
 270 -2 l 1
 222 0 193 0 143 0 c 0
 93 0 65 0 16 -2 c 1
 14 0 l 1
 14 19 l 2
 14 24 17 27 21 27 c 2
 48 29 l 2
 90 32 102 43 102 71 c 2
 102 571 l 2
 102 606 92 613 50 616 c 2
 20 618 l 2
 16 618 12 621 12 625 c 2
 12 645 l 1
 14 647 l 1
 54 646 103 645 142 645 c 2
 346 645 l 1
 346 645 427 646 466 647 c 1
 470 593 473 554 481 490 c 1
 452 486 l 1
 431 555 418 605 343 605 c 2
 219 605 l 2
 197 605 183 599 183 573 c 2
 183 71 l 2
EndSplineSet
Colour: ff00ff
EndChar

StartChar: afii10021
Encoding: 1044 1044 74
Width: 655
VWidth: 999
Flags: HW
HStem: 0 39<182.009 462.022> 605 40<269.132 462.578> 618 29<151 187 582 617>
VStem: 34 27<-140 -94.0922> 464 81<40.4891 603.884> 595 27<-140 -98.3137>
LayerCount: 2
Fore
SplineSet
112 47 m 0
 138 73 156 145 188 301 c 1
 210 415 222 518 222 581 c 0
 222 602 213 612 187 615 c 2
 157 618 l 2
 152 618 149 620 149 624 c 2
 149 645 l 1
 151 647 l 1
 151 647 221 645 251 645 c 2
 508 645 l 2
 538 645 617 647 617 647 c 1
 619 645 l 1
 619 626 l 2
 619 620 615 618 611 618 c 2
 582 616 l 2
 550 614 545 601 545 565 c 2
 545 78 l 2
 545 41 568 30 585 27 c 0
 607 23 614 20 615 8 c 2
 622 -140 l 1
 595 -140 595 -141 595 -141 c 1
 583 -85 547 0 467 0 c 2
 181 0 l 2
 98 0 72 -89 61 -141 c 1
 34 -140 l 1
 41 8 l 2
 42 20 52 25 62 27 c 0
 81 30 97 33 112 47 c 0
427 605 m 2
 304 605 l 2
 277 605 267 591 265 566 c 0
 257 465 241 361 229 293 c 0
 207 176 182 77 182 56 c 0
 182 44 195 39 209 39 c 2
 428 39 l 2
 452 39 464 42 464 79 c 2
 464 566 l 2
 464 597 458 605 427 605 c 2
EndSplineSet
EndChar

StartChar: afii10024
Encoding: 1046 1046 75
Width: 855
VWidth: 999
Flags: HW
HStem: -2 29<24 67.4219 301 333 523 555 788.578 832> 323 43<297.65 388 468 558.35> 590 61<70.0265 164.818 691.182 785.974> 618 29<300 333 523 555>
VStem: 387 81<35.3322 609.22>
LayerCount: 2
Fore
SplineSet
832 -2 m 1
 766 -1 l 2
 694 0 666 70 627 180 c 0
 591 282 575 323 468 323 c 1
 468 71 l 2
 468 41 483 32 523 29 c 2
 549 27 l 2
 553 27 557 24 557 19 c 2
 557 0 l 1
 555 -2 l 1
 508 0 478 0 428 0 c 0
 378 0 350 0 301 -2 c 1
 299 0 l 1
 299 19 l 2
 299 24 302 27 306 27 c 2
 333 29 l 2
 375 32 387 43 387 71 c 2
 387 323 l 1
 281 323 265 282 229 180 c 0
 190 70 162 0 90 -1 c 2
 24 -2 l 1
 23 0 l 1
 23 19 l 2
 23 24 26 27 30 27 c 2
 40 27 l 2
 72 27 124 103 175 236 c 0
 199 296 218 343 280 343 c 1
 208 368 192 470 182 533 c 0
 178 562 159 590 139 590 c 0
 127 590 115 583 106 572 c 0
 98 563 84 559 73 559 c 0
 54 559 33 576 33 601 c 0
 33 624 50 651 97 651 c 0
 160 651 208 602 215 544 c 1
 223 488 233 413 286 381 c 0
 310 366 353 366 387 366 c 1
 387 574 l 2
 387 604 372 613 333 616 c 2
 306 618 l 2
 302 618 298 621 298 626 c 2
 298 645 l 1
 300 647 l 1
 350 646 377 645 427 645 c 0
 477 645 506 646 555 647 c 1
 557 645 l 1
 557 626 l 2
 557 621 554 618 549 618 c 2
 523 616 l 2
 483 613 468 602 468 574 c 2
 468 366 l 1
 501 366 546 366 570 381 c 0
 623 413 633 488 641 544 c 1
 648 602 696 651 759 651 c 0
 806 651 823 624 823 601 c 0
 823 576 802 559 783 559 c 0
 771 559 758 563 750 572 c 0
 741 583 729 590 717 590 c 0
 697 590 678 562 674 533 c 0
 664 470 648 368 576 343 c 1
 638 343 657 296 681 236 c 0
 732 103 784 27 816 27 c 2
 826 27 l 2
 830 27 833 24 833 19 c 2
 833 0 l 1
 832 -2 l 1
EndSplineSet
Colour: ff9ccc
EndChar

StartChar: afii10025
Encoding: 1047 1047 76
Width: 542
VWidth: 999
Flags: HW
HStem: -12 37<172.536 324.196> 336 37<158.005 306.843> 469 21G<49 91> 624 34<165.85 309.892>
VStem: 49 30<470.533 513.383> 375 80<432.684 569.184> 405 92<100.605 254.446>
LayerCount: 2
Fore
SplineSet
248 25 m 0
 318 25 405 68 405 176 c 0
 405 227 366 336 249 336 c 2
 176 336 l 2
 165 336 158 343 158 354 c 0
 158 365 165 373 176 373 c 2
 223 373 l 2
 342 373 375 451 375 506 c 0
 375 573 311 624 249 624 c 0
 126 624 103 550 79 469 c 1
 49 471 l 1
 69 646 l 1
 156 646 191 658 251 658 c 0
 344 658 455 611 455 516 c 0
 455 437 412 387 340 360 c 1
 411 340 497 299 497 192 c 0
 497 41 363 -12 245 -12 c 0
 164 -12 115 19 84 43 c 0
 57 64 36 91 36 118 c 0
 36 144 47 165 70 165 c 0
 98 165 108 152 119 120 c 0
 140 59 172 25 248 25 c 0
EndSplineSet
EndChar

StartChar: afii10026
Encoding: 1048 1048 77
Width: 700
VWidth: 999
Flags: HW
HStem: -2 29<20 52 242 274 427 459 649 682> 618 28<20 52 242 274 426 459 649 681>
VStem: 106 81<35.9534 78 134 609.354> 514 81<36.3852 505 561 608.905>
DStem2: 187 134 187 78 0.608002 0.793935<0 493.367>
LayerCount: 2
Fore
SplineSet
595 572 m 2
 595 73 l 2
 595 43 610 32 649 29 c 2
 675 27 l 2
 680 27 684 24 684 19 c 2
 684 0 l 1
 682 -2 l 1
 682 -2 595 0 556 0 c 0
 520 0 427 -2 427 -2 c 1
 425 0 l 1
 425 19 l 2
 425 24 428 27 433 27 c 2
 459 29 l 2
 499 32 514 45 514 73 c 2
 514 505 l 1
 187 78 l 1
 187 74 l 2
 187 43 201 32 242 29 c 2
 268 27 l 2
 272 27 276 24 276 19 c 2
 276 0 l 1
 274 -2 l 1
 274 -2 188 0 148 0 c 0
 113 0 20 -2 20 -2 c 1
 18 0 l 1
 18 19 l 2
 18 24 21 27 25 27 c 2
 52 29 l 2
 94 32 106 46 106 74 c 2
 106 573 l 2
 106 603 91 613 52 616 c 2
 25 618 l 2
 21 618 18 621 18 626 c 2
 18 645 l 1
 20 646 l 1
 20 646 106 644 146 644 c 0
 181 644 274 646 274 646 c 1
 276 645 l 1
 276 626 l 2
 276 621 273 618 268 618 c 2
 242 616 l 2
 201 613 187 601 187 573 c 2
 187 134 l 1
 514 561 l 1
 514 572 l 2
 514 603 499 613 459 616 c 2
 433 618 l 2
 428 618 424 621 424 626 c 2
 424 645 l 1
 426 646 l 1
 426 646 513 644 552 644 c 0
 588 644 681 647 681 647 c 1
 683 645 l 1
 683 626 l 2
 683 621 680 618 675 618 c 2
 649 616 l 2
 609 613 595 600 595 572 c 2
EndSplineSet
EndChar

StartChar: afii10027
Encoding: 1049 1049 78
Width: 700
VWidth: 999
Flags: HW
HStem: -2 29<20 52 242 274 427 459 649 682> 618 28<20 52 242 274 426 459 649 681> 697 31<305.536 396.309>
VStem: 106 81<35.9534 78 134 609.354> 226 70<735.681 802.162> 405 70<734.774 802.125> 514 81<36.3852 505 561 608.905>
DStem2: 187 134 187 78 0.608002 0.793935<0 493.367>
LayerCount: 2
Fore
SplineSet
351 728 m 0
 384 728 407 745 407 762 c 0
 407 767 406 773 406 775 c 0
 406 790 416 805 439 805 c 0
 466 805 476 791 476 772 c 0
 476 720 417 697 351 697 c 0
 285 697 226 720 226 772 c 0
 226 791 236 805 263 805 c 0
 286 805 296 790 296 775 c 0
 296 773 295 767 295 762 c 0
 295 745 318 728 351 728 c 0
595 572 m 2
 595 73 l 2
 595 43 610 32 649 29 c 2
 675 27 l 2
 680 27 684 24 684 19 c 2
 684 0 l 1
 682 -2 l 1
 682 -2 595 0 556 0 c 0
 520 0 427 -2 427 -2 c 1
 425 0 l 1
 425 19 l 2
 425 24 428 27 433 27 c 2
 459 29 l 2
 499 32 514 45 514 73 c 2
 514 505 l 1
 187 78 l 1
 187 74 l 2
 187 43 201 32 242 29 c 2
 268 27 l 2
 272 27 276 24 276 19 c 2
 276 0 l 1
 274 -2 l 1
 274 -2 188 0 148 0 c 0
 113 0 20 -2 20 -2 c 1
 18 0 l 1
 18 19 l 2
 18 24 21 27 25 27 c 2
 52 29 l 2
 94 32 106 46 106 74 c 2
 106 573 l 2
 106 603 91 613 52 616 c 2
 25 618 l 2
 21 618 18 621 18 626 c 2
 18 645 l 1
 20 646 l 1
 20 646 106 644 146 644 c 0
 181 644 274 646 274 646 c 1
 276 645 l 1
 276 626 l 2
 276 621 273 618 268 618 c 2
 242 616 l 2
 201 613 187 601 187 573 c 2
 187 134 l 1
 514 561 l 1
 514 572 l 2
 514 603 499 613 459 616 c 2
 433 618 l 2
 428 618 424 621 424 626 c 2
 424 645 l 1
 426 646 l 1
 426 646 513 644 552 644 c 0
 588 644 681 647 681 647 c 1
 683 645 l 1
 683 626 l 2
 683 621 680 618 675 618 c 2
 649 616 l 2
 609 613 595 600 595 572 c 2
EndSplineSet
LCarets2: 1 0 
Colour: ff00ff
EndChar

StartChar: afii10033
Encoding: 1055 1055 79
Width: 667
VWidth: 999
Flags: HW
HStem: -2 29<19 51 241 269 398 426 616 648> 604 41<188.871 477.86> 618 29<19 55 613 648>
VStem: 106 81<36.6226 602.463> 480 81<36.4035 602.445>
LayerCount: 2
Fore
SplineSet
480 74 m 2
 480 560 l 2
 480 588 476 604 444 604 c 2
 223 604 l 2
 192 604 187 593 187 560 c 2
 187 74 l 2
 187 43 202 32 241 29 c 2
 263 27 l 2
 267 27 271 24 271 19 c 2
 271 0 l 1
 269 -2 l 1
 230 -1 185 0 146 0 c 0
 107 0 58 -1 19 -2 c 1
 17 0 l 1
 17 19 l 2
 17 24 20 27 25 27 c 2
 51 29 l 2
 90 32 106 46 106 74 c 2
 106 572 l 2
 106 609 84 614 55 616 c 2
 25 618 l 2
 19 618 17 622 17 625 c 2
 17 645 l 1
 19 647 l 1
 58 646 107 645 146 645 c 2
 520 645 l 2
 559 645 609 646 648 647 c 1
 650 645 l 1
 650 626 l 2
 650 622 647 618 642 618 c 2
 613 616 l 2
 584 614 561 602 561 572 c 2
 561 74 l 2
 561 43 576 32 616 29 c 2
 642 27 l 2
 646 27 650 24 650 19 c 2
 650 0 l 1
 648 -2 l 1
 609 -1 559 0 520 0 c 0
 481 0 437 -1 398 -2 c 1
 396 0 l 1
 396 19 l 2
 396 24 399 27 404 27 c 2
 426 29 l 2
 467 33 480 46 480 74 c 2
EndSplineSet
Colour: ff00ff
EndChar

StartChar: afii10034
Encoding: 1056 1056 80
Width: 521
VWidth: 999
Flags: HW
HStem: -2 29<19 51 241 284> 282 34<187.781 340.715> 618 29<19 62> 620 34<195.845 345.973>
VStem: 106 81<35.7894 292 318.002 609.994> 409 88<393.808 563.937>
LayerCount: 2
Fore
SplineSet
187 574 m 2
 187 321 l 1
 198 318 233 316 258 316 c 0
 355 316 409 360 409 468 c 0
 409 595 338 620 269 620 c 0
 197 620 187 603 187 574 c 2
106 71 m 2
 106 574 l 2
 106 606 79 615 62 616 c 2
 23 618 l 2
 19 618 17 620 17 624 c 2
 17 645 l 1
 19 647 l 1
 56 646 107 645 147 645 c 0
 187 645 250 654 276 654 c 0
 461 654 497 545 497 486 c 0
 497 401 445 282 263 282 c 0
 228 282 209 285 187 292 c 1
 187 71 l 2
 187 41 202 31 241 29 c 2
 278 27 l 2
 282 27 286 24 286 19 c 2
 286 0 l 1
 284 -2 l 1
 237 -1 187 0 147 0 c 0
 106 0 56 -1 19 -2 c 1
 17 0 l 1
 17 19 l 2
 17 24 20 27 25 27 c 2
 51 29 l 2
 91 32 106 43 106 71 c 2
EndSplineSet
Colour: ff00ff
EndChar

StartChar: afii10035
Encoding: 1057 1057 81
Width: 644
VWidth: 999
Flags: HW
HStem: -12 42<270 460> 621 37<278 443>
VStem: 37 87<204 436>
LayerCount: 2
Fore
SplineSet
355 -10 m 0
 140 -10 37 154 37 315 c 0
 37 512 190 658 356 658 c 0
 479 658 518 616 575 613 c 1
 579 559 587 510 597 458 c 1
 567 454 l 1
 541 540 483 621 345 621 c 0
 266 621 124 537 124 334 c 0
 124 188 199 31 354 31 c 0
 447 31 515 62 586 140 c 1
 597 140 604 134 609 125 c 1
 541 36 452 -10 355 -10 c 0
EndSplineSet
Colour: ff00ff
EndChar

StartChar: afii10036
Encoding: 1058 1058 82
Width: 567
VWidth: 999
Flags: HW
HStem: -2 29<171 247.597 347.774 426> 606 39<65.5576 254.216 341.115 506.744>
VStem: 257 81<32.7827 603.107>
LayerCount: 2
Fore
SplineSet
77 645 m 2
 500 645 l 2
 521 645 522 662 522 668 c 1
 548 672 l 1
 548 623 553 569 561 518 c 1
 531 513 l 1
 514 590 507 606 452 606 c 2
 386 606 l 2
 350 606 338 598 338 564 c 2
 338 72 l 2
 338 41 354 32 393 29 c 2
 419 27 l 2
 424 27 428 24 428 19 c 2
 428 0 l 1
 426 -2 l 1
 379 -1 338 0 298 0 c 0
 257 0 218 -1 171 -2 c 1
 169 0 l 1
 169 19 l 2
 169 24 172 27 177 27 c 2
 203 29 l 2
 245 32 257 44 257 72 c 2
 257 567 l 2
 257 598 245 606 208 606 c 2
 125 606 l 2
 70 606 57 593 37 513 c 1
 7 518 l 1
 19 571 25 623 29 672 c 1
 56 668 l 1
 56 662 56 645 77 645 c 2
EndSplineSet
Colour: ff00ff
EndChar

StartChar: afii10037
Encoding: 1059 1059 83
Width: 580
VWidth: 999
Flags: HW
HStem: -22 62<133 229.447> 618 28<1 51.985 192 235 391 425 520.846 579>
DStem2: 170 575 88 559 0.41865 -0.908148<-32.5036 379.947> 283 136 342 161 0.370296 0.928914<-102.293 0 103.423 504.868>
LayerCount: 2
Fore
SplineSet
195 40 m 0
 227 40 252 61 283 136 c 1
 88 559 l 2
 79 579 58 615 10 618 c 0
 4 618 0 621 0 625 c 2
 0 645 l 1
 1 646 l 1
 1 646 64 645 105 645 c 0
 155 645 235 646 235 646 c 1
 237 645 l 1
 237 626 l 2
 237 621 235 618 230 618 c 2
 192 616 l 2
 160 614 158 601 170 575 c 2
 327 229 l 1
 329 229 l 1
 458 575 l 2
 471 610 465 613 425 616 c 2
 396 618 l 2
 392 618 390 621 390 625 c 2
 390 645 l 1
 391 646 l 1
 391 646 457 645 499 645 c 0
 531 645 579 646 579 646 c 1
 581 645 l 1
 581 626 l 2
 581 620 574 618 570 618 c 0
 524 615 514 606 499 566 c 2
 342 161 l 2
 299 52 244 -22 154 -22 c 0
 112 -22 66 1 66 33 c 0
 66 61 81 79 113 79 c 0
 127 79 149 72 159 60 c 0
 166 51 181 40 195 40 c 0
EndSplineSet
EndChar

StartChar: afii10039
Encoding: 1061 1061 84
Width: 655
VWidth: 999
Flags: HW
HStem: -2 29<4 64.0181 178 200 420 443 600.782 650> 618 29<17 64.6875 433 468 565.231 629>
DStem2: 129 104 163 77 0.593199 0.805056<-37.1488 242.53 346.726 618.122> 201 572 262 344 0.578967 -0.815351<-37.4198 228.231 307.823 589.683>
LayerCount: 2
Fore
SplineSet
13 625 m 2
 13 644 l 1
 16 647 l 1
 56 646 95 645 119 645 c 0
 143 645 194 646 241 647 c 1
 241 647 242 644 243 644 c 1
 243 625 l 2
 243 620 241 618 238 618 c 2
 206 616 l 2
 173 614 182 599 201 572 c 2
 320 396 l 2
 325 389 329 385 332 385 c 0
 335 385 339 389 345 397 c 2
 474 572 l 2
 492 598 497 614 468 616 c 2
 438 618 l 2
 434 618 431 620 431 625 c 2
 431 645 l 1
 433 647 l 1
 473 646 509 645 532 645 c 0
 555 645 589 646 629 647 c 1
 632 645 l 1
 632 625 l 2
 632 622 631 618 623 618 c 0
 562 616 540 588 513 552 c 2
 382 375 l 2
 373 363 369 354 369 345 c 0
 369 335 375 325 385 312 c 2
 539 102 l 1
 566 63 600 30 645 27 c 0
 650 27 652 23 652 20 c 2
 652 0 l 1
 650 -2 l 1
 610 -1 568 0 545 0 c 0
 522 0 467 -1 420 -2 c 1
 417 0 l 1
 417 20 l 2
 417 24 419 27 423 27 c 2
 443 29 l 2
 483 33 481 39 456 73 c 2
 324 261 l 2
 318 269 314 272 310 272 c 0
 307 272 301 266 295 258 c 2
 163 77 l 2
 146 53 139 33 178 29 c 2
 197 27 l 2
 202 26 203 23 203 20 c 2
 203 0 l 1
 200 -2 l 1
 153 -1 127 0 88 0 c 0
 58 0 34 -1 4 -2 c 1
 3 0 l 1
 3 20 l 2
 3 25 8 27 14 27 c 0
 72 30 107 74 129 104 c 2
 266 291 l 2
 272 299 276 308 276 314 c 0
 276 324 271 333 262 344 c 1
 118 549 l 2
 77 607 46 615 29 618 c 0
 19 620 13 621 13 625 c 2
EndSplineSet
Colour: ff00ff
EndChar

StartChar: afii10040
Encoding: 1062 1062 85
Width: 639
VWidth: 487
Flags: HMW
HStem: -2 29<20 52> 0 37<175.296 460.197> 618 28<19 52 211 245 391 424 582 614>
VStem: 92 81<37.9463 613.762> 463 81<38.9907 613.347>
LayerCount: 2
Fore
SplineSet
458 0 m 2
 172 0 l 2
 157 0 142 0 127 0 c 2
 20 -2 l 1
 17 0 l 1
 17 17 l 2
 17 22 21 27 26 27 c 2
 52 29 l 2
 85 32 92 35 92 75 c 2
 92 570 l 2
 92 609 86 614 52 616 c 2
 22 618 l 2
 19 618 17 619 17 623 c 2
 17 645 l 1
 19 646 l 1
 127 645 l 1
 245 646 l 1
 247 645 l 1
 247 623 l 2
 247 620 245 618 241 618 c 2
 211 616 l 2
 179 614 173 610 173 570 c 2
 173 83 l 2
 173 42 180 37 211 37 c 2
 424 37 l 2
 459 37 463 51 463 83 c 2
 463 570 l 2
 463 602 460 614 424 616 c 2
 394 618 l 2
 391 618 389 619 389 623 c 2
 389 645 l 1
 391 646 l 1
 499 645 l 1
 614 646 l 1
 617 645 l 1
 617 623 l 2
 617 620 615 618 611 618 c 2
 582 616 l 2
 545 613 544 603 544 570 c 2
 544 77 l 2
 544 52 560 30 584 27 c 0
 609 24 613 16 614 7 c 2
 620 -141 l 1
 593 -142 l 1
 579 -71 535 0 458 0 c 2
EndSplineSet
EndChar

StartChar: afii10041
Encoding: 1063 1063 86
Width: 633
VWidth: 999
Flags: HW
HStem: -2 29<362 394 584 617> 250 58<211.228 364.049> 618 28<10 42 232 265 361 394 584 616>
VStem: 97 81<342.847 609.08> 449 80<35.9646 317 342.244 608.625>
LayerCount: 2
Fore
SplineSet
97 571 m 2
 97 602 82 613 42 616 c 2
 16 618 l 2
 12 618 8 621 8 626 c 2
 8 645 l 1
 10 646 l 1
 10 646 97 645 136 645 c 0
 171 645 265 646 265 646 c 1
 267 645 l 1
 267 626 l 2
 267 621 264 618 259 618 c 2
 232 616 l 2
 190 613 178 599 178 571 c 2
 178 417 l 2
 178 335 220 308 292 308 c 0
 321 308 385 312 449 355 c 1
 449 572 l 2
 449 602 433 613 394 616 c 2
 368 618 l 2
 363 618 359 621 359 626 c 2
 359 645 l 1
 361 646 l 1
 361 646 448 645 487 645 c 0
 523 645 616 646 616 646 c 1
 618 645 l 1
 618 626 l 2
 618 621 615 618 610 618 c 2
 584 616 l 2
 544 613 529 600 529 572 c 2
 529 73 l 2
 529 43 544 32 584 29 c 2
 610 27 l 2
 615 27 619 24 619 19 c 2
 619 0 l 1
 617 -2 l 1
 617 -2 530 0 491 0 c 0
 455 0 362 -2 362 -2 c 1
 360 0 l 1
 360 19 l 2
 360 24 363 27 368 27 c 2
 394 29 l 2
 437 32 449 45 449 73 c 2
 449 317 l 1
 376 266 308 250 250 250 c 0
 136 250 97 329 97 428 c 2
 97 571 l 2
EndSplineSet
EndChar

StartChar: afii10042
Encoding: 1064 1064 87
Width: 962
VWidth: 487
Flags: HW
HStem: -2 29<34 101.198 861.703 930> 0 34<190.019 436.591 525.39 772.361> 618 28<19 52 242 271 355 386 576 605 691 722 912 944>
VStem: 106 81<35.9437 608.51> 440 81<35.9512 608.88> 776 81<35.6524 608.179>
LayerCount: 2
Fore
SplineSet
857 572 m 2
 857 71 l 2
 857 36 864 29 896 28 c 2
 926 27 l 2
 930 27 932 25 932 22 c 2
 932 0 l 1
 930 -2 l 1
 815 0 l 1
 180 0 l 1
 34 -2 l 1
 32 0 l 1
 32 22 l 2
 32 25 34 27 37 27 c 2
 67 28 l 2
 100 29 106 37 106 76 c 2
 106 572 l 2
 106 602 90 613 52 616 c 2
 25 618 l 2
 21 618 17 621 17 626 c 2
 17 645 l 1
 19 646 l 1
 19 646 106 645 145 645 c 0
 181 645 271 646 271 646 c 1
 273 645 l 1
 273 626 l 2
 273 621 271 618 266 618 c 2
 242 616 l 2
 202 613 187 600 187 572 c 2
 187 83 l 2
 187 51 187 34 226 34 c 2
 407 34 l 2
 438 34 440 52 440 83 c 2
 440 572 l 2
 440 602 424 613 386 616 c 2
 362 618 l 2
 357 618 354 621 354 626 c 2
 354 645 l 1
 355 646 l 1
 355 646 440 645 479 645 c 0
 515 645 605 646 605 646 c 1
 607 645 l 1
 607 626 l 2
 607 621 604 618 600 618 c 2
 576 616 l 2
 532 612 521 600 521 572 c 2
 521 83 l 2
 521 53 525 34 558 34 c 2
 737 34 l 2
 770 34 776 44 776 83 c 2
 776 572 l 2
 776 602 756 613 722 616 c 2
 698 618 l 2
 693 618 689 621 689 626 c 2
 689 645 l 1
 691 646 l 1
 691 646 776 645 815 645 c 0
 851 645 944 646 944 646 c 1
 946 645 l 1
 946 626 l 2
 946 621 943 618 938 618 c 2
 912 616 l 2
 874 613 857 600 857 572 c 2
EndSplineSet
EndChar

StartChar: afii10043
Encoding: 1065 1065 88
Width: 965
VWidth: 487
Flags: HMW
HStem: -2 29<34 67> 0 34<191.235 436.719 525.256 772.56> 618 28<19 52 242 271 355 386 576 605 691 722 869.125 944>
VStem: 106 81<36.2848 608.73> 440 81<36.9391 608.603> 776 81<35.7084 609.461>
LayerCount: 2
Fore
SplineSet
187 572 m 2
 187 83 l 2
 187 53 190 34 226 34 c 2
 399 34 l 2
 437 34 440 47 440 83 c 2
 440 572 l 2
 440 602 424 613 386 616 c 2
 362 618 l 2
 357 618 354 621 354 626 c 2
 354 645 l 1
 355 646 l 1
 355 646 440 645 479 645 c 0
 515 645 605 646 605 646 c 1
 607 645 l 1
 607 626 l 2
 607 621 604 618 600 618 c 2
 576 616 l 2
 535 613 521 600 521 572 c 2
 521 83 l 2
 521 47 526 34 569 34 c 2
 737 34 l 2
 772 34 776 47 776 83 c 2
 776 572 l 2
 776 602 762 613 722 616 c 2
 698 618 l 2
 693 618 689 621 689 626 c 2
 689 645 l 1
 691 646 l 1
 691 646 776 645 815 645 c 0
 851 645 944 646 944 646 c 1
 946 645 l 1
 946 626 l 2
 946 621 943 618 938 618 c 2
 912 616 l 1
 871 616 857 600 857 572 c 2
 857 81 l 2
 857 42 882 30 897 27 c 0
 915 23 926 21 927 4 c 2
 934 -141 l 1
 906 -142 l 1
 899 -98 861 0 775 0 c 2
 147 0 l 1
 34 -2 l 1
 32 0 l 1
 32 22 l 2
 32 25 34 27 37 27 c 2
 67 29 l 2
 99 31 106 33 106 72 c 2
 106 572 l 2
 106 602 91 613 52 616 c 2
 25 618 l 2
 21 618 17 621 17 626 c 2
 17 645 l 1
 19 646 l 1
 19 646 106 645 145 645 c 0
 181 645 271 646 271 646 c 1
 273 645 l 1
 273 626 l 2
 273 621 271 618 266 618 c 2
 242 616 l 2
 201 613 187 600 187 572 c 2
EndSplineSet
EndChar

StartChar: afii10044
Encoding: 1066 1066 89
Width: 717
VWidth: 999
Flags: HMW
HStem: -2 29<178 210 354.52 491.526> 333 40<346 514.567> 469 21G<26 60> 605 40<115.773 261.594> 618 28<400 433>
VStem: 26 30<472.833 516.776> 265 81<36.7694 333 373 602.051> 592 89<103.56 266.225>
LayerCount: 2
Fore
SplineSet
346 333 m 1
 346 79 l 2
 346 46 351 27 405 27 c 0
 557 27 592 121 592 183 c 0
 592 243 562 333 433 333 c 2
 346 333 l 1
304 645 m 2
 339 645 433 646 433 646 c 1
 435 645 l 1
 435 626 l 2
 435 621 432 618 427 618 c 2
 400 616 l 2
 361 613 346 600 346 572 c 2
 346 373 l 1
 406 373 l 2
 652 373 681 272 681 183 c 0
 681 16 524 -2 403 -2 c 0
 367 -2 336 0 307 0 c 0
 271 0 178 -2 178 -2 c 1
 176 0 l 1
 176 19 l 2
 176 24 179 27 184 27 c 2
 210 29 l 2
 250 32 265 46 265 74 c 2
 265 564 l 2
 265 591 254 605 226 605 c 2
 164 605 l 2
 98 605 64 512 56 469 c 1
 26 474 l 1
 35 530 40 583 42 645 c 1
 129 645 304 645 304 645 c 2
EndSplineSet
EndChar

StartChar: afii10045
Encoding: 1067 1067 90
Width: 786
VWidth: 999
Flags: HW
HStem: -2 29<19 51 195.157 332.526> -1 29<512 544 734 766> 333 40<187 350.404> 618 28<19 51 241 274> 619 29<511 544 734 766>
VStem: 106 81<36.115 333 373 608.659> 433 89<103.56 259.16> 598 81<36.3322 610.22>
LayerCount: 2
Fore
SplineSet
679 575 m 2
 679 72 l 2
 679 42 694 33 734 30 c 2
 760 28 l 2
 764 28 768 25 768 20 c 2
 768 1 l 1
 766 -1 l 1
 718 1 689 1 639 1 c 0
 589 1 561 1 512 -1 c 1
 510 1 l 1
 510 20 l 2
 510 25 513 28 517 28 c 2
 544 30 l 2
 586 33 598 44 598 72 c 2
 598 575 l 2
 598 605 583 614 544 617 c 2
 517 619 l 2
 513 619 509 622 509 627 c 2
 509 646 l 1
 511 648 l 1
 561 647 588 646 638 646 c 0
 688 646 717 647 766 648 c 1
 768 646 l 1
 768 627 l 2
 768 622 765 619 760 619 c 2
 734 617 l 2
 694 614 679 603 679 575 c 2
106 572 m 2
 106 600 91 613 51 616 c 2
 25 618 l 2
 20 618 17 621 17 626 c 2
 17 645 l 1
 19 646 l 1
 19 646 112 645 148 645 c 0
 187 645 274 646 274 646 c 1
 276 645 l 1
 276 626 l 2
 276 621 272 618 268 618 c 2
 241 616 l 2
 203 613 187 602 187 572 c 2
 187 373 l 1
 277 373 l 2
 496 373 522 272 522 183 c 0
 522 16 365 -2 244 -2 c 0
 208 -2 177 0 148 0 c 0
 120 0 19 -2 19 -2 c 1
 17 0 l 1
 17 19 l 2
 17 24 20 27 25 27 c 2
 51 29 l 2
 92 32 106 46 106 74 c 2
 106 572 l 2
187 333 m 1
 187 79 l 2
 187 46 191 27 246 27 c 0
 398 27 433 121 433 183 c 0
 433 243 392 333 264 333 c 2
 187 333 l 1
EndSplineSet
Colour: ff00ff
EndChar

StartChar: afii10046
Encoding: 1068 1068 91
Width: 558
VWidth: 999
Flags: HW
HStem: -2 29<19 51 195.157 332.526> 333 40<187 350.404> 618 28<19 51 241 274>
VStem: 106 81<36.115 333 373 608.659> 433 89<103.56 259.16>
LayerCount: 2
Fore
SplineSet
106 572 m 2
 106 600 91 613 51 616 c 2
 25 618 l 2
 20 618 17 621 17 626 c 2
 17 645 l 1
 19 646 l 1
 19 646 112 645 148 645 c 0
 187 645 274 646 274 646 c 1
 276 645 l 1
 276 626 l 2
 276 621 272 618 268 618 c 2
 241 616 l 2
 203 613 187 602 187 572 c 2
 187 373 l 1
 277 373 l 2
 496 373 522 272 522 183 c 0
 522 16 365 -2 244 -2 c 0
 208 -2 177 0 148 0 c 0
 120 0 19 -2 19 -2 c 1
 17 0 l 1
 17 19 l 2
 17 24 20 27 25 27 c 2
 51 29 l 2
 92 32 106 46 106 74 c 2
 106 572 l 2
187 333 m 1
 187 79 l 2
 187 46 191 27 246 27 c 0
 398 27 433 121 433 183 c 0
 433 243 392 333 264 333 c 2
 187 333 l 1
EndSplineSet
EndChar

StartChar: afii10047
Encoding: 1069 1069 92
Width: 604
VWidth: 999
Flags: HMW
HStem: -12 34<194 359> 273 56<309 422> 311 49<155 284> 621 37<189 346>
VStem: 472 89<186 307 344 460>
LayerCount: 2
Fore
SplineSet
472 307 m 1
 417 273 373 273 360 273 c 0
 298 273 255 311 196 311 c 0
 158 311 142 295 134 295 c 0
 130 295 125 298 125 307 c 0
 125 332 188 360 247 360 c 0
 313 360 342 329 400 329 c 0
 429 329 452 335 471 344 c 1
 461 550 352 621 271 621 c 0
 176 621 98 540 72 454 c 1
 42 458 l 1
 53 511 61 558 63 613 c 1
 121 616 174 658 279 658 c 0
 444 658 561 550 561 333 c 0
 561 113 445 -12 275 -12 c 0
 189 -12 133 19 102 43 c 0
 75 64 54 95 54 122 c 0
 54 148 66 165 84 165 c 0
 113 165 125 152 135 120 c 0
 159 48 214 21 286 21 c 0
 413 21 471 169 472 307 c 1
EndSplineSet
EndChar

StartChar: afii10048
Encoding: 1070 1070 93
Width: 905
VWidth: 999
Flags: HW
HStem: -12 34<522.79 654.127> -2 29<20 52 242 274> 305 39<187 285> 618 28<19 52 242 274> 624 34<500.207 639.641>
VStem: 106 81<35.8732 305 344 608.613> 285 91<191.359 305 344 446.869> 775 91<190.414 458.78>
LayerCount: 2
Fore
SplineSet
866 329 m 0
 866 129 752 -12 574 -12 c 0
 416 -12 287 111 285 305 c 1
 187 305 l 1
 187 73 l 2
 187 43 202 32 242 29 c 2
 268 27 l 2
 272 27 276 24 276 19 c 2
 276 0 l 1
 274 -2 l 1
 274 -2 188 0 148 0 c 0
 113 0 20 -2 20 -2 c 1
 18 0 l 1
 18 19 l 2
 18 24 21 27 25 27 c 2
 52 29 l 2
 93 32 106 45 106 73 c 2
 106 572 l 2
 106 602 91 613 52 616 c 2
 25 618 l 2
 21 618 17 621 17 626 c 2
 17 645 l 1
 19 646 l 1
 19 646 106 645 145 645 c 0
 181 645 274 646 274 646 c 1
 276 645 l 1
 276 626 l 2
 276 621 273 618 268 618 c 2
 242 616 l 2
 202 613 187 600 187 572 c 2
 187 344 l 1
 286 344 l 1
 299 523 417 658 573 658 c 0
 741 658 866 527 866 329 c 0
562 624 m 0
 478 624 376 537 376 327 c 0
 376 135 484 22 592 22 c 0
 695 22 775 131 775 310 c 0
 775 518 687 624 562 624 c 0
EndSplineSet
EndChar

StartChar: afii10049
Encoding: 1071 1071 94
Width: 561
VWidth: 999
Flags: HW
HStem: -2 29<11 26 286 318 508 541> 323 39<287.282 373> 611 35<199.954 371.324> 618 28<507 544>
VStem: 69 81<416.932 568.061> 373 81<35.9306 323 362 607.704>
LayerCount: 2
Fore
SplineSet
373 323 m 1
 267 323 252 282 216 180 c 0
 177 70 148 0 77 -1 c 2
 11 -2 l 1
 10 0 l 1
 10 19 l 2
 10 24 13 27 17 27 c 2
 26 28 l 2
 58 32 109 103 162 236 c 0
 178 277 192 311 218 329 c 1
 150 339 69 385 69 487 c 0
 69 556 103 646 289 646 c 0
 324 646 383 645 416 645 c 0
 447 645 544 646 544 646 c 1
 544 625 l 2
 544 621 542 618 537 618 c 2
 507 616 l 2
 465 613 454 606 454 572 c 2
 454 73 l 2
 454 43 467 32 508 29 c 2
 535 27 l 2
 539 27 543 24 543 19 c 2
 543 0 l 1
 541 -2 l 1
 541 -2 454 0 415 0 c 0
 379 0 286 -2 286 -2 c 1
 284 0 l 1
 284 19 l 2
 284 24 287 27 292 27 c 2
 318 29 l 2
 360 32 373 45 373 73 c 2
 373 323 l 1
373 575 m 2
 373 608 369 611 282 611 c 0
 226 611 150 595 150 502 c 0
 150 396 212 362 295 362 c 2
 373 362 l 1
 373 575 l 2
EndSplineSet
EndChar

StartChar: afii10089
Encoding: 1095 1095 95
Width: 510
VWidth: 999
Flags: HW
HStem: -2 29<274 294 450 470> 146 35<165.488 293.187> 402 29<18 30 186 206 275 294 415.352 480>
VStem: 71 75<194.637 397.49> 335 75<32.4718 189 207.909 398.291>
LayerCount: 2
Fore
SplineSet
335 353 m 2
 335 392 329 399 294 401 c 2
 279 402 l 2
 275 402 273 403 273 407 c 2
 273 429 l 1
 275 431 l 1
 275 431 332 429 368 429 c 0
 412 429 480 431 480 431 c 1
 481 429 l 1
 481 407 l 2
 481 404 479 402 476 402 c 2
 450 401 l 2
 419 400 410 394 410 353 c 2
 410 78 l 2
 410 40 413 33 450 29 c 2
 467 27 l 2
 470 27 472 25 472 22 c 2
 472 0 l 1
 470 -2 l 1
 470 -2 411 0 374 0 c 0
 333 0 274 -2 274 -2 c 1
 272 0 l 1
 272 21 l 2
 272 25 274 27 278 27 c 2
 294 29 l 2
 330 34 335 39 335 78 c 2
 335 189 l 1
 296 160 264 146 204 146 c 0
 106 146 71 191 71 297 c 2
 71 354 l 2
 71 392 64 397 30 401 c 2
 22 402 l 2
 19 402 17 403 17 407 c 2
 17 429 l 1
 18 431 l 1
 18 431 72 429 106 429 c 0
 145 429 206 431 206 431 c 1
 207 429 l 1
 207 408 l 2
 207 404 205 402 201 402 c 2
 186 401 l 2
 153 399 146 391 146 359 c 2
 146 293 l 2
 146 215 153 181 215 181 c 0
 264 181 303 193 335 225 c 1
 335 353 l 2
EndSplineSet
EndChar

StartChar: afii10090
Encoding: 1096 1096 96
Width: 818
VWidth: 999
Flags: HW
HStem: -2 29<33 63 750 784> 0 34<182.117 365.221 449.273 630.268> 402 29<33 63 219 242 305 329 484 513 565 594 750 775>
VStem: 103 75<35.9712 397.122> 369 75<36.284 396.916> 635 75<36.4002 397.278>
CounterMasks: 1 1c
LayerCount: 2
Fore
SplineSet
710 353 m 2
 710 71 l 2
 710 35 717 31 750 29 c 2
 781 27 l 2
 785 27 787 24 787 21 c 2
 787 0 l 1
 784 -2 l 1
 784 -2 700 0 670 0 c 2
 137 0 l 2
 107 0 33 -2 33 -2 c 1
 32 0 l 1
 32 22 l 2
 32 25 33 27 37 27 c 2
 63 29 l 2
 98 32 103 39 103 72 c 2
 103 353 l 2
 103 391 99 397 63 400 c 2
 37 402 l 2
 34 402 32 403 32 407 c 2
 32 429 l 1
 33 431 l 1
 141 429 l 1
 242 431 l 1
 244 429 l 1
 244 408 l 2
 244 404 242 402 238 402 c 2
 219 400 l 2
 186 396 178 394 178 353 c 2
 178 85 l 2
 178 45 184 34 219 34 c 2
 329 34 l 2
 364 34 369 47 369 84 c 2
 369 352 l 2
 369 391 362 397 329 400 c 2
 309 402 l 2
 306 402 304 403 304 407 c 2
 304 429 l 1
 305 431 l 1
 405 429 l 1
 513 431 l 1
 514 429 l 1
 514 407 l 2
 514 404 512 402 508 402 c 2
 484 400 l 2
 453 397 444 393 444 352 c 2
 444 85 l 2
 444 43 456 34 484 34 c 2
 595 34 l 2
 632 34 635 54 635 85 c 2
 635 353 l 2
 635 391 631 397 594 400 c 2
 570 402 l 2
 566 402 564 403 564 407 c 2
 564 429 l 1
 565 431 l 1
 669 429 l 1
 775 431 l 1
 776 429 l 1
 776 408 l 2
 776 404 774 402 771 402 c 2
 750 400 l 2
 718 397 710 394 710 353 c 2
EndSplineSet
EndChar

StartChar: afii10091
Encoding: 1097 1097 97
Width: 809
VWidth: 999
Flags: HMW
HStem: -2 29<33 63> 0 34<181.744 365.221 448.881 630.687> 402 29<33 63 219 242 305 329 484 513 565 594 750 775>
VStem: 104 74<35.7845 397.151> 369 75<36.1619 397.035> 635 74<36.5977 397.021>
CounterMasks: 1 1c
LayerCount: 2
Fore
SplineSet
709 353 m 2
 709 74 l 2
 709 49 723 30 746 27 c 0
 759 25 773 23 774 5 c 2
 780 -128 l 1
 755 -129 l 1
 743 -80 716 0 636 0 c 2
 137 0 l 2
 107 0 33 -2 33 -2 c 1
 32 0 l 1
 32 21 l 2
 32 25 33 27 37 27 c 2
 63 29 l 2
 96 32 104 37 104 72 c 2
 104 353 l 2
 104 391 98 397 63 400 c 2
 37 402 l 2
 34 402 32 403 32 407 c 2
 32 429 l 1
 33 431 l 1
 140 429 l 1
 242 431 l 1
 244 429 l 1
 244 408 l 2
 244 404 242 402 238 402 c 2
 219 400 l 2
 186 396 178 394 178 353 c 2
 178 83 l 2
 178 44 184 34 219 34 c 2
 329 34 l 2
 364 34 369 46 369 83 c 2
 369 352 l 2
 369 391 362 397 329 400 c 2
 309 402 l 2
 306 402 304 403 304 407 c 2
 304 429 l 1
 305 431 l 1
 406 429 l 1
 513 431 l 1
 514 429 l 1
 514 407 l 2
 514 404 512 402 508 402 c 2
 484 400 l 2
 449 397 444 393 444 352 c 2
 444 83 l 2
 444 42 456 34 485 34 c 2
 594 34 l 2
 631 34 635 51 635 84 c 2
 635 353 l 2
 635 391 627 397 594 400 c 2
 570 402 l 2
 566 402 564 403 564 407 c 2
 564 429 l 1
 565 431 l 1
 667 429 l 1
 775 431 l 1
 776 429 l 1
 776 408 l 2
 776 404 774 402 771 402 c 2
 750 400 l 2
 715 397 709 394 709 353 c 2
EndSplineSet
EndChar

StartChar: afii10092
Encoding: 1098 1098 98
Width: 537
VWidth: 999
Flags: HMW
HStem: -2 31<128 153 280.978 394.853> 224 32<271 396.312> 392 37<95.6091 193.705> 402 29<311 345>
VStem: 196 75<35.7372 224 256 391.315> 431 75<61.062 196.916>
LayerCount: 2
Fore
SplineSet
196 74 m 2
 196 347 l 2
 196 384 189 392 167 392 c 0
 85 392 70 357 53 275 c 1
 26 280 l 1
 33 326 37 371 38 429 c 1
 234 429 l 1
 345 431 l 1
 347 429 l 1
 347 407 l 2
 347 403 345 402 342 402 c 2
 311 400 l 2
 275 398 271 392 271 357 c 2
 271 256 l 1
 328 256 l 2
 424 256 506 230 506 136 c 0
 506 52 445 -2 333 -2 c 1
 333 -2 271 0 231 0 c 0
 191 0 128 -2 128 -2 c 1
 126 0 l 1
 126 19 l 2
 126 24 129 26 134 27 c 2
 153 29 l 2
 189 33 196 45 196 74 c 2
431 126 m 0
 431 179 409 224 338 224 c 2
 271 224 l 1
 271 78 l 2
 271 42 288 29 334 29 c 0
 384 29 431 44 431 126 c 0
EndSplineSet
EndChar

StartChar: afii10093
Encoding: 1099 1099 99
Width: 681
VWidth: 999
Flags: HW
HStem: -2 29<440 465 625 651> -2 31<38 63 188.805 304.466> 224 32<181 306.312> 401 29<38 63 224 249> 402 29<440 465 625 651>
VStem: 106 75<34.4717 224 256 394.233> 341 75<61.062 196.916> 508 75<33.7869 395.199>
LayerCount: 2
Fore
SplineSet
508 356 m 2
 508 384 498 397 465 400 c 2
 446 402 l 2
 441 403 438 405 438 410 c 2
 438 429 l 1
 440 431 l 1
 477 430 508 429 544 429 c 0
 582 429 614 430 651 431 c 1
 653 429 l 1
 653 410 l 2
 653 405 649 403 644 402 c 2
 625 400 l 2
 595 397 583 384 583 356 c 2
 583 74 l 2
 583 45 594 32 625 29 c 2
 644 27 l 2
 649 26 653 24 653 19 c 2
 653 0 l 1
 651 -2 l 1
 614 -1 582 0 544 0 c 0
 508 0 477 -1 440 -2 c 1
 438 0 l 1
 438 19 l 2
 438 24 441 26 446 27 c 2
 465 29 l 2
 497 32 508 45 508 74 c 2
 508 356 l 2
341 126 m 0
 341 179 319 224 248 224 c 2
 181 224 l 1
 181 74 l 2
 181 39 198 29 244 29 c 0
 294 29 341 44 341 126 c 0
106 74 m 2
 106 355 l 2
 106 384 99 395 63 399 c 2
 44 401 l 2
 39 402 36 404 36 410 c 2
 36 428 l 1
 38 430 l 1
 38 430 106 429 142 429 c 0
 181 429 249 430 249 430 c 1
 251 428 l 1
 251 410 l 2
 251 404 247 401 243 401 c 2
 224 399 l 2
 191 396 181 384 181 355 c 2
 181 256 l 1
 238 256 l 2
 334 256 416 230 416 136 c 0
 416 52 354 -2 243 -2 c 0
 204 -2 181 0 142 0 c 0
 101 0 38 -2 38 -2 c 1
 36 0 l 1
 36 19 l 2
 36 24 39 26 44 27 c 2
 63 29 l 2
 99 33 106 45 106 74 c 2
EndSplineSet
Colour: ff00ff
EndChar

StartChar: afii10094
Encoding: 1100 1100 100
Width: 447
VWidth: 999
Flags: HW
HStem: -2 31<38 63 188.805 304.466> 224 32<181 306.312> 401 29<38 63 224 249>
VStem: 106 75<34.4717 224 256 394.233> 341 75<61.062 196.916>
LayerCount: 2
Fore
SplineSet
341 126 m 0
 341 179 319 224 248 224 c 2
 181 224 l 1
 181 74 l 2
 181 39 198 29 244 29 c 0
 294 29 341 44 341 126 c 0
106 74 m 2
 106 355 l 2
 106 384 99 395 63 399 c 2
 44 401 l 2
 39 402 36 404 36 410 c 2
 36 428 l 1
 38 430 l 1
 38 430 106 429 142 429 c 0
 181 429 249 430 249 430 c 1
 251 428 l 1
 251 410 l 2
 251 404 247 401 243 401 c 2
 224 399 l 2
 191 396 181 384 181 355 c 2
 181 256 l 1
 238 256 l 2
 334 256 416 230 416 136 c 0
 416 52 354 -2 243 -2 c 0
 204 -2 181 0 142 0 c 0
 101 0 38 -2 38 -2 c 1
 36 0 l 1
 36 19 l 2
 36 24 39 26 44 27 c 2
 63 29 l 2
 99 33 106 45 106 74 c 2
EndSplineSet
EndChar

StartChar: afii10095
Encoding: 1101 1101 101
Width: 434
VWidth: 999
Flags: HMW
HStem: -10 31<133.489 237.744> 180 49<160.832 302.074> 207 41<92.6331 188.46> 408 31<122.738 236.146>
VStem: 314 77<116.594 208 230.421 318.818>
LayerCount: 2
Fore
SplineSet
313 236 m 1
 306 309 272 408 182 408 c 0
 102 408 81 351 67 290 c 1
 40 294 l 1
 46 338 49 372 51 427 c 1
 121 427 121 439 192 439 c 0
 315 439 391 335 391 225 c 0
 391 68 284 -10 178 -10 c 0
 96 -10 37 34 37 86 c 0
 37 100 49 115 67 115 c 0
 78 115 100 111 105 78 c 0
 111 44 142 21 185 21 c 0
 279 21 314 130 314 208 c 1
 292 196 259 180 228 180 c 0
 184 180 155 207 120 207 c 0
 108 207 98 202 90 202 c 0
 84 202 83 211 83 215 c 0
 83 230 128 248 171 248 c 0
 216 248 233 229 271 229 c 0
 287 229 301 231 313 236 c 1
EndSplineSet
EndChar

StartChar: afii10096
Encoding: 1102 1102 102
Width: 686
VWidth: 999
Flags: HW
HStem: -10 35<422.78 523.403> -2 29<29 54 214 240> 198 39<171 268> 402 29<29 54 214 240> 406 33<403.08 503.112>
VStem: 97 74<33.7976 198 237 394.785> 268 80<113.871 198 237 323.327> 569 80<107.111 329.997>
LayerCount: 2
Fore
SplineSet
449 406 m 0
 375 406 348 313 348 226 c 0
 348 149 381 25 475 25 c 0
 516 25 569 53 569 185 c 0
 569 331 527 406 449 406 c 0
269 237 m 1
 279 356 344 439 459 439 c 0
 603 439 649 321 649 217 c 0
 649 117 597 -10 458 -10 c 0
 330 -10 270 97 268 198 c 1
 171 198 l 1
 171 74 l 2
 171 45 182 32 214 29 c 2
 233 27 l 2
 238 26 242 24 242 19 c 2
 242 0 l 1
 240 -2 l 1
 240 -2 171 0 132 0 c 0
 97 0 29 -2 29 -2 c 1
 27 0 l 1
 27 19 l 2
 27 24 30 26 35 27 c 2
 54 29 l 2
 86 32 97 45 97 74 c 2
 97 356 l 2
 97 384 87 397 54 400 c 2
 35 402 l 2
 30 403 27 405 27 410 c 2
 27 429 l 1
 29 431 l 1
 29 431 97 429 132 429 c 0
 171 429 240 431 240 431 c 1
 242 429 l 1
 242 410 l 2
 242 405 238 403 233 402 c 2
 214 400 l 2
 183 397 171 384 171 356 c 2
 171 237 l 1
 269 237 l 1
EndSplineSet
EndChar

StartChar: afii10097
Encoding: 1103 1103 103
Width: 429
VWidth: 999
Flags: HW
HStem: -2 29<20 35 214 235 350.164 398> 195 35<206.934 270> 204 26<156.293 175> 402 29<152.094 267.495 370 396>
VStem: 43 75<256.504 373.636> 270 75<29.5344 195 230 399.607>
LayerCount: 2
Fore
SplineSet
270 230 m 1
 270 366 l 2
 270 398 263 402 224 402 c 0
 138 402 118 368 118 321 c 0
 118 271 146 230 203 230 c 2
 270 230 l 1
110 136 m 0
 126 177 147 198 175 204 c 1
 120 204 43 239 43 310 c 0
 43 339 56 431 227 431 c 0
 303 431 277 429 309 429 c 0
 343 429 396 431 396 431 c 1
 398 429 l 1
 398 405 l 2
 398 403 397 402 395 402 c 2
 370 400 l 2
 352 399 345 391 345 370 c 2
 345 77 l 2
 345 51 350 29 366 28 c 2
 388 27 l 2
 396 27 398 20 398 18 c 2
 398 -2 l 1
 398 -2 342 0 307 0 c 0
 271 0 214 -2 214 -2 c 1
 214 20 l 2
 214 24 216 27 220 27 c 2
 235 28 l 2
 268 30 270 38 270 77 c 2
 270 195 l 1
 243 195 l 2
 203 195 179 145 159 84 c 0
 145 43 115 0 83 -1 c 2
 20 -2 l 1
 17 0 l 1
 17 19 l 2
 17 26 23 27 27 27 c 2
 35 28 l 2
 62 31 96 98 110 136 c 0
EndSplineSet
EndChar

StartChar: uni04AE
Encoding: 1198 1198 104
Width: 575
VWidth: 999
Flags: HW
HStem: -2 29<167 199 389 422> 618 29<2 22 164.594 221 395 428 544 573>
VStem: 254 80<35.8626 320.834>
DStem2: 312 335 99.6655 547 0.510948 -0.859612<-312.467 0> 314 335 341.265 310 0.483796 0.875181<0 305.726>
LayerCount: 2
Fore
SplineSet
254 74 m 2
 254 259 l 2
 254 270 251 293 245 302 c 2
 100 547 l 2
 68 600 58 614 22 617 c 2
 10 618 l 2
 7 618 0 619 0 625 c 2
 0 645 l 1
 2 647 l 1
 32 646 68 645 107 645 c 0
 147 645 181 646 221 647 c 1
 223 645 l 1
 223 626 l 2
 223 622 221 618 217 618 c 2
 188 617 l 2
 153 616 160 602 175 576 c 2
 312 335 l 1
 314 335 l 1
 442 576 l 2
 459 607 450 615 428 616 c 2
 398 618 l 2
 394 618 393 622 393 625 c 2
 393 645 l 1
 395 647 l 1
 435 646 463 645 486 645 c 0
 509 645 543 646 573 647 c 1
 575 645 l 1
 575 625 l 2
 575 620 571 619 565 618 c 2
 544 616 l 2
 509 613 499 595 482 565 c 2
 341 310 l 2
 336 299 335 286 335 268 c 2
 335 74 l 2
 335 43 350 32 390 29 c 2
 417 27 l 2
 421 27 425 24 425 19 c 2
 425 0 l 1
 423 -2 l 1
 393 -1 333 0 294 0 c 0
 254 0 205 -1 167 -2 c 1
 165 0 l 1
 165 19 l 2
 165 24 168 27 173 27 c 2
 199 29 l 2
 238 32 254 42 254 74 c 2
EndSplineSet
Colour: ff00ff
EndChar

StartChar: uni04C0
Encoding: 1216 1216 105
Width: 293
VWidth: 999
Flags: HW
HStem: -2 29<20 52 242 274> 618 29<19 52 242 274>
VStem: 106 81<35.3322 609.22>
LayerCount: 2
Fore
SplineSet
187 574 m 2
 187 71 l 2
 187 41 202 32 242 29 c 2
 268 27 l 2
 272 27 276 24 276 19 c 2
 276 0 l 1
 274 -2 l 1
 226 0 197 0 147 0 c 0
 97 0 69 0 20 -2 c 1
 18 0 l 1
 18 19 l 2
 18 24 21 27 25 27 c 2
 52 29 l 2
 94 32 106 43 106 71 c 2
 106 574 l 2
 106 604 91 613 52 616 c 2
 25 618 l 2
 21 618 17 621 17 626 c 2
 17 645 l 1
 19 647 l 1
 69 646 96 645 146 645 c 0
 196 645 225 646 274 647 c 1
 276 645 l 1
 276 626 l 2
 276 621 273 618 268 618 c 2
 242 616 l 2
 202 613 187 602 187 574 c 2
EndSplineSet
Colour: ff00ff
EndChar

StartChar: uni04D0
Encoding: 1232 1232 106
Width: 695
VWidth: 999
Flags: HW
HStem: -2 29<4 63.4383 192 227 438 472 669 687> 241 42<240.956 437> 638 20<355.667 370> 698 31<313.536 404.309>
VStem: 234 70<736.681 803.162> 413 70<735.774 803.125>
DStem2: 106.983 102 152 79 0.392949 0.91956<-35.5134 182.05 227.744 482.534> 329.333 622.333 338 550 0.392949 0.91956<-557.738 -393.648 -343.43 -63.1089> 390 628 340 550 0.35377 -0.935333<55.2675 339.317 384.261 592.374>
LayerCount: 2
Fore
SplineSet
359 729 m 0
 392 729 415 746 415 763 c 0
 415 768 414 774 414 776 c 0
 414 791 424 806 447 806 c 0
 474 806 484 792 484 773 c 0
 484 721 425 698 359 698 c 0
 293 698 234 721 234 773 c 0
 234 792 244 806 271 806 c 0
 294 806 304 791 304 776 c 0
 304 774 303 768 303 763 c 0
 303 746 326 729 359 729 c 0
263 283 m 2
 437 283 l 1
 340 550 l 1
 338 550 l 1
 238 296 l 2
 234 286 241 283 263 283 c 2
152 79 m 2
 141 52 155 32 192 29 c 2
 221 27 l 2
 225 27 229 24 229 19 c 2
 229 0 l 1
 227 -2 l 1
 190 -1 137 0 96 0 c 0
 57 0 41 -1 4 -2 c 1
 2 0 l 1
 2 19 l 2
 2 24 5 27 10 27 c 0
 54 30 81 40 107 102 c 2
 329 622 l 2
 341 649 348 658 363 658 c 0
 377 658 383 647 390 628 c 2
 595 86 l 2
 609 47 629 32 669 28 c 2
 680 27 l 2
 685 27 690 24 690 19 c 2
 690 0 l 1
 688 -2 l 1
 651 -1 612 0 571 0 c 0
 532 0 475 -1 438 -2 c 1
 437 0 l 1
 437 19 l 2
 437 24 439 27 444 27 c 2
 472 29 l 2
 510 32 524 44 514 72 c 2
 453 241 l 1
 245 241 l 2
 221 241 215 237 210 224 c 2
 152 79 l 2
EndSplineSet
LCarets2: 1 0 
Colour: ff00ff
EndChar

StartChar: uni04D1
Encoding: 1233 1233 107
Width: 451
VWidth: 999
Flags: HW
HStem: -10 41<137.258 238.143 339.315 425.041> 409 30<147.012 252.929> 489 31<171.971 246.548>
VStem: 36 79<52.097 160.39> 53 74<295.655 377.485> 88 73<526.553 605.612> 257 73<526.548 606.379> 291 74<68.1358 233 264.049 375.745>
DStem2: 199 243 212 212 0.971457 0.237216<-65.5494 87.0019>
LayerCount: 2
Fore
SplineSet
330 576 m 0
 330 521 272 489 208 489 c 0
 143 489 88 522 88 576 c 0
 88 594 104 609 127 609 c 0
 149 609 161 595 161 579 c 0
 161 576 161 574 160 571 c 0
 159 568 159 565 159 563 c 0
 159 541 179 520 209 520 c 0
 238 520 259 540 259 562 c 0
 259 565 259 568 258 571 c 0
 257 573 257 575 257 578 c 0
 257 595 274 609 292 609 c 0
 316 609 330 595 330 576 c 0
291 233 m 1
 212 212 l 2
 138 192 115 147 115 102 c 0
 115 71 139 31 189 31 c 0
 217 31 251 53 277 74 c 0
 285 80 291 87 291 100 c 2
 291 233 l 1
291 48 m 1
 289 48 l 1
 269 32 l 2
 225 -2 206 -10 160 -10 c 0
 90 -10 36 19 36 98 c 0
 36 166 103 219 199 243 c 2
 285 264 l 2
 288 265 291 269 291 276 c 0
 291 389 244 409 210 409 c 0
 172 409 127 395 127 364 c 0
 127 353 128 347 129 344 c 0
 131 340 132 333 132 326 c 0
 132 313 117 293 88 293 c 0
 65 293 53 304 53 328 c 0
 53 382 136 439 218 439 c 0
 291 439 365 412 365 270 c 2
 365 121 l 2
 365 75 366 34 405 34 c 0
 429 34 432 50 438 50 c 0
 442 50 449 42 449 35 c 0
 449 30 415 -10 366 -10 c 0
 313 -10 297 27 291 48 c 1
EndSplineSet
LCarets2: 1 0 
Colour: ff00ff
EndChar

StartChar: uni04D2
Encoding: 1234 1234 108
Width: 695
VWidth: 999
Flags: HW
HStem: -2 29<4 63.4383 192 227 438 472 669 687> 241 42<240.956 437> 638 20<355.667 370> 712 92<238.347 315.653 398.347 475.653>
VStem: 231 92<719.347 796.653> 391 92<719.347 796.653>
DStem2: 106.983 102 152 79 0.392949 0.91956<-35.5134 182.05 227.744 482.534> 329.333 622.333 338 550 0.392949 0.91956<-557.738 -393.648 -343.43 -63.1089> 390 628 340 550 0.35377 -0.935333<55.2675 339.317 384.261 592.374>
LayerCount: 2
Fore
SplineSet
231 758 m 0
 231 783 252 804 277 804 c 0
 302 804 323 783 323 758 c 0
 323 733 302 712 277 712 c 0
 252 712 231 733 231 758 c 0
391 758 m 0
 391 783 412 804 437 804 c 0
 462 804 483 783 483 758 c 0
 483 733 462 712 437 712 c 0
 412 712 391 733 391 758 c 0
263 283 m 2
 437 283 l 1
 340 550 l 1
 338 550 l 1
 238 296 l 2
 234 286 241 283 263 283 c 2
152 79 m 2
 141 52 155 32 192 29 c 2
 221 27 l 2
 225 27 229 24 229 19 c 2
 229 0 l 1
 227 -2 l 1
 190 -1 137 0 96 0 c 0
 57 0 41 -1 4 -2 c 1
 2 0 l 1
 2 19 l 2
 2 24 5 27 10 27 c 0
 54 30 81 40 107 102 c 2
 329 622 l 2
 341 649 348 658 363 658 c 0
 377 658 383 647 390 628 c 2
 595 86 l 2
 609 47 629 32 669 28 c 2
 680 27 l 2
 685 27 690 24 690 19 c 2
 690 0 l 1
 688 -2 l 1
 651 -1 612 0 571 0 c 0
 532 0 475 -1 438 -2 c 1
 437 0 l 1
 437 19 l 2
 437 24 439 27 444 27 c 2
 472 29 l 2
 510 32 524 44 514 72 c 2
 453 241 l 1
 245 241 l 2
 221 241 215 237 210 224 c 2
 152 79 l 2
EndSplineSet
LCarets2: 1 0 
Colour: ff00ff
EndChar

StartChar: uni04D3
Encoding: 1235 1235 109
Width: 451
VWidth: 999
Flags: HW
HStem: -10 41<137.258 238.143 339.315 425.041> 409 30<147.012 252.929> 527 92<94.3474 171.653 254.347 331.653>
VStem: 36 79<52.097 160.39> 53 74<295.655 377.485> 87 92<534.347 611.653> 247 92<534.347 611.653> 291 74<68.1358 233 264.049 375.745>
DStem2: 199 243 212 212 0.971457 0.237216<-65.5494 87.0019>
LayerCount: 2
Fore
SplineSet
87 573 m 0
 87 598 108 619 133 619 c 0
 158 619 179 598 179 573 c 0
 179 548 158 527 133 527 c 0
 108 527 87 548 87 573 c 0
247 573 m 0
 247 598 268 619 293 619 c 0
 318 619 339 598 339 573 c 0
 339 548 318 527 293 527 c 0
 268 527 247 548 247 573 c 0
291 233 m 1
 212 212 l 2
 138 192 115 147 115 102 c 0
 115 71 139 31 189 31 c 0
 217 31 251 53 277 74 c 0
 285 80 291 87 291 100 c 2
 291 233 l 1
291 48 m 1
 289 48 l 1
 269 32 l 2
 225 -2 206 -10 160 -10 c 0
 90 -10 36 19 36 98 c 0
 36 166 103 219 199 243 c 2
 285 264 l 2
 288 265 291 269 291 276 c 0
 291 389 244 409 210 409 c 0
 172 409 127 395 127 364 c 0
 127 353 128 347 129 344 c 0
 131 340 132 333 132 326 c 0
 132 313 117 293 88 293 c 0
 65 293 53 304 53 328 c 0
 53 382 136 439 218 439 c 0
 291 439 365 412 365 270 c 2
 365 121 l 2
 365 75 366 34 405 34 c 0
 429 34 432 50 438 50 c 0
 442 50 449 42 449 35 c 0
 449 30 415 -10 366 -10 c 0
 313 -10 297 27 291 48 c 1
EndSplineSet
LCarets2: 1 0 
Colour: ff00ff
EndChar

StartChar: uni04D4
Encoding: 1236 1236 110
Width: 865
VWidth: 999
Flags: HW
HStem: -2 29<4 35 167 201 342 374> 0 39<514.23 740.226> 266 39<271 429> 329 34<512 654.005> 605 40<517.062 711.984> 618 28<296 333>
VStem: 429 83<40.8651 266 305 329 363 597.745> 671 33<247 312.081 407 445>
DStem2: 102.87 85 148 68 0.46188 0.886943<-25.6807 228.955 272.783 581.116>
LayerCount: 2
Fore
SplineSet
271 305 m 1
 429 305 l 1
 429 575 l 2
 429 587 428 596 424 598 c 1
 271 305 l 1
471 0 m 2
 435 0 342 -2 342 -2 c 1
 340 0 l 1
 340 18 l 2
 340 23 343 27 348 27 c 2
 374 29 l 2
 416 32 429 46 429 74 c 2
 429 266 l 1
 251 266 l 1
 148 68 l 2
 129 32 131 31 167 29 c 2
 196 27 l 2
 200 27 202 23 202 21 c 2
 202 0 l 1
 201 -2 l 1
 201 -2 133 0 94 0 c 0
 59 0 4 -2 4 -2 c 1
 2 0 l 1
 2 19 l 2
 2 24 6 26 12 27 c 2
 35 29 l 2
 73 32 79 40 103 85 c 2
 361 577 l 2
 373 601 352 615 333 616 c 2
 302 618 l 2
 296 618 294 621 294 625 c 2
 294 645 l 1
 296 646 l 1
 472 645 l 1
 549 645 l 1
 771 645 l 1
 776 591 785 532 792 491 c 1
 763 486 l 1
 741 555 724 605 648 605 c 2
 548 605 l 2
 524 605 512 584 512 561 c 2
 512 363 l 1
 614 363 l 2
 649 363 658 379 665 407 c 1
 671 437 l 2
 672 441 675 445 679 445 c 2
 701 445 l 2
 703 445 704 443 704 441 c 0
 701 416 696 379 696 346 c 0
 696 312 702 267 704 250 c 1
 702 247 l 1
 679 247 l 2
 673 247 671 250 670 254 c 2
 665 285 l 1
 659 313 648 329 614 329 c 2
 512 329 l 1
 512 74 l 2
 512 47 526 39 548 39 c 2
 679 39 l 2
 755 39 785 100 805 172 c 1
 835 167 l 1
 824 115 813 56 809 0 c 1
 471 0 l 2
EndSplineSet
Colour: ff00ff
EndChar

StartChar: uni04D5
Encoding: 1237 1237 111
Width: 687
VWidth: 999
Flags: HW
HStem: -10 42<130.239 246.095> -10 49<441.951 572.545> 218 35<217.563 298 372 518.524> 409 30<145.729 252.328 445.807 530.397>
VStem: 39 72<49.3331 157.224> 50 73<295.734 386.882> 298 73<118.736 215> 572 76<285.698 379.656>
LayerCount: 2
Fore
SplineSet
265 384 m 0
 250 399 228 409 207 409 c 0
 168 409 123 394 123 363 c 0
 123 353 124 346 126 343 c 0
 128 339 129 332 129 325 c 0
 129 309 115 292 90 292 c 0
 59 292 50 317 50 337 c 0
 50 395 128 439 210 439 c 0
 234 439 311 436 348 369 c 1
 381 414 433 439 490 439 c 0
 604 439 648 373 648 339 c 0
 648 258 602 221 371 218 c 1
 371 112 433 39 508 39 c 0
 562 39 594 59 624 94 c 1
 641 84 l 1
 612 30 560 -10 494 -10 c 0
 403 -10 360 34 340 59 c 0
 335 66 328 76 325 80 c 1
 283 14 228 -10 180 -10 c 0
 75 -10 39 36 39 104 c 0
 39 198 128 238 298 250 c 1
 297 329 287 362 265 384 c 0
298 215 m 1
 173 205 111 160 111 109 c 0
 111 64 128 32 192 32 c 0
 226 32 266 61 293 103 c 1
 297 122 298 165 298 215 c 1
372 253 m 1
 525 255 572 275 572 336 c 0
 572 368 537 405 489 405 c 0
 421 405 380 338 372 253 c 1
EndSplineSet
Colour: ff00ff
EndChar

StartChar: uni04D6
Encoding: 1238 1238 112
Width: 549
VWidth: 999
Flags: HW
HStem: -2 29<14 50> 0 39<183.683 419.99> 323 38<182 352.245> 416 20<367 392.5> 605 40<183.485 390.274> 618 28<14 50> 698 31<228.536 319.309>
VStem: 101 81<40.3443 323 361 603.225> 149 70<736.681 803.162> 328 70<735.774 803.125> 361 34<252 316.054 403 436> 438 29<499.793 534.346> 489 31<128.12 166.129>
LayerCount: 2
Fore
SplineSet
274 729 m 0
 307 729 330 746 330 763 c 0
 330 768 329 774 329 776 c 0
 329 791 339 806 362 806 c 0
 389 806 399 792 399 773 c 0
 399 721 340 698 274 698 c 0
 208 698 149 721 149 773 c 0
 149 792 159 806 186 806 c 0
 209 806 219 791 219 776 c 0
 219 774 218 768 218 763 c 0
 218 746 241 729 274 729 c 0
445 646 m 0
 447 638 462 542 467 501 c 1
 438 496 l 1
 416 565 398 605 323 605 c 2
 218 605 l 2
 194 605 182 595 182 571 c 2
 182 361 l 1
 309 361 l 2
 344 361 356 375 359 403 c 2
 362 428 l 2
 362 432 365 436 369 436 c 2
 391 436 l 1
 395 432 l 1
 392 392 391 362 391 342 c 0
 391 322 392 295 395 255 c 1
 391 252 l 1
 369 252 l 2
 364 252 362 257 362 260 c 2
 359 285 l 2
 356 314 343 323 309 323 c 2
 182 323 l 1
 182 72 l 2
 182 45 196 39 218 39 c 2
 354 39 l 2
 430 39 469 98 489 170 c 1
 520 165 l 1
 508 113 494 50 483 -2 c 1
 483 -2 403 0 355 0 c 2
 141 0 l 2
 102 0 61 -1 14 -2 c 1
 12 0 l 1
 12 20 l 2
 12 23 14 27 20 27 c 2
 50 29 l 2
 89 32 101 44 101 72 c 2
 101 571 l 2
 101 602 88 613 50 616 c 2
 20 618 l 2
 13 618 12 622 12 625 c 2
 12 645 l 1
 14 647 l 1
 61 646 102 645 141 645 c 2
 394 645 l 2
 418 645 424 646 441 649 c 0
 444 649 445 648 445 646 c 0
EndSplineSet
LCarets2: 1 0 
Colour: ff00ff
EndChar

StartChar: uni04D7
Encoding: 1239 1239 113
Width: 427
VWidth: 999
Flags: HW
HStem: -10 49<195.372 321.672> 248 39<117 314.997> 405 34<173.337 282.104> 489 31<186.971 261.548>
VStem: 34 80<137.009 248> 103 73<526.553 605.612> 272 73<526.548 606.379> 315 80<259.5 367.016>
LayerCount: 2
Fore
SplineSet
345 576 m 0
 345 521 287 489 223 489 c 0
 158 489 103 522 103 576 c 0
 103 594 119 609 142 609 c 0
 164 609 176 595 176 579 c 0
 176 576 176 574 175 571 c 0
 174 568 174 565 174 563 c 0
 174 541 194 520 224 520 c 0
 253 520 274 540 274 562 c 0
 274 565 274 568 273 571 c 0
 272 573 272 575 272 578 c 0
 272 595 289 609 307 609 c 0
 331 609 345 595 345 576 c 0
117 287 m 1
 301 287 l 2
 311 287 315 292 315 301 c 0
 315 385 268 405 232 405 c 0
 209 405 135 400 117 287 c 1
381 95 m 1
 392 94 398 89 401 79 c 1
 363 27 304 -10 232 -10 c 0
 95 -10 34 84 34 199 c 0
 34 351 137 439 232 439 c 0
 364 439 395 349 395 265 c 0
 395 254 388 248 377 248 c 2
 114 248 l 1
 114 99 200 39 256 39 c 0
 311 39 346 57 381 95 c 1
EndSplineSet
LCarets2: 1 0 
Colour: ff00ff
EndChar

StartChar: uni04D8
Encoding: 1240 1240 114
Width: 644
VWidth: 999
Flags: HW
HStem: -12 34<246.269 393.278> 216 44<122 511> 624 34<207.892 368.818>
VStem: 521 90<221.919 443.038>
LayerCount: 2
Fore
SplineSet
97 523 m 1
 74 547 l 1
 153 621 200 658 310 658 c 0
 525 658 611 485 611 326 c 0
 611 131 509 -12 316 -12 c 0
 124 -12 53 118 42 260 c 1
 520 260 l 1
 521 271 521 283 521 297 c 0
 521 483 429 624 294 624 c 0
 201 624 150 575 97 523 c 1
122 216 m 1
 153 86 225 22 323 22 c 0
 429 22 493 116 511 216 c 1
 122 216 l 1
EndSplineSet
Colour: ff00ff
EndChar

StartChar: afii10846
Encoding: 1241 1241 115
Width: 427
VWidth: 999
Flags: HW
HStem: -11 34<145.896 254.663> 141 39<113.003 311> 389 49<106.328 232.628>
VStem: 33 80<60.984 168.5> 314 80<180 290.991>
LayerCount: 2
Fore
SplineSet
311 141 m 1
 127 141 l 2
 117 141 113 136 113 127 c 0
 113 43 160 23 196 23 c 0
 219 23 293 28 311 141 c 1
47 333 m 1
 36 334 30 339 27 349 c 1
 65 401 124 438 196 438 c 0
 333 438 394 344 394 229 c 0
 394 77 291 -11 196 -11 c 0
 64 -11 33 79 33 163 c 0
 33 174 40 180 51 180 c 2
 314 180 l 1
 314 329 228 389 172 389 c 0
 117 389 82 371 47 333 c 1
EndSplineSet
Colour: ff00ff
EndChar

StartChar: uni04DA
Encoding: 1242 1242 116
Width: 644
VWidth: 999
Flags: HW
HStem: -12 34<246.269 393.278> 216 44<122 511> 624 34<207.892 368.818> 704 96<191.332 270.668 380.332 459.668>
VStem: 183 96<712.332 791.668> 372 96<712.332 791.668> 521 90<221.919 443.038>
LayerCount: 2
Fore
SplineSet
372 752 m 0
 372 778 394 800 420 800 c 0
 446 800 468 778 468 752 c 0
 468 726 446 704 420 704 c 0
 394 704 372 726 372 752 c 0
183 752 m 0
 183 778 205 800 231 800 c 0
 257 800 279 778 279 752 c 0
 279 726 257 704 231 704 c 0
 205 704 183 726 183 752 c 0
97 523 m 1
 74 547 l 1
 153 621 200 658 310 658 c 0
 525 658 611 485 611 326 c 0
 611 131 509 -12 316 -12 c 0
 124 -12 53 118 42 260 c 1
 520 260 l 1
 521 271 521 283 521 297 c 0
 521 483 429 624 294 624 c 0
 201 624 150 575 97 523 c 1
122 216 m 1
 153 86 225 22 323 22 c 0
 429 22 493 116 511 216 c 1
 122 216 l 1
EndSplineSet
LCarets2: 1 0 
Colour: ff00ff
EndChar

StartChar: uni04DB
Encoding: 1243 1243 117
Width: 427
VWidth: 999
Flags: HW
HStem: -11 34<145.896 254.663> 141 39<113.003 311> 389 49<106.328 232.628> 527 92<94.3474 171.653 254.347 331.653>
VStem: 33 80<60.984 168.5> 87 92<534.347 611.653> 247 92<534.347 611.653> 314 80<180 290.991>
LayerCount: 2
Fore
SplineSet
87 573 m 0
 87 598 108 619 133 619 c 0
 158 619 179 598 179 573 c 0
 179 548 158 527 133 527 c 0
 108 527 87 548 87 573 c 0
247 573 m 0
 247 598 268 619 293 619 c 0
 318 619 339 598 339 573 c 0
 339 548 318 527 293 527 c 0
 268 527 247 548 247 573 c 0
311 141 m 1
 127 141 l 2
 117 141 113 136 113 127 c 0
 113 43 160 23 196 23 c 0
 219 23 293 28 311 141 c 1
47 333 m 1
 36 334 30 339 27 349 c 1
 65 401 124 438 196 438 c 0
 333 438 394 344 394 229 c 0
 394 77 291 -11 196 -11 c 0
 64 -11 33 79 33 163 c 0
 33 174 40 180 51 180 c 2
 314 180 l 1
 314 329 228 389 172 389 c 0
 117 389 82 371 47 333 c 1
EndSplineSet
LCarets2: 1 0 
Colour: ff00ff
EndChar

StartChar: uni04E0
Encoding: 1248 1248 118
Width: 608
VWidth: 999
Flags: HW
HStem: -211 37<215 357> 605 39<141 167 167 446>
VStem: 475 89<-42 146>
DStem2: 250 252 367 288 0.48636 0.873758<88.8042 404.592>
LayerCount: 2
Fore
SplineSet
167 645 m 2
 522 645 l 2
 543 645 550 639 550 631 c 0
 550 621 544 605 535 590 c 2
 367 288 l 1
 501 261 564 162 564 51 c 0
 564 -88 432 -211 272 -211 c 0
 192 -211 42 -176 42 -110 c 0
 42 -87 52 -60 86 -60 c 0
 113 -60 141 -74 154 -95 c 0
 186 -144 236 -174 291 -174 c 0
 378 -174 475 -53 475 42 c 0
 475 201 360 255 291 255 c 0
 275 255 264 255 250 252 c 1
 446 605 l 1
 197 605 l 1
 123 604 94 521 90 477 c 1
 64 479 l 1
 85 667 l 1
 108 662 143 645 167 645 c 2
EndSplineSet
Colour: ff00ff
EndChar

StartChar: uni04E1
Encoding: 1249 1249 119
Width: 416
VWidth: 999
Flags: HW
HStem: -235 35<149 244> 103 34<216 268> 395 34<107 295>
VStem: 40 27<303 337> 312 81<-120 61>
DStem2: 127 107 216 137 0.505072 0.863077<70.4402 332.658>
LayerCount: 2
Fore
SplineSet
127 107 m 1
 295 395 l 1
 150 395 l 2
 120 395 86 374 66 301 c 1
 40 304 l 1
 48 353 54 397 55 442 c 1
 80 442 l 1
 82 436 91 429 106 429 c 2
 309 429 l 2
 338 429 374 435 376 435 c 0
 383 435 389 433 389 429 c 0
 389 425 383 414 367 387 c 2
 216 137 l 1
 312 137 393 84 393 -22 c 0
 393 -141 308 -235 185 -235 c 0
 100 -235 42 -174 42 -142 c 0
 42 -124 52 -106 74 -106 c 0
 97 -106 110 -116 118 -140 c 0
 126 -162 153 -200 193 -200 c 0
 243 -200 312 -146 312 -38 c 0
 312 63 281 103 203 103 c 0
 192 103 162 96 144 92 c 1
 127 107 l 1
EndSplineSet
Colour: ff00ff
EndChar

StartChar: uni04E6
Encoding: 1254 1254 120
Width: 698
VWidth: 999
Flags: HW
HStem: -10 34<291.757 439.305> 624 34<260.807 413.377> 704 96<212.332 291.668 401.332 480.668>
VStem: 37 92<199.09 439.608> 204 96<712.332 791.668> 393 96<712.332 791.668> 570 92<197.944 451.367>
LayerCount: 2
Fore
SplineSet
393 752 m 0
 393 778 415 800 441 800 c 0
 467 800 489 778 489 752 c 0
 489 726 467 704 441 704 c 0
 415 704 393 726 393 752 c 0
204 752 m 0
 204 778 226 800 252 800 c 0
 278 800 300 778 300 752 c 0
 300 726 278 704 252 704 c 0
 226 704 204 726 204 752 c 0
329 624 m 0
 238 624 129 537 129 327 c 0
 129 135 248 24 368 24 c 0
 482 24 570 131 570 310 c 0
 570 518 465 624 329 624 c 0
662 329 m 0
 662 129 539 -10 348 -10 c 0
 176 -10 37 113 37 310 c 0
 37 506 163 658 342 658 c 0
 517 658 662 527 662 329 c 0
EndSplineSet
LCarets2: 1 0 
Colour: ff00ff
EndChar

StartChar: uni04E7
Encoding: 1255 1255 121
Width: 484
VWidth: 999
Flags: HW
HStem: -10 33<205.005 309.227> 406 33<180.317 289.2> 528 92<125.347 202.653 285.347 362.653>
VStem: 36 85<119.996 319.458> 118 92<535.347 612.653> 278 92<535.347 612.653> 363 85<113.472 321.738>
LayerCount: 2
Fore
SplineSet
36 205 m 0
 36 342 110 439 243 439 c 0
 391 439 448 318 448 214 c 0
 448 114 383 -10 241 -10 c 0
 107 -10 36 103 36 205 c 0
232 406 m 0
 152 406 121 315 121 228 c 0
 121 151 159 23 258 23 c 0
 303 23 363 50 363 182 c 0
 363 329 314 406 232 406 c 0
118 574 m 0
 118 599 139 620 164 620 c 0
 189 620 210 599 210 574 c 0
 210 549 189 528 164 528 c 0
 139 528 118 549 118 574 c 0
278 574 m 0
 278 599 299 620 324 620 c 0
 349 620 370 599 370 574 c 0
 370 549 349 528 324 528 c 0
 299 528 278 549 278 574 c 0
EndSplineSet
LCarets2: 1 0 
Colour: ff00ff
EndChar

StartChar: uni04E8
Encoding: 1256 1256 122
Width: 698
VWidth: 999
Flags: HW
HStem: -10 34<291.757 439.305> 266 57<382.324 529.392> 312 58<172.336 335.102> 624 34<260.807 413.377>
VStem: 37 92<199.09 439.608> 570 92<197.944 451.367>
LayerCount: 2
Fore
SplineSet
329 624 m 0
 238 624 129 537 129 327 c 0
 129 326 129 325 129 324 c 0
 168 355 230 370 268 370 c 0
 366 370 396 323 459 323 c 0
 490 323 536 335 568 358 c 1
 553 534 454 624 329 624 c 0
662 329 m 0
 662 129 539 -10 348 -10 c 0
 176 -10 37 113 37 310 c 0
 37 506 163 658 342 658 c 0
 517 658 662 527 662 329 c 0
570 315 m 1
 528 277 479 266 441 266 c 0
 349 266 325 312 250 312 c 0
 220 312 166 307 131 283 c 1
 148 118 258 24 368 24 c 0
 482 24 570 131 570 310 c 0
 570 312 570 314 570 315 c 1
EndSplineSet
Colour: ff00ff
EndChar

StartChar: uni04E9
Encoding: 1257 1257 123
Width: 484
VWidth: 999
Flags: HMW
HStem: -12 36<192 318> 179 49<194 339> 207 42<108 228> 409 33<173 294>
VStem: 34 79<124 320> 367 79<113 318>
AnchorPoint: "unten_punkt" 246 -107 basechar 0
AnchorPoint: "top_akzent" 236 645 basechar 0
LayerCount: 2
Fore
SplineSet
36 205 m 0
 36 342 110 439 243 439 c 0
 391 439 448 318 448 214 c 0
 448 114 383 -10 241 -10 c 0
 107 -10 36 103 36 205 c 0
360 241 m 1
 348 350 302 406 232 406 c 0
 153 406 122 318 121 233 c 1
 144 242 178 249 203 249 c 0
 248 249 270 229 308 229 c 0
 327 229 346 235 360 241 c 1
362 214 m 1
 340 200 300 179 264 179 c 0
 221 179 187 207 152 207 c 0
 145 207 133 205 122 203 c 1
 129 126 169 23 258 23 c 0
 303 23 363 50 363 182 c 0
 363 193 363 204 362 214 c 1
EndSplineSet
Colour: ff9ccc
EndChar

StartChar: uni04EA
Encoding: 1258 1258 124
Width: 698
VWidth: 999
Flags: HW
HStem: -10 34<291.757 439.305> 266 57<382.324 529.392> 312 58<172.336 335.102> 624 34<260.807 413.377> 706 96<209.332 288.668 398.332 477.668>
VStem: 37 92<199.09 439.608> 201 96<714.332 793.668> 390 96<714.332 793.668> 570 92<197.944 451.367>
LayerCount: 2
Fore
SplineSet
390 754 m 0
 390 780 412 802 438 802 c 0
 464 802 486 780 486 754 c 0
 486 728 464 706 438 706 c 0
 412 706 390 728 390 754 c 0
201 754 m 0
 201 780 223 802 249 802 c 0
 275 802 297 780 297 754 c 0
 297 728 275 706 249 706 c 0
 223 706 201 728 201 754 c 0
329 624 m 0
 238 624 129 537 129 327 c 0
 129 326 129 325 129 324 c 0
 168 355 230 370 268 370 c 0
 366 370 396 323 459 323 c 0
 490 323 536 335 568 358 c 1
 553 534 454 624 329 624 c 0
662 329 m 0
 662 129 539 -10 348 -10 c 0
 176 -10 37 113 37 310 c 0
 37 506 163 658 342 658 c 0
 517 658 662 527 662 329 c 0
570 315 m 1
 528 277 479 266 441 266 c 0
 349 266 325 312 250 312 c 0
 220 312 166 307 131 283 c 1
 148 118 258 24 368 24 c 0
 482 24 570 131 570 310 c 0
 570 312 570 314 570 315 c 1
EndSplineSet
LCarets2: 1 0 
Colour: ff00ff
EndChar

StartChar: uni04EB
Encoding: 1259 1259 125
Width: 484
VWidth: 999
Flags: HW
HStem: -12 36<192 318> 179 49<194 339> 207 42<108 228> 409 33<173 294> 527 92<127.347 204.653 287.347 364.653>
VStem: 34 79<124 320> 120 92<534.347 611.653> 280 92<534.347 611.653> 367 79<113 318>
LayerCount: 2
Fore
SplineSet
36 205 m 0
 36 342 110 439 243 439 c 0
 391 439 448 318 448 214 c 0
 448 114 383 -10 241 -10 c 0
 107 -10 36 103 36 205 c 0
120 573 m 0
 120 598 141 619 166 619 c 0
 191 619 212 598 212 573 c 0
 212 548 191 527 166 527 c 0
 141 527 120 548 120 573 c 0
280 573 m 0
 280 598 301 619 326 619 c 0
 351 619 372 598 372 573 c 0
 372 548 351 527 326 527 c 0
 301 527 280 548 280 573 c 0
360 241 m 1
 348 350 302 406 232 406 c 0
 153 406 122 318 121 233 c 1
 144 242 178 249 203 249 c 0
 248 249 270 229 308 229 c 0
 327 229 346 235 360 241 c 1
362 214 m 1
 340 200 300 179 264 179 c 0
 221 179 187 207 152 207 c 0
 145 207 133 205 122 203 c 1
 129 126 169 23 258 23 c 0
 303 23 363 50 363 182 c 0
 363 193 363 204 362 214 c 1
EndSplineSet
LCarets2: 1 0 
Colour: ff00ff
EndChar

StartChar: uni04EF
Encoding: 1263 1263 126
Width: 505
VWidth: 999
Flags: HW
HStem: -232 55<89.5 154.725> 402 29<10 58.2034 152.914 203 331 382.132 452.185 494> 538 44<129.088 407.515>
VStem: 128 281<538.205 582>
DStem2: 157 357 79 353 0.395054 -0.918658<-33.6182 280.47> 214 -28 238 -74 0.395374 0.91852<-166.96 31.2484 137.607 450.173>
LayerCount: 2
Fore
SplineSet
205 410 m 2
 205 405 199 402 194 402 c 0
 156 399 142 391 157 357 c 2
 267 99 l 1
 280 129 325 234 378 353 c 1
 400 393 370 399 339 402 c 0
 334 402 329 404 329 409 c 2
 329 428 l 1
 331 431 l 1
 368 430 390 429 425 429 c 0
 453 429 469 430 494 431 c 1
 497 429 l 1
 497 410 l 2
 497 405 493 403 486 402 c 0
 449 399 429 363 415 334 c 0
 362 222 318 119 238 -74 c 0
 208 -146 170 -232 99 -232 c 0
 80 -232 41 -221 41 -185 c 0
 41 -155 63 -146 79 -146 c 0
 94 -146 104 -152 110 -160 c 1
 120 -170 127 -177 137 -177 c 0
 152 -177 189 -89 214 -28 c 1
 220 -16 222 -6 222 3 c 0
 222 13 213 40 205 60 c 2
 79 353 l 2
 63 391 51 399 18 402 c 0
 12 403 8 405 8 409 c 2
 8 429 l 1
 10 431 l 1
 30 430 60 429 94 429 c 0
 130 429 166 430 203 431 c 1
 205 428 l 1
 205 410 l 2
385 538 m 2
 141 538 l 2
 132 538 128 546 128 553 c 0
 128 565 139 582 150 582 c 2
 395 582 l 2
 405 582 409 574 409 568 c 0
 409 556 398 538 385 538 c 2
EndSplineSet
LCarets2: 1 0 
Colour: ff00ff
EndChar

StartChar: uni04F1
Encoding: 1265 1265 127
Width: 505
VWidth: 999
Flags: HW
HStem: -232 55<89.5 154.725> 402 29<10 58.2034 152.914 203 331 382.132 452.185 494> 527 92<160.347 237.653 320.347 397.653>
VStem: 153 92<534.347 611.653> 313 92<534.347 611.653>
DStem2: 157 357 79 353 0.395054 -0.918658<-33.6182 280.47> 214 -28 238 -74 0.395374 0.91852<-166.96 31.2484 137.607 450.173>
LayerCount: 2
Fore
SplineSet
205 410 m 2
 205 405 199 402 194 402 c 0
 156 399 142 391 157 357 c 2
 267 99 l 1
 280 129 325 234 378 353 c 1
 400 393 370 399 339 402 c 0
 334 402 329 404 329 409 c 2
 329 428 l 1
 331 431 l 1
 368 430 390 429 425 429 c 0
 453 429 469 430 494 431 c 1
 497 429 l 1
 497 410 l 2
 497 405 493 403 486 402 c 0
 449 399 429 363 415 334 c 0
 362 222 318 119 238 -74 c 0
 208 -146 170 -232 99 -232 c 0
 80 -232 41 -221 41 -185 c 0
 41 -155 63 -146 79 -146 c 0
 94 -146 104 -152 110 -160 c 1
 120 -170 127 -177 137 -177 c 0
 152 -177 189 -89 214 -28 c 1
 220 -16 222 -6 222 3 c 0
 222 13 213 40 205 60 c 2
 79 353 l 2
 63 391 51 399 18 402 c 0
 12 403 8 405 8 409 c 2
 8 429 l 1
 10 431 l 1
 30 430 60 429 94 429 c 0
 130 429 166 430 203 431 c 1
 205 428 l 1
 205 410 l 2
153 573 m 0
 153 598 174 619 199 619 c 0
 224 619 245 598 245 573 c 0
 245 548 224 527 199 527 c 0
 174 527 153 548 153 573 c 0
313 573 m 0
 313 598 334 619 359 619 c 0
 384 619 405 598 405 573 c 0
 405 548 384 527 359 527 c 0
 334 527 313 548 313 573 c 0
EndSplineSet
LCarets2: 1 0 
Colour: ff00ff
EndChar

StartChar: uni04F3
Encoding: 1267 1267 128
Width: 505
VWidth: 999
Flags: HW
HStem: -232 55<89.5 154.725> 402 29<10 58.2034 152.914 203 331 382.132 452.185 494>
DStem2: 157 357 79 353 0.395054 -0.918658<-33.6182 280.47> 214 -28 238 -74 0.395374 0.91852<-166.96 31.2484 137.607 450.173>
LayerCount: 2
Fore
SplineSet
205 410 m 2
 205 405 199 402 194 402 c 0
 156 399 142 391 157 357 c 2
 267 99 l 1
 280 129 325 234 378 353 c 1
 400 393 370 399 339 402 c 0
 334 402 329 404 329 409 c 2
 329 428 l 1
 331 431 l 1
 368 430 390 429 425 429 c 0
 453 429 469 430 494 431 c 1
 497 429 l 1
 497 410 l 2
 497 405 493 403 486 402 c 0
 449 399 429 363 415 334 c 0
 362 222 318 119 238 -74 c 0
 208 -146 170 -232 99 -232 c 0
 80 -232 41 -221 41 -185 c 0
 41 -155 63 -146 79 -146 c 0
 94 -146 104 -152 110 -160 c 1
 120 -170 127 -177 137 -177 c 0
 152 -177 189 -89 214 -28 c 1
 220 -16 222 -6 222 3 c 0
 222 13 213 40 205 60 c 2
 79 353 l 2
 63 391 51 399 18 402 c 0
 12 403 8 405 8 409 c 2
 8 429 l 1
 10 431 l 1
 30 430 60 429 94 429 c 0
 130 429 166 430 203 431 c 1
 205 428 l 1
 205 410 l 2
462 615 m 0
 462 609 461 602 455 596 c 2
 341 486 l 2
 339 484 337 484 335 484 c 0
 330 484 321 489 321 497 c 0
 321 498 321 500 322 501 c 2
 400 640 l 2
 405 649 412 652 424 652 c 0
 445 652 462 634 462 615 c 0
330 621 m 0
 330 616 329 610 325 605 c 2
 223 484 l 2
 221 482 218 481 215 481 c 0
 209 481 201 486 201 494 c 0
 201 495 201 496 202 497 c 2
 266 643 l 2
 272 656 288 657 292 657 c 0
 313 657 330 641 330 621 c 0
EndSplineSet
LCarets2: 1 0 
Colour: ff00ff
EndChar

StartChar: uni1E00
Encoding: 7680 7680 129
Width: 695
VWidth: 999
Flags: HW
HStem: -215 27<301.794 369.684> -76 27<301.294 370.499> -2 29<4 63.4383 192 227 438 472 669 687> 241 42<240.956 437> 638 20<355.667 370>
VStem: 251 31<-170.178 -93.447> 390 31<-169.958 -93.519>
DStem2: 106.983 102 152 79 0.392949 0.91956<-35.5134 182.05 227.744 482.534> 329.333 622.333 338 550 0.392949 0.91956<-557.738 -393.648 -343.43 -63.1089> 390 628 340 550 0.35377 -0.935333<55.2675 339.317 384.261 592.374>
LayerCount: 2
Fore
SplineSet
336 -76 m 0
 305 -76 286 -102 286 -132 c 0
 286 -160 305 -188 336 -188 c 0
 367 -188 386 -160 386 -132 c 0
 386 -101 366 -76 336 -76 c 0
249 -132 m 0
 249 -86 290 -49 336 -49 c 0
 382 -49 423 -85 423 -132 c 0
 423 -177 384 -215 336 -215 c 0
 290 -215 249 -178 249 -132 c 0
263 283 m 2
 437 283 l 1
 340 550 l 1
 338 550 l 1
 238 296 l 2
 234 286 241 283 263 283 c 2
152 79 m 2
 141 52 155 32 192 29 c 2
 221 27 l 2
 225 27 229 24 229 19 c 2
 229 0 l 1
 227 -2 l 1
 190 -1 137 0 96 0 c 0
 57 0 41 -1 4 -2 c 1
 2 0 l 1
 2 19 l 2
 2 24 5 27 10 27 c 0
 54 30 81 40 107 102 c 2
 329 622 l 2
 341 649 348 658 363 658 c 0
 377 658 383 647 390 628 c 2
 595 86 l 2
 609 47 629 32 669 28 c 2
 680 27 l 2
 685 27 690 24 690 19 c 2
 690 0 l 1
 688 -2 l 1
 651 -1 612 0 571 0 c 0
 532 0 475 -1 438 -2 c 1
 437 0 l 1
 437 19 l 2
 437 24 439 27 444 27 c 2
 472 29 l 2
 510 32 524 44 514 72 c 2
 453 241 l 1
 245 241 l 2
 221 241 215 237 210 224 c 2
 152 79 l 2
EndSplineSet
LCarets2: 1 0 
Colour: ff00ff
EndChar

StartChar: uni1E01
Encoding: 7681 7681 130
Width: 451
VWidth: 999
Flags: HW
HStem: -216 27<189.794 257.684> -77 27<189.294 258.499> -10 41<137.258 238.143 339.315 425.041> 409 30<147.012 252.929>
VStem: 36 79<52.097 160.39> 53 74<295.655 377.485> 139 31<-171.178 -94.447> 278 31<-170.958 -94.519> 291 74<68.1358 233 264.049 375.745>
DStem2: 199 243 212 212 0.971457 0.237216<-65.5494 87.0019>
LayerCount: 2
Fore
SplineSet
224 -77 m 0
 193 -77 174 -103 174 -133 c 0
 174 -161 193 -189 224 -189 c 0
 255 -189 274 -161 274 -133 c 0
 274 -102 254 -77 224 -77 c 0
137 -133 m 0
 137 -87 178 -50 224 -50 c 0
 270 -50 311 -86 311 -133 c 0
 311 -178 272 -216 224 -216 c 0
 178 -216 137 -179 137 -133 c 0
291 233 m 1
 212 212 l 2
 138 192 115 147 115 102 c 0
 115 71 139 31 189 31 c 0
 217 31 251 53 277 74 c 0
 285 80 291 87 291 100 c 2
 291 233 l 1
291 48 m 1
 289 48 l 1
 269 32 l 2
 225 -2 206 -10 160 -10 c 0
 90 -10 36 19 36 98 c 0
 36 166 103 219 199 243 c 2
 285 264 l 2
 288 265 291 269 291 276 c 0
 291 389 244 409 210 409 c 0
 172 409 127 395 127 364 c 0
 127 353 128 347 129 344 c 0
 131 340 132 333 132 326 c 0
 132 313 117 293 88 293 c 0
 65 293 53 304 53 328 c 0
 53 382 136 439 218 439 c 0
 291 439 365 412 365 270 c 2
 365 121 l 2
 365 75 366 34 405 34 c 0
 429 34 432 50 438 50 c 0
 442 50 449 42 449 35 c 0
 449 30 415 -10 366 -10 c 0
 313 -10 297 27 291 48 c 1
EndSplineSet
LCarets2: 1 0 
Colour: ff00ff
EndChar

StartChar: uni1E02
Encoding: 7682 7682 131
Width: 582
VWidth: 999
Flags: HW
HStem: -2 34<19 54 194.805 379.143> 332 34<187 348.649> 613 34<19 54 190.534 342.72> 693 96<243.332 322.668>
VStem: 106 81<39.6512 332 366 608.096> 235 96<701.332 780.668> 405 77<424.289 559.02> 452 89<97.5427 249.544>
LayerCount: 2
Fore
SplineSet
235 741 m 0
 235 767 257 789 283 789 c 0
 309 789 331 767 331 741 c 0
 331 715 309 693 283 693 c 0
 257 693 235 715 235 741 c 0
187 570 m 2
 187 366 l 1
 261 366 l 2
 344 366 405 396 405 481 c 0
 405 583 330 613 274 613 c 0
 187 613 187 603 187 570 c 2
187 332 m 1
 187 78 l 2
 187 45 200 32 270 32 c 0
 422 32 452 92 452 165 c 0
 452 255 393 332 256 332 c 2
 187 332 l 1
17 19 m 2
 17 24 19 27 24 27 c 2
 54 29 l 2
 96 32 106 36 106 71 c 2
 106 574 l 2
 106 608 97 613 54 616 c 2
 24 618 l 2
 19 618 17 621 17 625 c 2
 17 645 l 1
 19 647 l 1
 66 646 107 645 146 645 c 0
 186 645 232 647 267 647 c 0
 453 647 482 560 482 493 c 0
 482 439 439 387 389 362 c 1
 389 360 l 1
 476 335 541 280 541 184 c 0
 541 98 488 -2 289 -2 c 0
 200 -2 186 0 146 0 c 0
 107 0 66 -1 19 -2 c 1
 17 0 l 1
 17 19 l 2
EndSplineSet
LCarets2: 1 0 
Colour: ff00ff
EndChar

StartChar: uni1E03
Encoding: 7683 7683 132
Width: 487
VWidth: 999
Flags: HW
HStem: -12 21<89.25 98.75> -10 34<181.746 288.02> 395 44<193.784 307.52> 523 96<225.332 304.668> 678 20<130.465 147.5>
VStem: 78 75<47.054 370.44 384 639.899> 217 96<531.332 610.668> 365 85<133.468 325.831>
LayerCount: 2
Fore
SplineSet
217 571 m 0
 217 597 239 619 265 619 c 0
 291 619 313 597 313 571 c 0
 313 545 291 523 265 523 c 0
 239 523 217 545 217 571 c 0
153 71 m 1
 173 46 194 24 225 24 c 0
 320 24 365 110 365 224 c 0
 365 321 316 395 255 395 c 0
 244 395 192 393 153 353 c 1
 153 71 l 1
78 563 m 2
 78 628 68 641 48 641 c 1
 16 643 l 2
 13 643 10 645 10 648 c 2
 8 672 l 1
 48 675 118 688 143 698 c 1
 152 698 156 695 156 688 c 2
 156 688 153 648 153 583 c 2
 153 384 l 1
 187 421 227 439 275 439 c 0
 362 439 450 364 450 242 c 0
 450 83 333 -10 231 -10 c 0
 188 -10 156 2 127 27 c 1
 118 14 104 -3 94 -12 c 1
 84 -12 79 -11 73 -7 c 1
 77 15 78 32 78 71 c 2
 78 563 l 2
EndSplineSet
LCarets2: 1 0 
Colour: ff00ff
EndChar

StartChar: uni1E04
Encoding: 7684 7684 133
Width: 582
VWidth: 999
Flags: HW
HStem: -163 96<230.332 309.668> -2 34<19 54 194.805 379.143> 332 34<187 348.649> 613 34<19 54 190.534 342.72>
VStem: 106 81<39.6512 332 366 608.096> 222 96<-154.668 -75.332> 405 77<424.289 559.02> 452 89<97.5427 249.544>
LayerCount: 2
Fore
SplineSet
222 -115 m 0
 222 -89 244 -67 270 -67 c 0
 296 -67 318 -89 318 -115 c 0
 318 -141 296 -163 270 -163 c 0
 244 -163 222 -141 222 -115 c 0
187 570 m 2
 187 366 l 1
 261 366 l 2
 344 366 405 396 405 481 c 0
 405 583 330 613 274 613 c 0
 187 613 187 603 187 570 c 2
187 332 m 1
 187 78 l 2
 187 45 200 32 270 32 c 0
 422 32 452 92 452 165 c 0
 452 255 393 332 256 332 c 2
 187 332 l 1
17 19 m 2
 17 24 19 27 24 27 c 2
 54 29 l 2
 96 32 106 36 106 71 c 2
 106 574 l 2
 106 608 97 613 54 616 c 2
 24 618 l 2
 19 618 17 621 17 625 c 2
 17 645 l 1
 19 647 l 1
 66 646 107 645 146 645 c 0
 186 645 232 647 267 647 c 0
 453 647 482 560 482 493 c 0
 482 439 439 387 389 362 c 1
 389 360 l 1
 476 335 541 280 541 184 c 0
 541 98 488 -2 289 -2 c 0
 200 -2 186 0 146 0 c 0
 107 0 66 -1 19 -2 c 1
 17 0 l 1
 17 19 l 2
EndSplineSet
LCarets2: 1 0 
Colour: ff00ff
EndChar

StartChar: uni1E05
Encoding: 7685 7685 134
Width: 487
VWidth: 999
Flags: HW
HStem: -163 96<185.332 264.668> -12 21<89.25 98.75> -10 34<181.746 288.02> 395 44<193.784 307.52> 678 20<130.465 147.5>
VStem: 78 75<47.054 370.44 384 639.899> 177 96<-154.668 -75.332> 365 85<133.468 325.831>
LayerCount: 2
Fore
SplineSet
177 -115 m 0
 177 -89 199 -67 225 -67 c 0
 251 -67 273 -89 273 -115 c 0
 273 -141 251 -163 225 -163 c 0
 199 -163 177 -141 177 -115 c 0
153 71 m 1
 173 46 194 24 225 24 c 0
 320 24 365 110 365 224 c 0
 365 321 316 395 255 395 c 0
 244 395 192 393 153 353 c 1
 153 71 l 1
78 563 m 2
 78 628 68 641 48 641 c 1
 16 643 l 2
 13 643 10 645 10 648 c 2
 8 672 l 1
 48 675 118 688 143 698 c 1
 152 698 156 695 156 688 c 2
 156 688 153 648 153 583 c 2
 153 384 l 1
 187 421 227 439 275 439 c 0
 362 439 450 364 450 242 c 0
 450 83 333 -10 231 -10 c 0
 188 -10 156 2 127 27 c 1
 118 14 104 -3 94 -12 c 1
 84 -12 79 -11 73 -7 c 1
 77 15 78 32 78 71 c 2
 78 563 l 2
EndSplineSet
LCarets2: 1 0 
Colour: ff00ff
EndChar

StartChar: uni1E06
Encoding: 7686 7686 135
Width: 582
VWidth: 999
Flags: HW
HStem: -106 44<137 148 148 415> -2 34<19 54 194.805 379.143> 332 34<187 348.649> 613 34<19 54 190.534 342.72>
VStem: 106 81<39.6512 332 366 608.096> 405 77<424.289 559.02> 452 89<97.5427 249.544>
LayerCount: 2
Fore
SplineSet
393 -106 m 2
 148 -106 l 2
 140 -106 136 -98 136 -91 c 0
 136 -79 146 -62 158 -62 c 2
 403 -62 l 2
 412 -62 416 -69 416 -76 c 0
 416 -88 406 -106 393 -106 c 2
187 570 m 2
 187 366 l 1
 261 366 l 2
 344 366 405 396 405 481 c 0
 405 583 330 613 274 613 c 0
 187 613 187 603 187 570 c 2
187 332 m 1
 187 78 l 2
 187 45 200 32 270 32 c 0
 422 32 452 92 452 165 c 0
 452 255 393 332 256 332 c 2
 187 332 l 1
17 19 m 2
 17 24 19 27 24 27 c 2
 54 29 l 2
 96 32 106 36 106 71 c 2
 106 574 l 2
 106 608 97 613 54 616 c 2
 24 618 l 2
 19 618 17 621 17 625 c 2
 17 645 l 1
 19 647 l 1
 66 646 107 645 146 645 c 0
 186 645 232 647 267 647 c 0
 453 647 482 560 482 493 c 0
 482 439 439 387 389 362 c 1
 389 360 l 1
 476 335 541 280 541 184 c 0
 541 98 488 -2 289 -2 c 0
 200 -2 186 0 146 0 c 0
 107 0 66 -1 19 -2 c 1
 17 0 l 1
 17 19 l 2
EndSplineSet
LCarets2: 1 0 
Colour: ff00ff
EndChar

StartChar: uni1E07
Encoding: 7687 7687 136
Width: 487
VWidth: 999
Flags: HW
HStem: -110 44<107 118 118 385> -12 21<89.25 98.75> -10 34<181.746 288.02> 395 44<193.784 307.52> 678 20<130.465 147.5>
VStem: 78 75<47.054 370.44 384 639.899> 365 85<133.468 325.831>
LayerCount: 2
Fore
SplineSet
363 -110 m 2
 118 -110 l 2
 110 -110 106 -102 106 -95 c 0
 106 -83 116 -66 128 -66 c 2
 373 -66 l 2
 382 -66 386 -73 386 -80 c 0
 386 -92 376 -110 363 -110 c 2
153 71 m 1
 173 46 194 24 225 24 c 0
 320 24 365 110 365 224 c 0
 365 321 316 395 255 395 c 0
 244 395 192 393 153 353 c 1
 153 71 l 1
78 563 m 2
 78 628 68 641 48 641 c 1
 16 643 l 2
 13 643 10 645 10 648 c 2
 8 672 l 1
 48 675 118 688 143 698 c 1
 152 698 156 695 156 688 c 2
 156 688 153 648 153 583 c 2
 153 384 l 1
 187 421 227 439 275 439 c 0
 362 439 450 364 450 242 c 0
 450 83 333 -10 231 -10 c 0
 188 -10 156 2 127 27 c 1
 118 14 104 -3 94 -12 c 1
 84 -12 79 -11 73 -7 c 1
 77 15 78 32 78 71 c 2
 78 563 l 2
EndSplineSet
LCarets2: 1 0 
Colour: ff00ff
EndChar

StartChar: uni1E08
Encoding: 7688 7688 137
Width: 644
VWidth: 999
Flags: HW
HStem: -200 29<290.047 390.231> -96 32<365.31 395.355> -12 42<270 460> 621 37<278 443> 697 122
VStem: 37 87<204 436> 269 201 400 62<-165.259 -97.4563>
DStem2: 316 -96 365 -67 0.384615 0.923077<45.6154 104>
LayerCount: 2
Fore
SplineSet
408 819 m 1
 437 806 457 788 470 767 c 1
 326 709 l 2
 305 700 293 697 284 697 c 0
 275 697 269 704 269 712 c 0
 269 719 271 724 284 733 c 2
 408 819 l 1
367 -96 m 0
 348 -96 338 -97 322 -102 c 1
 316 -96 l 1
 352 -10 l 1
 139 -8 37 155 37 315 c 0
 37 512 190 658 356 658 c 0
 479 658 518 616 575 613 c 1
 579 559 587 510 597 458 c 1
 567 454 l 1
 541 540 483 621 345 621 c 0
 266 621 124 537 124 334 c 0
 124 188 199 31 354 31 c 0
 447 31 515 62 586 140 c 1
 597 140 604 134 609 125 c 1
 549 46 471 1 387 -8 c 1
 365 -67 l 1
 373 -65 382 -64 391 -64 c 0
 431 -64 462 -88 462 -126 c 0
 462 -169 416 -200 355 -200 c 0
 323 -200 306 -194 281 -183 c 1
 281 -171 284 -164 291 -157 c 1
 318 -167 329 -171 349 -171 c 0
 379 -171 400 -157 400 -131 c 0
 400 -110 390 -96 367 -96 c 0
EndSplineSet
LCarets2: 1 0 
Colour: ff00ff
EndChar

StartChar: uni1E09
Encoding: 7689 7689 138
Width: 415
VWidth: 999
Flags: HW
HStem: -200 29<151.047 251.231> -96 32<226.31 256.355> -10 44<191.859 321.109> 405 34<184.96 286.704>
VStem: 37 85<118.042 314.991> 261 62<-165.259 -97.4563> 310 83<300.625 386.29>
DStem2: 177 -96 226 -67 0.384615 0.923077<45.6154 104>
LayerCount: 2
Fore
SplineSet
286 671 m 1
 289 672 295 673 300 673 c 0
 306 673 332 672 355 650 c 1
 358 639 l 1
 243 530 l 2
 228 515 220 511 213 511 c 0
 206 511 199 517 199 524 c 0
 199 535 202 539 210 552 c 2
 286 671 l 1
228 -96 m 0
 209 -96 199 -97 183 -102 c 1
 177 -96 l 1
 213 -9 l 1
 100 -0 37 86 37 208 c 0
 37 350 136 439 244 439 c 0
 340 439 393 390 393 337 c 0
 393 308 367 294 346 294 c 0
 325 294 313 304 310 329 c 0
 306 362 298 405 239 405 c 0
 173 405 122 340 122 230 c 0
 122 113 178 34 255 34 c 0
 298 34 344 60 375 105 c 1
 384 104 392 100 396 91 c 1
 350 16 302 -7 247 -10 c 1
 226 -67 l 1
 234 -65 243 -64 252 -64 c 0
 292 -64 323 -88 323 -126 c 0
 323 -169 277 -200 216 -200 c 0
 184 -200 167 -194 142 -183 c 1
 142 -171 145 -164 152 -157 c 1
 179 -167 190 -171 210 -171 c 0
 240 -171 261 -157 261 -131 c 0
 261 -110 251 -96 228 -96 c 0
EndSplineSet
LCarets2: 1 0 
Colour: ff00ff
EndChar

StartChar: uni1E0A
Encoding: 7690 7690 139
Width: 697
VWidth: 999
Flags: HW
HStem: -2 34<19 54 193.238 414.496> 613 34<19 54 194.838 370.214> 697 96<256.332 335.668>
VStem: 106 81<39.3746 605.565> 248 96<705.332 784.668> 562 92<179.249 418.917>
LayerCount: 2
Fore
SplineSet
248 745 m 0
 248 771 270 793 296 793 c 0
 322 793 344 771 344 745 c 0
 344 719 322 697 296 697 c 0
 270 697 248 719 248 745 c 0
17 18 m 2
 17 23 20 27 24 27 c 2
 54 29 l 2
 89 31 106 42 106 74 c 2
 106 572 l 2
 106 608 95 613 54 616 c 2
 26 618 l 2
 21 618 17 621 17 626 c 2
 17 645 l 1
 19 647 l 1
 66 646 107 645 146 645 c 0
 186 645 245 647 309 647 c 0
 501 647 654 494 654 308 c 0
 654 62 468 -2 327 -2 c 0
 224 -2 185 0 146 0 c 0
 106 0 66 -1 19 -2 c 1
 17 0 l 1
 17 18 l 2
187 73 m 2
 187 41 198 32 296 32 c 0
 437 32 562 82 562 284 c 0
 562 438 487 613 271 613 c 0
 222 613 187 609 187 574 c 2
 187 73 l 2
EndSplineSet
LCarets2: 1 0 
Colour: ff00ff
EndChar

StartChar: uni1E0B
Encoding: 7691 7691 140
Width: 503
VWidth: 999
Flags: HW
HStem: -10 47<180.902 274.468> 404 35<185.076 305.022> 523 96<141.332 220.668> 678 20<395.466 412.5>
VStem: 39 85<106.314 313> 133 96<531.332 610.668> 343 75<78.2465 372.939 417 639.899>
LayerCount: 2
Fore
SplineSet
133 571 m 0
 133 597 155 619 181 619 c 0
 207 619 229 597 229 571 c 0
 229 545 207 523 181 523 c 0
 155 523 133 545 133 571 c 0
343 94 m 1
 343 345 l 1
 319 383 292 404 245 404 c 0
 225 404 183 401 152 354 c 0
 137 333 124 293 124 221 c 0
 124 96 179 37 233 37 c 0
 259 37 298 58 343 94 c 1
418 583 m 2
 418 116 l 2
 418 66 422 60 443 58 c 2
 491 53 l 1
 494 30 l 1
 432 19 388 6 366 -12 c 1
 343 -12 l 1
 345 58 l 1
 343 59 l 1
 297 22 247 -10 207 -10 c 0
 99 -10 39 80 39 203 c 0
 39 277 63 336 106 379 c 1
 146 417 190 439 256 439 c 0
 276 439 320 430 343 417 c 1
 343 563 l 2
 343 628 333 641 313 641 c 1
 281 643 l 2
 278 643 275 645 275 648 c 2
 273 672 l 1
 314 675 383 688 408 698 c 1
 417 698 421 695 421 688 c 2
 421 688 418 648 418 583 c 2
EndSplineSet
LCarets2: 1 0 
Colour: ff00ff
EndChar

StartChar: uni1E0C
Encoding: 7692 7692 141
Width: 697
VWidth: 999
Flags: HW
HStem: -163 96<250.332 329.668> -2 34<19 54 193.238 414.496> 613 34<19 54 194.838 370.214>
VStem: 106 81<39.3746 605.565> 242 96<-154.668 -75.332> 562 92<179.249 418.917>
LayerCount: 2
Fore
SplineSet
242 -115 m 0
 242 -89 264 -67 290 -67 c 0
 316 -67 338 -89 338 -115 c 0
 338 -141 316 -163 290 -163 c 0
 264 -163 242 -141 242 -115 c 0
17 18 m 2
 17 23 20 27 24 27 c 2
 54 29 l 2
 89 31 106 42 106 74 c 2
 106 572 l 2
 106 608 95 613 54 616 c 2
 26 618 l 2
 21 618 17 621 17 626 c 2
 17 645 l 1
 19 647 l 1
 66 646 107 645 146 645 c 0
 186 645 245 647 309 647 c 0
 501 647 654 494 654 308 c 0
 654 62 468 -2 327 -2 c 0
 224 -2 185 0 146 0 c 0
 106 0 66 -1 19 -2 c 1
 17 0 l 1
 17 18 l 2
187 73 m 2
 187 41 198 32 296 32 c 0
 437 32 562 82 562 284 c 0
 562 438 487 613 271 613 c 0
 222 613 187 609 187 574 c 2
 187 73 l 2
EndSplineSet
LCarets2: 1 0 
Colour: ff00ff
EndChar

StartChar: uni1E0D
Encoding: 7693 7693 142
Width: 503
VWidth: 999
Flags: HW
HStem: -163 96<195.332 274.668> -10 47<180.902 274.468> 404 35<185.076 305.022> 678 20<395.466 412.5>
VStem: 39 85<106.314 313> 187 96<-154.668 -75.332> 343 75<78.2465 372.939 417 639.899>
LayerCount: 2
Fore
SplineSet
187 -115 m 0
 187 -89 209 -67 235 -67 c 0
 261 -67 283 -89 283 -115 c 0
 283 -141 261 -163 235 -163 c 0
 209 -163 187 -141 187 -115 c 0
343 94 m 1
 343 345 l 1
 319 383 292 404 245 404 c 0
 225 404 183 401 152 354 c 0
 137 333 124 293 124 221 c 0
 124 96 179 37 233 37 c 0
 259 37 298 58 343 94 c 1
418 583 m 2
 418 116 l 2
 418 66 422 60 443 58 c 2
 491 53 l 1
 494 30 l 1
 432 19 388 6 366 -12 c 1
 343 -12 l 1
 345 58 l 1
 343 59 l 1
 297 22 247 -10 207 -10 c 0
 99 -10 39 80 39 203 c 0
 39 277 63 336 106 379 c 1
 146 417 190 439 256 439 c 0
 276 439 320 430 343 417 c 1
 343 563 l 2
 343 628 333 641 313 641 c 1
 281 643 l 2
 278 643 275 645 275 648 c 2
 273 672 l 1
 314 675 383 688 408 698 c 1
 417 698 421 695 421 688 c 2
 421 688 418 648 418 583 c 2
EndSplineSet
LCarets2: 1 0 
Colour: ff00ff
EndChar

StartChar: uni1E0E
Encoding: 7694 7694 143
Width: 697
VWidth: 999
Flags: HW
HStem: -105 44<144 155 155 422> -2 34<19 54 193.238 414.496> 613 34<19 54 194.838 370.214>
VStem: 106 81<39.3746 605.565> 562 92<179.249 418.917>
LayerCount: 2
Fore
SplineSet
400 -105 m 2
 155 -105 l 2
 147 -105 143 -97 143 -90 c 0
 143 -78 153 -61 165 -61 c 2
 410 -61 l 2
 419 -61 423 -68 423 -75 c 0
 423 -87 413 -105 400 -105 c 2
17 18 m 2
 17 23 20 27 24 27 c 2
 54 29 l 2
 89 31 106 42 106 74 c 2
 106 572 l 2
 106 608 95 613 54 616 c 2
 26 618 l 2
 21 618 17 621 17 626 c 2
 17 645 l 1
 19 647 l 1
 66 646 107 645 146 645 c 0
 186 645 245 647 309 647 c 0
 501 647 654 494 654 308 c 0
 654 62 468 -2 327 -2 c 0
 224 -2 185 0 146 0 c 0
 106 0 66 -1 19 -2 c 1
 17 0 l 1
 17 18 l 2
187 73 m 2
 187 41 198 32 296 32 c 0
 437 32 562 82 562 284 c 0
 562 438 487 613 271 613 c 0
 222 613 187 609 187 574 c 2
 187 73 l 2
EndSplineSet
LCarets2: 1 0 
Colour: ff00ff
EndChar

StartChar: uni1E0F
Encoding: 7695 7695 144
Width: 503
VWidth: 999
Flags: HW
HStem: -109 44<95 106 106 373> -10 47<180.902 274.468> 404 35<185.076 305.022> 678 20<395.466 412.5>
VStem: 39 85<106.314 313> 343 75<78.2465 372.939 417 639.899>
LayerCount: 2
Fore
SplineSet
351 -109 m 2
 106 -109 l 2
 98 -109 94 -101 94 -94 c 0
 94 -82 104 -65 116 -65 c 2
 361 -65 l 2
 370 -65 374 -72 374 -79 c 0
 374 -91 364 -109 351 -109 c 2
343 94 m 1
 343 345 l 1
 319 383 292 404 245 404 c 0
 225 404 183 401 152 354 c 0
 137 333 124 293 124 221 c 0
 124 96 179 37 233 37 c 0
 259 37 298 58 343 94 c 1
418 583 m 2
 418 116 l 2
 418 66 422 60 443 58 c 2
 491 53 l 1
 494 30 l 1
 432 19 388 6 366 -12 c 1
 343 -12 l 1
 345 58 l 1
 343 59 l 1
 297 22 247 -10 207 -10 c 0
 99 -10 39 80 39 203 c 0
 39 277 63 336 106 379 c 1
 146 417 190 439 256 439 c 0
 276 439 320 430 343 417 c 1
 343 563 l 2
 343 628 333 641 313 641 c 1
 281 643 l 2
 278 643 275 645 275 648 c 2
 273 672 l 1
 314 675 383 688 408 698 c 1
 417 698 421 695 421 688 c 2
 421 688 418 648 418 583 c 2
EndSplineSet
LCarets2: 1 0 
Colour: ff00ff
EndChar

StartChar: uni1E10
Encoding: 7696 7696 145
Width: 697
VWidth: 999
Flags: HW
HStem: -200 29<107.047 207.231> -96 32<182.31 212.355> -2 34<19 54 193.238 414.496> 613 34<19 54 194.838 370.214>
VStem: 106 81<39.3746 605.565> 217 62<-165.259 -97.4563> 562 92<179.249 418.917>
DStem2: 133 -96 182 -67 0.384615 0.923077<45.6154 104>
LayerCount: 2
Fore
SplineSet
184 -96 m 0
 165 -96 155 -97 139 -102 c 1
 133 -96 l 1
 173 -0 l 1
 163 -0 155 0 146 0 c 0
 106 0 66 -1 19 -2 c 1
 17 0 l 1
 17 18 l 2
 17 23 20 27 24 27 c 2
 54 29 l 2
 89 31 106 42 106 74 c 2
 106 572 l 2
 106 608 95 613 54 616 c 2
 26 618 l 2
 21 618 17 621 17 626 c 2
 17 645 l 1
 19 647 l 1
 66 646 107 645 146 645 c 0
 186 645 245 647 309 647 c 0
 501 647 654 494 654 308 c 0
 654 62 468 -2 327 -2 c 0
 272 -2 235 -1 207 -1 c 1
 182 -67 l 1
 190 -65 199 -64 208 -64 c 0
 248 -64 279 -88 279 -126 c 0
 279 -169 233 -200 172 -200 c 0
 140 -200 123 -194 98 -183 c 1
 98 -171 101 -164 108 -157 c 1
 135 -167 146 -171 166 -171 c 0
 196 -171 217 -157 217 -131 c 0
 217 -110 207 -96 184 -96 c 0
187 73 m 2
 187 41 198 32 296 32 c 0
 437 32 562 82 562 284 c 0
 562 438 487 613 271 613 c 0
 222 613 187 609 187 574 c 2
 187 73 l 2
EndSplineSet
LCarets2: 1 0 
Colour: ff00ff
EndChar

StartChar: uni1E11
Encoding: 7697 7697 146
Width: 503
VWidth: 999
Flags: HW
HStem: -200 29<135.047 235.231> -96 32<210.31 240.355> -10 47<180.902 274.468> 404 35<185.076 305.022> 678 20<395.466 412.5>
VStem: 39 85<106.314 313> 245 62<-165.259 -97.4563> 343 75<78.2465 372.939 417 639.899>
DStem2: 161 -96 210 -67 0.384615 0.923077<45.6154 104>
LayerCount: 2
Fore
SplineSet
212 -96 m 0
 193 -96 183 -97 167 -102 c 1
 161 -96 l 1
 197 -10 l 1
 95 -4 39 84 39 203 c 0
 39 277 63 336 106 379 c 1
 146 417 190 439 256 439 c 0
 276 439 320 430 343 417 c 1
 343 563 l 2
 343 628 333 641 313 641 c 1
 281 643 l 2
 278 643 275 645 275 648 c 2
 273 672 l 1
 314 675 383 688 408 698 c 1
 417 698 421 695 421 688 c 2
 421 688 418 648 418 583 c 2
 418 116 l 2
 418 66 422 60 443 58 c 2
 491 53 l 1
 494 30 l 1
 432 19 388 6 366 -12 c 1
 343 -12 l 1
 345 58 l 1
 343 59 l 1
 306 30 267 3 233 -6 c 1
 210 -67 l 1
 218 -65 227 -64 236 -64 c 0
 276 -64 307 -88 307 -126 c 0
 307 -169 261 -200 200 -200 c 0
 168 -200 151 -194 126 -183 c 1
 126 -171 129 -164 136 -157 c 1
 163 -167 174 -171 194 -171 c 0
 224 -171 245 -157 245 -131 c 0
 245 -110 235 -96 212 -96 c 0
343 94 m 1
 343 345 l 1
 319 383 292 404 245 404 c 0
 225 404 183 401 152 354 c 0
 137 333 124 293 124 221 c 0
 124 96 179 37 233 37 c 0
 259 37 298 58 343 94 c 1
EndSplineSet
LCarets2: 1 0 
Colour: ff00ff
EndChar

StartChar: uni1E12
Encoding: 7698 7698 147
Width: 697
VWidth: 999
Flags: HW
HStem: -2 34<19 54 193.238 414.496> 613 34<19 54 194.838 370.214>
VStem: 106 81<39.3746 605.565> 140 253<-186 -186> 562 92<179.249 418.917>
LayerCount: 2
Fore
SplineSet
292 -57 m 1
 321 -104 357 -146 393 -186 c 1
 372 -200 l 1
 333 -171 300 -146 266 -110 c 1
 229 -148 197 -173 159 -200 c 1
 139 -186 l 1
 175 -146 213 -103 242 -57 c 1
 292 -57 l 1
17 18 m 2
 17 23 20 27 24 27 c 2
 54 29 l 2
 89 31 106 42 106 74 c 2
 106 572 l 2
 106 608 95 613 54 616 c 2
 26 618 l 2
 21 618 17 621 17 626 c 2
 17 645 l 1
 19 647 l 1
 66 646 107 645 146 645 c 0
 186 645 245 647 309 647 c 0
 501 647 654 494 654 308 c 0
 654 62 468 -2 327 -2 c 0
 224 -2 185 0 146 0 c 0
 106 0 66 -1 19 -2 c 1
 17 0 l 1
 17 18 l 2
187 73 m 2
 187 41 198 32 296 32 c 0
 437 32 562 82 562 284 c 0
 562 438 487 613 271 613 c 0
 222 613 187 609 187 574 c 2
 187 73 l 2
EndSplineSet
LCarets2: 1 0 
Colour: ff00ff
EndChar

StartChar: uni1E13
Encoding: 7699 7699 148
Width: 503
VWidth: 999
Flags: HW
HStem: -10 47<180.902 274.468> 404 35<185.076 305.022> 678 20<395.466 412.5>
VStem: 39 85<106.314 313> 89 253<-186 -186> 343 75<78.2465 372.939 417 639.899>
LayerCount: 2
Fore
SplineSet
241 -57 m 1
 270 -104 306 -146 342 -186 c 1
 321 -200 l 1
 282 -171 249 -146 215 -110 c 1
 178 -148 146 -173 108 -200 c 1
 88 -186 l 1
 124 -146 162 -103 191 -57 c 1
 241 -57 l 1
343 94 m 1
 343 345 l 1
 319 383 292 404 245 404 c 0
 225 404 183 401 152 354 c 0
 137 333 124 293 124 221 c 0
 124 96 179 37 233 37 c 0
 259 37 298 58 343 94 c 1
418 583 m 2
 418 116 l 2
 418 66 422 60 443 58 c 2
 491 53 l 1
 494 30 l 1
 432 19 388 6 366 -12 c 1
 343 -12 l 1
 345 58 l 1
 343 59 l 1
 297 22 247 -10 207 -10 c 0
 99 -10 39 80 39 203 c 0
 39 277 63 336 106 379 c 1
 146 417 190 439 256 439 c 0
 276 439 320 430 343 417 c 1
 343 563 l 2
 343 628 333 641 313 641 c 1
 281 643 l 2
 278 643 275 645 275 648 c 2
 273 672 l 1
 314 675 383 688 408 698 c 1
 417 698 421 695 421 688 c 2
 421 688 418 648 418 583 c 2
EndSplineSet
LCarets2: 1 0 
Colour: ff00ff
EndChar

StartChar: uni1E14
Encoding: 7700 7700 149
Width: 549
VWidth: 999
Flags: HW
HStem: -2 29<14 50> 0 39<183.683 419.99> 323 38<182 352.245> 416 20<367 392.5> 605 40<183.485 390.274> 618 28<14 50> 733 44<164.088 442.515>
VStem: 101 81<40.3443 323 361 603.225> 163 281<733.205 777> 361 34<252 316.054 403 436> 438 29<499.793 534.346> 489 31<128.12 166.129>
LayerCount: 2
Fore
SplineSet
420 733 m 2
 176 733 l 2
 167 733 163 741 163 748 c 0
 163 760 174 777 185 777 c 2
 430 777 l 2
 440 777 444 769 444 763 c 0
 444 751 433 733 420 733 c 2
445 646 m 0
 447 638 462 542 467 501 c 1
 438 496 l 1
 416 565 398 605 323 605 c 2
 218 605 l 2
 194 605 182 595 182 571 c 2
 182 361 l 1
 309 361 l 2
 344 361 356 375 359 403 c 2
 362 428 l 2
 362 432 365 436 369 436 c 2
 391 436 l 1
 395 432 l 1
 392 392 391 362 391 342 c 0
 391 322 392 295 395 255 c 1
 391 252 l 1
 369 252 l 2
 364 252 362 257 362 260 c 2
 359 285 l 2
 356 314 343 323 309 323 c 2
 182 323 l 1
 182 72 l 2
 182 45 196 39 218 39 c 2
 354 39 l 2
 430 39 469 98 489 170 c 1
 520 165 l 1
 508 113 494 50 483 -2 c 1
 483 -2 403 0 355 0 c 2
 141 0 l 2
 102 0 61 -1 14 -2 c 1
 12 0 l 1
 12 20 l 2
 12 23 14 27 20 27 c 2
 50 29 l 2
 89 32 101 44 101 72 c 2
 101 571 l 2
 101 602 88 613 50 616 c 2
 20 618 l 2
 13 618 12 622 12 625 c 2
 12 645 l 1
 14 647 l 1
 61 646 102 645 141 645 c 2
 394 645 l 2
 418 645 424 646 441 649 c 0
 444 649 445 648 445 646 c 0
21 831 m 1
 114 757 l 2
 123 750 126 745 126 739 c 0
 126 732 120 725 114 725 c 0
 108 725 97 728 81 736 c 2
 -38 791 l 1
 -24 807 -5 821 21 831 c 1
EndSplineSet
LCarets2: 1 0 
Colour: ff00ff
EndChar

StartChar: uni1E15
Encoding: 7701 7701 150
Width: 427
VWidth: 999
Flags: HW
HStem: -10 49<195.372 321.672> 248 39<117 314.997> 405 34<173.337 282.104> 538 44<91.0876 369.515>
VStem: 34 80<137.009 248> 90 281<538.205 582> 315 80<259.5 367.016>
LayerCount: 2
Fore
SplineSet
212 765 m 1
 268 652 l 2
 272 643 273 636 273 630 c 0
 273 626 267 620 261 620 c 0
 256 620 251 625 238 638 c 2
 147 736 l 1
 148 746 l 1
 155 752 173 767 200 767 c 0
 204 767 209 766 212 765 c 1
347 538 m 2
 103 538 l 2
 94 538 90 546 90 553 c 0
 90 565 101 582 112 582 c 2
 357 582 l 2
 367 582 371 574 371 568 c 0
 371 556 360 538 347 538 c 2
117 287 m 1
 301 287 l 2
 311 287 315 292 315 301 c 0
 315 385 268 405 232 405 c 0
 209 405 135 400 117 287 c 1
381 95 m 1
 392 94 398 89 401 79 c 1
 363 27 304 -10 232 -10 c 0
 95 -10 34 84 34 199 c 0
 34 351 137 439 232 439 c 0
 364 439 395 349 395 265 c 0
 395 254 388 248 377 248 c 2
 114 248 l 1
 114 99 200 39 256 39 c 0
 311 39 346 57 381 95 c 1
EndSplineSet
LCarets2: 1 0 
Colour: ff00ff
EndChar

StartChar: uni1E16
Encoding: 7702 7702 151
Width: 549
VWidth: 999
Flags: HW
HStem: -2 29<14 50> 0 39<183.683 419.99> 323 38<182 352.245> 416 20<367 392.5> 605 40<183.485 390.274> 618 28<14 50> 724 107 733 44<107.088 385.515>
VStem: 101 81<40.3443 323 361 603.225> 106 281<733.205 777> 361 34<252 316.054 403 436> 428 155 438 29<499.793 534.346> 489 31<128.12 166.129>
LayerCount: 2
Fore
SplineSet
363 733 m 2
 119 733 l 2
 110 733 106 741 106 748 c 0
 106 760 117 777 128 777 c 2
 373 777 l 2
 383 777 387 769 387 763 c 0
 387 751 376 733 363 733 c 2
445 646 m 0
 447 638 462 542 467 501 c 1
 438 496 l 1
 416 565 398 605 323 605 c 2
 218 605 l 2
 194 605 182 595 182 571 c 2
 182 361 l 1
 309 361 l 2
 344 361 356 375 359 403 c 2
 362 428 l 2
 362 432 365 436 369 436 c 2
 391 436 l 1
 395 432 l 1
 392 392 391 362 391 342 c 0
 391 322 392 295 395 255 c 1
 391 252 l 1
 369 252 l 2
 364 252 362 257 362 260 c 2
 359 285 l 2
 356 314 343 323 309 323 c 2
 182 323 l 1
 182 72 l 2
 182 45 196 39 218 39 c 2
 354 39 l 2
 430 39 469 98 489 170 c 1
 520 165 l 1
 508 113 494 50 483 -2 c 1
 483 -2 403 0 355 0 c 2
 141 0 l 2
 102 0 61 -1 14 -2 c 1
 12 0 l 1
 12 20 l 2
 12 23 14 27 20 27 c 2
 50 29 l 2
 89 32 101 44 101 72 c 2
 101 571 l 2
 101 602 88 613 50 616 c 2
 20 618 l 2
 13 618 12 622 12 625 c 2
 12 645 l 1
 14 647 l 1
 61 646 102 645 141 645 c 2
 394 645 l 2
 418 645 424 646 441 649 c 0
 444 649 445 648 445 646 c 0
535 831 m 1
 557 819 573 805 583 786 c 1
 472 735 l 2
 456 727 447 724 440 724 c 0
 433 724 428 731 428 738 c 0
 428 744 430 748 440 756 c 2
 535 831 l 1
EndSplineSet
LCarets2: 1 0 
Colour: ff00ff
EndChar

StartChar: uni1E17
Encoding: 7703 7703 152
Width: 427
VWidth: 999
Flags: HW
HStem: -10 49<195.372 321.672> 248 39<117 314.997> 405 34<173.337 282.104> 538 44<91.0876 369.515>
VStem: 34 80<137.009 248> 90 281<538.205 582> 315 80<259.5 367.016>
LayerCount: 2
Fore
SplineSet
264 759 m 1
 267 760 272 761 276 761 c 0
 281 761 301 760 320 740 c 1
 322 730 l 1
 230 632 l 2
 218 619 212 615 206 615 c 0
 200 615 195 621 195 627 c 0
 195 637 197 641 204 652 c 2
 264 759 l 1
347 538 m 2
 103 538 l 2
 94 538 90 546 90 553 c 0
 90 565 101 582 112 582 c 2
 357 582 l 2
 367 582 371 574 371 568 c 0
 371 556 360 538 347 538 c 2
117 287 m 1
 301 287 l 2
 311 287 315 292 315 301 c 0
 315 385 268 405 232 405 c 0
 209 405 135 400 117 287 c 1
381 95 m 1
 392 94 398 89 401 79 c 1
 363 27 304 -10 232 -10 c 0
 95 -10 34 84 34 199 c 0
 34 351 137 439 232 439 c 0
 364 439 395 349 395 265 c 0
 395 254 388 248 377 248 c 2
 114 248 l 1
 114 99 200 39 256 39 c 0
 311 39 346 57 381 95 c 1
EndSplineSet
LCarets2: 1 0 
Colour: ff00ff
EndChar

StartChar: uni1E18
Encoding: 7704 7704 153
Width: 549
VWidth: 999
Flags: HW
HStem: -2 29<14 50> 0 39<183.683 419.99> 323 38<182 352.245> 416 20<367 392.5> 605 40<183.485 390.274> 618 28<14 50>
VStem: 101 81<40.3443 323 361 603.225> 148 253<-186 -186> 361 34<252 316.054 403 436> 438 29<499.793 534.346> 489 31<128.12 166.129>
LayerCount: 2
Fore
SplineSet
300 -57 m 1
 329 -104 365 -146 401 -186 c 1
 380 -200 l 1
 341 -171 308 -146 274 -110 c 1
 237 -148 205 -173 167 -200 c 1
 147 -186 l 1
 183 -146 221 -103 250 -57 c 1
 300 -57 l 1
445 646 m 0
 447 638 462 542 467 501 c 1
 438 496 l 1
 416 565 398 605 323 605 c 2
 218 605 l 2
 194 605 182 595 182 571 c 2
 182 361 l 1
 309 361 l 2
 344 361 356 375 359 403 c 2
 362 428 l 2
 362 432 365 436 369 436 c 2
 391 436 l 1
 395 432 l 1
 392 392 391 362 391 342 c 0
 391 322 392 295 395 255 c 1
 391 252 l 1
 369 252 l 2
 364 252 362 257 362 260 c 2
 359 285 l 2
 356 314 343 323 309 323 c 2
 182 323 l 1
 182 72 l 2
 182 45 196 39 218 39 c 2
 354 39 l 2
 430 39 469 98 489 170 c 1
 520 165 l 1
 508 113 494 50 483 -2 c 1
 483 -2 403 0 355 0 c 2
 141 0 l 2
 102 0 61 -1 14 -2 c 1
 12 0 l 1
 12 20 l 2
 12 23 14 27 20 27 c 2
 50 29 l 2
 89 32 101 44 101 72 c 2
 101 571 l 2
 101 602 88 613 50 616 c 2
 20 618 l 2
 13 618 12 622 12 625 c 2
 12 645 l 1
 14 647 l 1
 61 646 102 645 141 645 c 2
 394 645 l 2
 418 645 424 646 441 649 c 0
 444 649 445 648 445 646 c 0
EndSplineSet
LCarets2: 1 0 
Colour: ff00ff
EndChar

StartChar: uni1E19
Encoding: 7705 7705 154
Width: 427
VWidth: 999
Flags: HW
HStem: -10 49<195.372 321.672> 248 39<117 314.997> 405 34<173.337 282.104>
VStem: 34 80<137.009 248> 95 253<-186 -186> 315 80<259.5 367.016>
LayerCount: 2
Fore
SplineSet
247 -57 m 1
 276 -104 312 -146 348 -186 c 1
 327 -200 l 1
 288 -171 255 -146 221 -110 c 1
 184 -148 152 -173 114 -200 c 1
 94 -186 l 1
 130 -146 168 -103 197 -57 c 1
 247 -57 l 1
117 287 m 1
 301 287 l 2
 311 287 315 292 315 301 c 0
 315 385 268 405 232 405 c 0
 209 405 135 400 117 287 c 1
381 95 m 1
 392 94 398 89 401 79 c 1
 363 27 304 -10 232 -10 c 0
 95 -10 34 84 34 199 c 0
 34 351 137 439 232 439 c 0
 364 439 395 349 395 265 c 0
 395 254 388 248 377 248 c 2
 114 248 l 1
 114 99 200 39 256 39 c 0
 311 39 346 57 381 95 c 1
EndSplineSet
LCarets2: 1 0 
Colour: ff00ff
EndChar

StartChar: uni1E1A
Encoding: 7706 7706 155
Width: 549
VWidth: 999
Flags: HW
HStem: -164 44<285 372> -116 46<167 258> -77 10 -2 29<14 50> 0 39<183.683 419.99> 323 38<182 352.245> 416 20<367 392.5> 605 40<183.485 390.274> 618 28<14 50>
VStem: 101 81<40.3443 323 361 603.225> 361 34<252 316.054 403 436> 438 29<499.793 534.346> 489 31<128.12 166.129>
LayerCount: 2
Fore
SplineSet
336 -120 m 0
 358 -120 372 -110 386 -68 c 1
 410 -74 l 1
 398 -134 369 -164 323 -164 c 0
 301 -164 280 -152 259 -138 c 0
 241 -127 222 -116 205 -116 c 0
 179 -116 166 -131 156 -164 c 1
 132 -159 l 1
 146 -100 169 -70 212 -70 c 0
 242 -70 264 -84 284 -98 c 0
 300 -110 317 -120 336 -120 c 0
445 646 m 0
 447 638 462 542 467 501 c 1
 438 496 l 1
 416 565 398 605 323 605 c 2
 218 605 l 2
 194 605 182 595 182 571 c 2
 182 361 l 1
 309 361 l 2
 344 361 356 375 359 403 c 2
 362 428 l 2
 362 432 365 436 369 436 c 2
 391 436 l 1
 395 432 l 1
 392 392 391 362 391 342 c 0
 391 322 392 295 395 255 c 1
 391 252 l 1
 369 252 l 2
 364 252 362 257 362 260 c 2
 359 285 l 2
 356 314 343 323 309 323 c 2
 182 323 l 1
 182 72 l 2
 182 45 196 39 218 39 c 2
 354 39 l 2
 430 39 469 98 489 170 c 1
 520 165 l 1
 508 113 494 50 483 -2 c 1
 483 -2 403 0 355 0 c 2
 141 0 l 2
 102 0 61 -1 14 -2 c 1
 12 0 l 1
 12 20 l 2
 12 23 14 27 20 27 c 2
 50 29 l 2
 89 32 101 44 101 72 c 2
 101 571 l 2
 101 602 88 613 50 616 c 2
 20 618 l 2
 13 618 12 622 12 625 c 2
 12 645 l 1
 14 647 l 1
 61 646 102 645 141 645 c 2
 394 645 l 2
 418 645 424 646 441 649 c 0
 444 649 445 648 445 646 c 0
EndSplineSet
LCarets2: 1 0 
Colour: ff00ff
EndChar

StartChar: uni1E1B
Encoding: 7707 7707 156
Width: 427
VWidth: 999
Flags: HW
HStem: -162 44<237 324> -114 46<119 210> -75 10 -10 49<195.372 321.672> 248 39<117 314.997> 405 34<173.337 282.104>
VStem: 34 80<137.009 248> 315 80<259.5 367.016>
LayerCount: 2
Fore
SplineSet
288 -118 m 0
 310 -118 324 -108 338 -66 c 1
 362 -72 l 1
 350 -132 321 -162 275 -162 c 0
 253 -162 232 -150 211 -136 c 0
 193 -125 174 -114 157 -114 c 0
 131 -114 118 -129 108 -162 c 1
 84 -157 l 1
 98 -98 121 -68 164 -68 c 0
 194 -68 216 -82 236 -96 c 0
 252 -108 269 -118 288 -118 c 0
117 287 m 1
 301 287 l 2
 311 287 315 292 315 301 c 0
 315 385 268 405 232 405 c 0
 209 405 135 400 117 287 c 1
381 95 m 1
 392 94 398 89 401 79 c 1
 363 27 304 -10 232 -10 c 0
 95 -10 34 84 34 199 c 0
 34 351 137 439 232 439 c 0
 364 439 395 349 395 265 c 0
 395 254 388 248 377 248 c 2
 114 248 l 1
 114 99 200 39 256 39 c 0
 311 39 346 57 381 95 c 1
EndSplineSet
LCarets2: 1 0 
Colour: ff00ff
EndChar

StartChar: uni1E1C
Encoding: 7708 7708 157
Width: 549
VWidth: 999
Flags: HW
HStem: -200 29<179.047 279.231> -96 32<254.31 284.355> -2 29<14 50> 0 39<183.683 419.99> 323 38<182 352.245> 416 20<367 392.5> 605 40<183.485 390.274> 618 28<14 50> 692 52<221 377>
VStem: 101 81<40.3443 323 361 603.225> 164 28<765 803> 289 62<-165.259 -97.4563> 361 34<252 316.054 403 436> 408 27<767 805> 438 29<499.793 534.346> 489 31<128.12 166.129>
DStem2: 205 -96 254 -67 0.384615 0.923077<45.6154 104>
LayerCount: 2
Fore
SplineSet
436 805 m 1
 430 734 366 692 300 692 c 0
 227 692 169 735 164 805 c 1
 192 805 l 1
 200 766 247 744 300 744 c 0
 349 744 401 766 408 805 c 1
 436 805 l 1
256 -96 m 0
 237 -96 227 -97 211 -102 c 1
 205 -96 l 1
 245 0 l 1
 141 0 l 2
 102 0 61 -1 14 -2 c 1
 12 0 l 1
 12 20 l 2
 12 23 14 27 20 27 c 2
 50 29 l 2
 89 32 101 44 101 72 c 2
 101 571 l 2
 101 602 88 613 50 616 c 2
 20 618 l 2
 13 618 12 622 12 625 c 2
 12 645 l 1
 14 647 l 1
 61 646 102 645 141 645 c 2
 394 645 l 2
 418 645 424 646 441 649 c 0
 444 649 445 648 445 646 c 0
 447 638 462 542 467 501 c 1
 438 496 l 1
 416 565 398 605 323 605 c 2
 218 605 l 2
 194 605 182 595 182 571 c 2
 182 361 l 1
 309 361 l 2
 344 361 356 375 359 403 c 2
 362 428 l 2
 362 432 365 436 369 436 c 2
 391 436 l 1
 395 432 l 1
 392 392 391 362 391 342 c 0
 391 322 392 295 395 255 c 1
 391 252 l 1
 369 252 l 2
 364 252 362 257 362 260 c 2
 359 285 l 2
 356 314 343 323 309 323 c 2
 182 323 l 1
 182 72 l 2
 182 45 196 39 218 39 c 2
 354 39 l 2
 430 39 469 98 489 170 c 1
 520 165 l 1
 508 113 494 50 483 -2 c 1
 483 -2 403 0 355 0 c 2
 279 0 l 1
 254 -67 l 1
 262 -65 271 -64 280 -64 c 0
 320 -64 351 -88 351 -126 c 0
 351 -169 305 -200 244 -200 c 0
 212 -200 195 -194 170 -183 c 1
 170 -171 173 -164 180 -157 c 1
 207 -167 218 -171 238 -171 c 0
 268 -171 289 -157 289 -131 c 0
 289 -110 279 -96 256 -96 c 0
EndSplineSet
LCarets2: 1 0 
Colour: ff00ff
EndChar

StartChar: uni1E1D
Encoding: 7709 7709 158
Width: 427
VWidth: 999
Flags: HW
HStem: -200 29<152.047 252.231> -96 32<227.31 257.355> -10 49<195.372 321.672> 248 39<117 314.997> 405 34<173.337 282.104> 501 57<150.968 287.898>
VStem: 34 80<137.009 248> 85 26<607.805 639.769> 262 62<-165.259 -97.4563> 315 80<259.5 367.016> 328 27<609.333 639.63>
DStem2: 178 -96 227 -67 0.384615 0.923077<45.6154 104>
LayerCount: 2
Fore
SplineSet
112 648 m 1
 123 595 166 558 220 558 c 0
 272 558 318 590 328 648 c 1
 355 636 l 1
 343 550 279 501 220 501 c 0
 150 501 99 551 85 636 c 1
 112 648 l 1
229 -96 m 0
 210 -96 200 -97 184 -102 c 1
 178 -96 l 1
 214 -9 l 1
 90 -2 34 89 34 199 c 0
 34 351 137 439 232 439 c 0
 364 439 395 349 395 265 c 0
 395 254 388 248 377 248 c 2
 114 248 l 1
 114 99 200 39 256 39 c 0
 311 39 346 57 381 95 c 1
 392 94 398 89 401 79 c 1
 366 31 313 -4 249 -9 c 1
 227 -67 l 1
 235 -65 244 -64 253 -64 c 0
 293 -64 324 -88 324 -126 c 0
 324 -169 278 -200 217 -200 c 0
 185 -200 168 -194 143 -183 c 1
 143 -171 146 -164 153 -157 c 1
 180 -167 191 -171 211 -171 c 0
 241 -171 262 -157 262 -131 c 0
 262 -110 252 -96 229 -96 c 0
117 287 m 1
 301 287 l 2
 311 287 315 292 315 301 c 0
 315 385 268 405 232 405 c 0
 209 405 135 400 117 287 c 1
EndSplineSet
LCarets2: 1 0 
Colour: ff00ff
EndChar

StartChar: uni1E1E
Encoding: 7710 7710 159
Width: 477
VWidth: 999
Flags: HW
HStem: -2 29<15 47 237 270> 323 38<182 352.245> 416 20<367 392.5> 605 40<183.485 390.274> 618 28<14 50> 704 96<245.332 324.668>
VStem: 101 81<35.9118 323 361 603.225> 237 96<712.332 791.668> 361 34<252 316.054 403 436> 438 29<499.793 534.346>
LayerCount: 2
Fore
SplineSet
237 752 m 0
 237 778 259 800 285 800 c 0
 311 800 333 778 333 752 c 0
 333 726 311 704 285 704 c 0
 259 704 237 726 237 752 c 0
309 323 m 2
 182 323 l 1
 182 74 l 2
 182 43 197 32 237 29 c 2
 263 27 l 2
 268 27 271 24 271 19 c 2
 271 0 l 1
 269 -2 l 1
 222 -1 181 0 141 0 c 0
 102 0 62 -1 15 -2 c 1
 13 0 l 1
 13 19 l 2
 13 24 16 27 21 27 c 2
 47 29 l 2
 90 32 101 46 101 74 c 2
 101 571 l 2
 101 602 88 613 50 616 c 2
 20 618 l 2
 13 618 12 622 12 625 c 2
 12 645 l 1
 14 647 l 1
 61 646 102 645 141 645 c 2
 394 645 l 2
 418 645 424 646 441 649 c 0
 444 649 445 648 445 646 c 0
 447 638 462 542 467 501 c 1
 438 496 l 1
 416 565 398 605 323 605 c 2
 218 605 l 2
 194 605 182 595 182 571 c 2
 182 361 l 1
 309 361 l 2
 344 361 356 375 359 403 c 2
 362 428 l 2
 362 432 365 436 369 436 c 2
 391 436 l 1
 395 432 l 1
 392 392 391 362 391 342 c 0
 391 322 392 295 395 255 c 1
 391 252 l 1
 369 252 l 2
 364 252 362 257 362 260 c 2
 359 285 l 2
 356 314 343 323 309 323 c 2
EndSplineSet
LCarets2: 1 0 
Colour: ff00ff
EndChar

StartChar: uni1E1F
Encoding: 7711 7711 160
Width: 308
VWidth: 999
Flags: HW
HStem: -2 29<28 53 214 253> 390 39<22.0149 96 171 289> 664 34<211.957 296.231> 736 96<214.332 293.668>
VStem: 96 75<32.84 390 429 583.188> 206 96<744.332 823.668>
LayerCount: 2
Fore
SplineSet
206 784 m 0
 206 810 228 832 254 832 c 0
 280 832 302 810 302 784 c 0
 302 758 280 736 254 736 c 0
 228 736 206 758 206 784 c 0
96 72 m 2
 96 390 l 1
 27 390 l 2
 23 390 22 391 22 396 c 2
 22 409 l 2
 22 417 27 429 45 429 c 2
 96 429 l 1
 96 469 l 2
 96 625 187 698 271 698 c 0
 309 698 335 691 360 674 c 1
 380 659 389 642 389 626 c 0
 389 605 374 590 355 590 c 0
 335 590 322 601 314 618 c 1
 301 651 282 664 252 664 c 0
 219 664 171 640 171 486 c 2
 171 429 l 1
 281 429 l 2
 286 429 289 427 289 423 c 2
 289 403 l 2
 289 394 275 390 266 390 c 2
 171 390 l 1
 171 72 l 2
 171 43 181 31 214 29 c 2
 247 27 l 2
 251 27 255 24 255 19 c 2
 255 0 l 1
 253 -2 l 1
 203 -1 180 0 134 0 c 0
 93 0 78 -1 28 -2 c 1
 26 0 l 1
 26 19 l 2
 26 24 29 26 34 27 c 2
 53 29 l 2
 88 33 96 43 96 72 c 2
EndSplineSet
LCarets2: 1 0 
Colour: ff00ff
EndChar

StartChar: uni1E20
Encoding: 7712 7712 161
Width: 693
VWidth: 999
Flags: HW
HStem: -10 36<299.692 489.453> 271 36<453 485 626.062 672> 621 37<278.364 463.377> 733 44<227.088 505.515>
VStem: 32 87<215.673 431.42> 226 281<733.205 777> 540 81<83.4212 262.951> 585 30<457.6 492.683>
LayerCount: 2
Fore
SplineSet
483 733 m 2
 239 733 l 2
 230 733 226 741 226 748 c 0
 226 760 237 777 248 777 c 2
 493 777 l 2
 503 777 507 769 507 763 c 0
 507 751 496 733 483 733 c 2
375 658 m 0
 497 658 533 613 593 613 c 1
 600 541 606 501 615 459 c 1
 585 453 l 1
 559 539 506 621 361 621 c 0
 226 621 119 502 119 327 c 0
 119 195 215 26 393 26 c 0
 447 26 506 42 540 74 c 1
 540 227 l 2
 540 258 525 266 485 269 c 2
 459 271 l 2
 455 271 451 274 451 279 c 2
 451 305 l 1
 453 307 l 1
 500 306 541 305 580 305 c 0
 620 305 642 306 672 307 c 1
 674 305 l 1
 674 279 l 2
 674 274 671 272 666 271 c 0
 637 268 621 262 621 227 c 2
 621 111 l 2
 621 100 626 92 637 83 c 1
 569 25 488 -10 370 -10 c 0
 169 -10 32 134 32 307 c 0
 32 527 203 658 375 658 c 0
EndSplineSet
LCarets2: 1 0 
Colour: ff00ff
EndChar

StartChar: uni1E21
Encoding: 7713 7713 162
Width: 479
VWidth: 999
Flags: HW
HStem: -238 37<152.298 302.696> -12 61<172.809 359.728> 136 31<175.133 272.366> 408 31<167.815 264.598> 538 44<102.088 380.515>
VStem: 32 66<-157.965 -57.3985> 59 78<210.052 363.612> 101 281<538.205 582> 308 76<209.75 368.749> 401 52<-133.448 -47.7496>
LayerCount: 2
Fore
SplineSet
358 538 m 2
 114 538 l 2
 105 538 101 546 101 553 c 0
 101 565 112 582 123 582 c 2
 368 582 l 2
 378 582 382 574 382 568 c 0
 382 556 371 538 358 538 c 2
308 279 m 0
 308 362 274 408 214 408 c 0
 162 408 137 372 137 302 c 0
 137 238 147 167 227 167 c 0
 262 167 308 186 308 279 c 0
128 -10 m 1
 100 -45 98 -70 98 -104 c 0
 98 -172 178 -201 212 -201 c 0
 298 -201 401 -163 401 -91 c 0
 401 -65 389 -51 352 -29 c 0
 324 -13 283 -12 235 -12 c 0
 221 -12 196 -15 166 -15 c 0
 154 -15 139 -13 128 -10 c 1
428 388 m 0
 412 388 402 397 398 405 c 1
 392 414 388 417 381 417 c 0
 369 417 350 403 343 393 c 1
 371 363 384 336 384 289 c 0
 384 191 306 136 222 136 c 0
 185 136 157 143 134 157 c 1
 123 140 117 119 117 99 c 0
 117 56 150 42 178 42 c 0
 183 42 193 43 207 44 c 0
 230 47 253 49 270 49 c 0
 305 49 373 48 411 16 c 0
 439 -8 453 -33 453 -65 c 0
 453 -173 313 -238 184 -238 c 0
 111 -238 32 -211 32 -124 c 0
 32 -81 59 -35 110 -3 c 1
 85 10 67 38 67 74 c 0
 67 108 82 151 109 175 c 1
 82 202 59 233 59 287 c 0
 59 379 138 439 223 439 c 0
 279 439 312 419 323 411 c 1
 348 445 393 462 418 462 c 0
 444 462 462 445 462 424 c 0
 462 402 448 388 428 388 c 0
EndSplineSet
LCarets2: 1 0 
Colour: ff00ff
EndChar

StartChar: uni1E22
Encoding: 7714 7714 163
Width: 700
VWidth: 999
Flags: HW
HStem: -2 29<20 52 242 274 427 459 649 682> 321 42<187 513> 618 29<19 52 242 274 426 459 649 681> 697 96<314.332 393.668>
VStem: 106 81<35.58 321 363 609.207> 306 96<705.332 784.668> 513 81<35.748 321 363 609.203>
LayerCount: 2
Fore
SplineSet
513 74 m 2
 513 321 l 1
 187 321 l 1
 187 72 l 2
 187 41 202 32 242 29 c 2
 268 27 l 2
 272 27 276 24 276 19 c 2
 276 0 l 1
 274 -2 l 1
 224 -1 196 0 146 0 c 0
 96 0 70 -1 20 -2 c 1
 18 0 l 1
 18 19 l 2
 18 24 21 27 25 27 c 2
 52 29 l 2
 93 32 106 44 106 72 c 2
 106 574 l 2
 106 604 90 613 52 616 c 2
 25 618 l 2
 21 618 17 621 17 626 c 2
 17 645 l 1
 19 647 l 1
 69 646 96 645 146 645 c 0
 196 645 224 646 274 647 c 1
 276 645 l 1
 276 626 l 2
 276 621 273 618 268 618 c 2
 242 616 l 2
 202 613 187 602 187 574 c 2
 187 363 l 1
 513 363 l 1
 513 574 l 2
 513 604 498 613 459 616 c 2
 433 618 l 2
 428 618 424 621 424 626 c 2
 424 645 l 1
 426 647 l 1
 476 646 504 645 554 645 c 0
 604 645 631 646 681 647 c 1
 683 645 l 1
 683 626 l 2
 683 621 680 618 675 618 c 2
 649 616 l 2
 609 613 594 602 594 574 c 2
 594 74 l 2
 594 43 608 32 649 29 c 2
 675 27 l 2
 680 27 684 24 684 19 c 2
 684 0 l 1
 682 -2 l 1
 632 -1 604 0 554 0 c 0
 504 0 477 -1 427 -2 c 1
 425 0 l 1
 425 19 l 2
 425 24 428 27 433 27 c 2
 459 29 l 2
 502 32 513 46 513 74 c 2
306 745 m 0
 306 771 328 793 354 793 c 0
 380 793 402 771 402 745 c 0
 402 719 380 697 354 697 c 0
 328 697 306 719 306 745 c 0
EndSplineSet
LCarets2: 1 0 
Colour: ff00ff
EndChar

StartChar: uni1E23
Encoding: 7715 7715 164
Width: 520
VWidth: 999
Flags: HW
HStem: -2 29<21 45 206 231 293 318 479 504> 392 47<245.141 344.739> 523 96<248.332 327.668> 678 20<140.465 157.5>
VStem: 88 75<33.5257 337.568 356 639.899> 240 96<531.332 610.668> 361 75<33.5163 375.24>
LayerCount: 2
Fore
SplineSet
240 571 m 0
 240 597 262 619 288 619 c 0
 314 619 336 597 336 571 c 0
 336 545 314 523 288 523 c 0
 262 523 240 545 240 571 c 0
163 583 m 2
 163 356 l 1
 230 423 289 439 328 439 c 0
 400 439 436 387 436 284 c 2
 436 72 l 2
 436 43 446 32 479 29 c 2
 498 27 l 2
 502 27 506 24 506 19 c 2
 506 0 l 1
 504 -2 l 1
 454 -1 438 0 397 0 c 0
 358 0 343 -1 293 -2 c 1
 291 0 l 1
 291 19 l 2
 291 24 294 26 299 27 c 2
 318 29 l 2
 352 33 361 43 361 72 c 2
 361 295 l 2
 361 376 339 392 283 392 c 0
 254 392 211 366 163 319 c 1
 163 72 l 2
 163 43 173 32 206 29 c 2
 225 27 l 2
 229 27 233 24 233 19 c 2
 233 0 l 1
 231 -2 l 1
 181 -1 165 0 124 0 c 0
 85 0 71 -1 21 -2 c 1
 19 0 l 1
 19 19 l 2
 19 24 21 26 26 27 c 2
 45 29 l 2
 79 33 88 43 88 72 c 2
 88 563 l 2
 88 628 78 641 58 641 c 1
 26 643 l 2
 23 643 20 645 20 648 c 2
 18 672 l 1
 58 675 128 688 153 698 c 1
 162 698 166 695 166 688 c 2
 166 688 163 648 163 583 c 2
EndSplineSet
LCarets2: 1 0 
Colour: ff00ff
EndChar

StartChar: uni1E24
Encoding: 7716 7716 165
Width: 700
VWidth: 999
Flags: HW
HStem: -163 96<314.332 393.668> -2 29<20 52 242 274 427 459 649 682> 321 42<187 513> 618 29<19 52 242 274 426 459 649 681>
VStem: 106 81<35.58 321 363 609.207> 306 96<-154.668 -75.332> 513 81<35.748 321 363 609.203>
LayerCount: 2
Fore
SplineSet
513 74 m 2
 513 321 l 1
 187 321 l 1
 187 72 l 2
 187 41 202 32 242 29 c 2
 268 27 l 2
 272 27 276 24 276 19 c 2
 276 0 l 1
 274 -2 l 1
 224 -1 196 0 146 0 c 0
 96 0 70 -1 20 -2 c 1
 18 0 l 1
 18 19 l 2
 18 24 21 27 25 27 c 2
 52 29 l 2
 93 32 106 44 106 72 c 2
 106 574 l 2
 106 604 90 613 52 616 c 2
 25 618 l 2
 21 618 17 621 17 626 c 2
 17 645 l 1
 19 647 l 1
 69 646 96 645 146 645 c 0
 196 645 224 646 274 647 c 1
 276 645 l 1
 276 626 l 2
 276 621 273 618 268 618 c 2
 242 616 l 2
 202 613 187 602 187 574 c 2
 187 363 l 1
 513 363 l 1
 513 574 l 2
 513 604 498 613 459 616 c 2
 433 618 l 2
 428 618 424 621 424 626 c 2
 424 645 l 1
 426 647 l 1
 476 646 504 645 554 645 c 0
 604 645 631 646 681 647 c 1
 683 645 l 1
 683 626 l 2
 683 621 680 618 675 618 c 2
 649 616 l 2
 609 613 594 602 594 574 c 2
 594 74 l 2
 594 43 608 32 649 29 c 2
 675 27 l 2
 680 27 684 24 684 19 c 2
 684 0 l 1
 682 -2 l 1
 632 -1 604 0 554 0 c 0
 504 0 477 -1 427 -2 c 1
 425 0 l 1
 425 19 l 2
 425 24 428 27 433 27 c 2
 459 29 l 2
 502 32 513 46 513 74 c 2
306 -115 m 0
 306 -89 328 -67 354 -67 c 0
 380 -67 402 -89 402 -115 c 0
 402 -141 380 -163 354 -163 c 0
 328 -163 306 -141 306 -115 c 0
EndSplineSet
LCarets2: 1 0 
Colour: ff00ff
EndChar

StartChar: uni1E25
Encoding: 7717 7717 166
Width: 520
VWidth: 999
Flags: HW
HStem: -164 96<220.332 299.668> -2 29<21 45 206 231 293 318 479 504> 392 47<245.141 344.739> 678 20<140.465 157.5>
VStem: 88 75<33.5257 337.568 356 639.899> 212 96<-155.668 -76.332> 361 75<33.5163 375.24>
LayerCount: 2
Fore
SplineSet
212 -116 m 0
 212 -90 234 -68 260 -68 c 0
 286 -68 308 -90 308 -116 c 0
 308 -142 286 -164 260 -164 c 0
 234 -164 212 -142 212 -116 c 0
163 583 m 2
 163 356 l 1
 230 423 289 439 328 439 c 0
 400 439 436 387 436 284 c 2
 436 72 l 2
 436 43 446 32 479 29 c 2
 498 27 l 2
 502 27 506 24 506 19 c 2
 506 0 l 1
 504 -2 l 1
 454 -1 438 0 397 0 c 0
 358 0 343 -1 293 -2 c 1
 291 0 l 1
 291 19 l 2
 291 24 294 26 299 27 c 2
 318 29 l 2
 352 33 361 43 361 72 c 2
 361 295 l 2
 361 376 339 392 283 392 c 0
 254 392 211 366 163 319 c 1
 163 72 l 2
 163 43 173 32 206 29 c 2
 225 27 l 2
 229 27 233 24 233 19 c 2
 233 0 l 1
 231 -2 l 1
 181 -1 165 0 124 0 c 0
 85 0 71 -1 21 -2 c 1
 19 0 l 1
 19 19 l 2
 19 24 21 26 26 27 c 2
 45 29 l 2
 79 33 88 43 88 72 c 2
 88 563 l 2
 88 628 78 641 58 641 c 1
 26 643 l 2
 23 643 20 645 20 648 c 2
 18 672 l 1
 58 675 128 688 153 698 c 1
 162 698 166 695 166 688 c 2
 166 688 163 648 163 583 c 2
EndSplineSet
LCarets2: 1 0 
Colour: ff00ff
EndChar

StartChar: uni1E26
Encoding: 7718 7718 167
Width: 700
VWidth: 999
Flags: HW
HStem: -2 29<20 52 242 274 427 459 649 682> 321 42<187 513> 618 29<19 52 242 274 426 459 649 681> 702 96<215.332 294.668 404.332 483.668>
VStem: 106 81<35.58 321 363 609.207> 207 96<710.332 789.668> 396 96<710.332 789.668> 513 81<35.748 321 363 609.203>
LayerCount: 2
Fore
SplineSet
513 74 m 2
 513 321 l 1
 187 321 l 1
 187 72 l 2
 187 41 202 32 242 29 c 2
 268 27 l 2
 272 27 276 24 276 19 c 2
 276 0 l 1
 274 -2 l 1
 224 -1 196 0 146 0 c 0
 96 0 70 -1 20 -2 c 1
 18 0 l 1
 18 19 l 2
 18 24 21 27 25 27 c 2
 52 29 l 2
 93 32 106 44 106 72 c 2
 106 574 l 2
 106 604 90 613 52 616 c 2
 25 618 l 2
 21 618 17 621 17 626 c 2
 17 645 l 1
 19 647 l 1
 69 646 96 645 146 645 c 0
 196 645 224 646 274 647 c 1
 276 645 l 1
 276 626 l 2
 276 621 273 618 268 618 c 2
 242 616 l 2
 202 613 187 602 187 574 c 2
 187 363 l 1
 513 363 l 1
 513 574 l 2
 513 604 498 613 459 616 c 2
 433 618 l 2
 428 618 424 621 424 626 c 2
 424 645 l 1
 426 647 l 1
 476 646 504 645 554 645 c 0
 604 645 631 646 681 647 c 1
 683 645 l 1
 683 626 l 2
 683 621 680 618 675 618 c 2
 649 616 l 2
 609 613 594 602 594 574 c 2
 594 74 l 2
 594 43 608 32 649 29 c 2
 675 27 l 2
 680 27 684 24 684 19 c 2
 684 0 l 1
 682 -2 l 1
 632 -1 604 0 554 0 c 0
 504 0 477 -1 427 -2 c 1
 425 0 l 1
 425 19 l 2
 425 24 428 27 433 27 c 2
 459 29 l 2
 502 32 513 46 513 74 c 2
396 750 m 0
 396 776 418 798 444 798 c 0
 470 798 492 776 492 750 c 0
 492 724 470 702 444 702 c 0
 418 702 396 724 396 750 c 0
207 750 m 0
 207 776 229 798 255 798 c 0
 281 798 303 776 303 750 c 0
 303 724 281 702 255 702 c 0
 229 702 207 724 207 750 c 0
EndSplineSet
LCarets2: 1 0 
Colour: ff00ff
EndChar

StartChar: uni1E27
Encoding: 7719 7719 168
Width: 520
VWidth: 999
Flags: HW
HStem: -2 29<21 45 206 231 293 318 479 504> 392 47<245.141 344.739> 527 91<215.053 290.947 352.053 428.653> 678 20<140.465 157.5>
VStem: 88 75<33.5257 337.568 356 639.899> 208 90<533.481 611.246> 345 91<534.053 610.653> 361 75<33.5163 375.24>
LayerCount: 2
Fore
SplineSet
345 572 m 0
 345 597 365 618 390 618 c 0
 415 618 436 597 436 572 c 0
 436 547 415 527 390 527 c 0
 365 527 345 547 345 572 c 0
208 572 m 0
 208 597 228 618 253 618 c 0
 278 618 298 597 298 572 c 0
 298 547 278 527 253 527 c 0
 228 527 208 547 208 572 c 0
163 583 m 2
 163 356 l 1
 230 423 289 439 328 439 c 0
 400 439 436 387 436 284 c 2
 436 72 l 2
 436 43 446 32 479 29 c 2
 498 27 l 2
 502 27 506 24 506 19 c 2
 506 0 l 1
 504 -2 l 1
 454 -1 438 0 397 0 c 0
 358 0 343 -1 293 -2 c 1
 291 0 l 1
 291 19 l 2
 291 24 294 26 299 27 c 2
 318 29 l 2
 352 33 361 43 361 72 c 2
 361 295 l 2
 361 376 339 392 283 392 c 0
 254 392 211 366 163 319 c 1
 163 72 l 2
 163 43 173 32 206 29 c 2
 225 27 l 2
 229 27 233 24 233 19 c 2
 233 0 l 1
 231 -2 l 1
 181 -1 165 0 124 0 c 0
 85 0 71 -1 21 -2 c 1
 19 0 l 1
 19 19 l 2
 19 24 21 26 26 27 c 2
 45 29 l 2
 79 33 88 43 88 72 c 2
 88 563 l 2
 88 628 78 641 58 641 c 1
 26 643 l 2
 23 643 20 645 20 648 c 2
 18 672 l 1
 58 675 128 688 153 698 c 1
 162 698 166 695 166 688 c 2
 166 688 163 648 163 583 c 2
EndSplineSet
LCarets2: 1 0 
Colour: ff9ccc
EndChar

StartChar: uni1E28
Encoding: 7720 7720 169
Width: 700
VWidth: 999
Flags: HW
HStem: -200 29<67.047 167.231> -96 32<142.31 172.355> -2 29<20 52 242 274 427 459 649 682> 321 42<187 513> 618 29<19 52 242 274 426 459 649 681>
VStem: 106 81<35.58 321 363 609.207> 177 62<-165.259 -97.4563> 513 81<35.748 321 363 609.203>
DStem2: 93 -96 142 -67 0.384615 0.923077<45.6154 104>
LayerCount: 2
Fore
SplineSet
513 74 m 2
 513 321 l 1
 187 321 l 1
 187 72 l 2
 187 41 202 32 242 29 c 2
 268 27 l 2
 272 27 276 24 276 19 c 2
 276 0 l 1
 274 -2 l 1
 231 -1 205 -0 167 -0 c 1
 142 -67 l 1
 150 -65 159 -64 168 -64 c 0
 208 -64 239 -88 239 -126 c 0
 239 -169 193 -200 132 -200 c 0
 100 -200 83 -194 58 -183 c 1
 58 -171 61 -164 68 -157 c 1
 95 -167 106 -171 126 -171 c 0
 156 -171 177 -157 177 -131 c 0
 177 -110 167 -96 144 -96 c 0
 125 -96 115 -97 99 -102 c 1
 93 -96 l 1
 133 -0 l 1
 91 -0 65 -1 20 -2 c 1
 18 0 l 1
 18 19 l 2
 18 24 21 27 25 27 c 2
 52 29 l 2
 93 32 106 44 106 72 c 2
 106 574 l 2
 106 604 90 613 52 616 c 2
 25 618 l 2
 21 618 17 621 17 626 c 2
 17 645 l 1
 19 647 l 1
 69 646 96 645 146 645 c 0
 196 645 224 646 274 647 c 1
 276 645 l 1
 276 626 l 2
 276 621 273 618 268 618 c 2
 242 616 l 2
 202 613 187 602 187 574 c 2
 187 363 l 1
 513 363 l 1
 513 574 l 2
 513 604 498 613 459 616 c 2
 433 618 l 2
 428 618 424 621 424 626 c 2
 424 645 l 1
 426 647 l 1
 476 646 504 645 554 645 c 0
 604 645 631 646 681 647 c 1
 683 645 l 1
 683 626 l 2
 683 621 680 618 675 618 c 2
 649 616 l 2
 609 613 594 602 594 574 c 2
 594 74 l 2
 594 43 608 32 649 29 c 2
 675 27 l 2
 680 27 684 24 684 19 c 2
 684 0 l 1
 682 -2 l 1
 632 -1 604 0 554 0 c 0
 504 0 477 -1 427 -2 c 1
 425 0 l 1
 425 19 l 2
 425 24 428 27 433 27 c 2
 459 29 l 2
 502 32 513 46 513 74 c 2
EndSplineSet
LCarets2: 1 0 
Colour: ff00ff
EndChar

StartChar: uni1E29
Encoding: 7721 7721 170
Width: 520
VWidth: 999
Flags: HW
HStem: -200 29<40.047 140.231> -96 32<115.31 145.355> -2 29<21 45 206 231 293 318 479 504> 392 47<245.141 344.739> 678 20<140.465 157.5>
VStem: 88 75<33.5257 337.568 356 639.899> 150 62<-165.259 -97.4563> 361 75<33.5163 375.24>
DStem2: 66 -96 115 -67 0.384615 0.923077<45.6154 104>
LayerCount: 2
Fore
SplineSet
117 -96 m 0
 98 -96 88 -97 72 -102 c 1
 66 -96 l 1
 106 -0 l 1
 79 -0 62 -1 21 -2 c 1
 19 0 l 1
 19 19 l 2
 19 24 21 26 26 27 c 2
 45 29 l 2
 79 33 88 43 88 72 c 2
 88 563 l 2
 88 628 78 641 58 641 c 1
 26 643 l 2
 23 643 20 645 20 648 c 2
 18 672 l 1
 58 675 128 688 153 698 c 1
 162 698 166 695 166 688 c 2
 166 688 163 648 163 583 c 2
 163 356 l 1
 230 423 289 439 328 439 c 0
 400 439 436 387 436 284 c 2
 436 72 l 2
 436 43 446 32 479 29 c 2
 498 27 l 2
 502 27 506 24 506 19 c 2
 506 0 l 1
 504 -2 l 1
 454 -1 438 0 397 0 c 0
 358 0 343 -1 293 -2 c 1
 291 0 l 1
 291 19 l 2
 291 24 294 26 299 27 c 2
 318 29 l 2
 352 33 361 43 361 72 c 2
 361 295 l 2
 361 376 339 392 283 392 c 0
 254 392 211 366 163 319 c 1
 163 72 l 2
 163 43 173 32 206 29 c 2
 225 27 l 2
 229 27 233 24 233 19 c 2
 233 0 l 1
 231 -2 l 1
 188 -1 170 -0 140 -0 c 1
 115 -67 l 1
 123 -65 132 -64 141 -64 c 0
 181 -64 212 -88 212 -126 c 0
 212 -169 166 -200 105 -200 c 0
 73 -200 56 -194 31 -183 c 1
 31 -171 34 -164 41 -157 c 1
 68 -167 79 -171 99 -171 c 0
 129 -171 150 -157 150 -131 c 0
 150 -110 140 -96 117 -96 c 0
EndSplineSet
LCarets2: 1 0 
Colour: ff00ff
EndChar

StartChar: uni1E2A
Encoding: 7722 7722 171
Width: 700
VWidth: 999
Flags: HW
HStem: -199 57<274.968 411.898> -2 29<20 52 242 274 427 459 649 682> 321 42<187 513> 618 29<19 52 242 274 426 459 649 681>
VStem: 106 81<35.58 321 363 609.207> 209 26<-92.195 -60.231> 452 27<-90.667 -60.37> 513 81<35.748 321 363 609.203>
LayerCount: 2
Fore
SplineSet
513 74 m 2
 513 321 l 1
 187 321 l 1
 187 72 l 2
 187 41 202 32 242 29 c 2
 268 27 l 2
 272 27 276 24 276 19 c 2
 276 0 l 1
 274 -2 l 1
 224 -1 196 0 146 0 c 0
 96 0 70 -1 20 -2 c 1
 18 0 l 1
 18 19 l 2
 18 24 21 27 25 27 c 2
 52 29 l 2
 93 32 106 44 106 72 c 2
 106 574 l 2
 106 604 90 613 52 616 c 2
 25 618 l 2
 21 618 17 621 17 626 c 2
 17 645 l 1
 19 647 l 1
 69 646 96 645 146 645 c 0
 196 645 224 646 274 647 c 1
 276 645 l 1
 276 626 l 2
 276 621 273 618 268 618 c 2
 242 616 l 2
 202 613 187 602 187 574 c 2
 187 363 l 1
 513 363 l 1
 513 574 l 2
 513 604 498 613 459 616 c 2
 433 618 l 2
 428 618 424 621 424 626 c 2
 424 645 l 1
 426 647 l 1
 476 646 504 645 554 645 c 0
 604 645 631 646 681 647 c 1
 683 645 l 1
 683 626 l 2
 683 621 680 618 675 618 c 2
 649 616 l 2
 609 613 594 602 594 574 c 2
 594 74 l 2
 594 43 608 32 649 29 c 2
 675 27 l 2
 680 27 684 24 684 19 c 2
 684 0 l 1
 682 -2 l 1
 632 -1 604 0 554 0 c 0
 504 0 477 -1 427 -2 c 1
 425 0 l 1
 425 19 l 2
 425 24 428 27 433 27 c 2
 459 29 l 2
 502 32 513 46 513 74 c 2
236 -52 m 1
 247 -105 290 -142 344 -142 c 0
 396 -142 442 -110 452 -52 c 1
 479 -64 l 1
 467 -150 403 -199 344 -199 c 0
 274 -199 223 -149 209 -64 c 1
 236 -52 l 1
EndSplineSet
LCarets2: 1 0 
Colour: ff00ff
EndChar

StartChar: uni1E2B
Encoding: 7723 7723 172
Width: 520
VWidth: 999
Flags: HW
HStem: -209 57<209.968 346.898> -2 29<21 45 206 231 293 318 479 504> 392 47<245.141 344.739> 678 20<140.465 157.5>
VStem: 88 75<33.5257 337.568 356 639.899> 144 26<-102.195 -70.231> 361 75<33.5163 375.24> 387 27<-100.667 -70.37>
LayerCount: 2
Fore
SplineSet
171 -62 m 1
 182 -115 225 -152 279 -152 c 0
 331 -152 377 -120 387 -62 c 1
 414 -74 l 1
 402 -160 338 -209 279 -209 c 0
 209 -209 158 -159 144 -74 c 1
 171 -62 l 1
163 583 m 2
 163 356 l 1
 230 423 289 439 328 439 c 0
 400 439 436 387 436 284 c 2
 436 72 l 2
 436 43 446 32 479 29 c 2
 498 27 l 2
 502 27 506 24 506 19 c 2
 506 0 l 1
 504 -2 l 1
 454 -1 438 0 397 0 c 0
 358 0 343 -1 293 -2 c 1
 291 0 l 1
 291 19 l 2
 291 24 294 26 299 27 c 2
 318 29 l 2
 352 33 361 43 361 72 c 2
 361 295 l 2
 361 376 339 392 283 392 c 0
 254 392 211 366 163 319 c 1
 163 72 l 2
 163 43 173 32 206 29 c 2
 225 27 l 2
 229 27 233 24 233 19 c 2
 233 0 l 1
 231 -2 l 1
 181 -1 165 0 124 0 c 0
 85 0 71 -1 21 -2 c 1
 19 0 l 1
 19 19 l 2
 19 24 21 26 26 27 c 2
 45 29 l 2
 79 33 88 43 88 72 c 2
 88 563 l 2
 88 628 78 641 58 641 c 1
 26 643 l 2
 23 643 20 645 20 648 c 2
 18 672 l 1
 58 675 128 688 153 698 c 1
 162 698 166 695 166 688 c 2
 166 688 163 648 163 583 c 2
EndSplineSet
Colour: ff00ff
EndChar

StartChar: uni1E2C
Encoding: 7724 7724 173
Width: 293
VWidth: 999
Flags: HW
HStem: -164 44<165 252> -116 46<47 138> -77 10 -2 29<20 52 242 274> 618 29<19 52 242 274>
VStem: 106 81<35.3322 609.22>
LayerCount: 2
Fore
SplineSet
216 -120 m 0
 238 -120 252 -110 266 -68 c 1
 290 -74 l 1
 278 -134 249 -164 203 -164 c 0
 181 -164 160 -152 139 -138 c 0
 121 -127 102 -116 85 -116 c 0
 59 -116 46 -131 36 -164 c 1
 12 -159 l 1
 26 -100 49 -70 92 -70 c 0
 122 -70 144 -84 164 -98 c 0
 180 -110 197 -120 216 -120 c 0
187 574 m 2
 187 71 l 2
 187 41 202 32 242 29 c 2
 268 27 l 2
 272 27 276 24 276 19 c 2
 276 0 l 1
 274 -2 l 1
 226 0 197 0 147 0 c 0
 97 0 69 0 20 -2 c 1
 18 0 l 1
 18 19 l 2
 18 24 21 27 25 27 c 2
 52 29 l 2
 94 32 106 43 106 71 c 2
 106 574 l 2
 106 604 91 613 52 616 c 2
 25 618 l 2
 21 618 17 621 17 626 c 2
 17 645 l 1
 19 647 l 1
 69 646 96 645 146 645 c 0
 196 645 225 646 274 647 c 1
 276 645 l 1
 276 626 l 2
 276 621 273 618 268 618 c 2
 242 616 l 2
 202 613 187 602 187 574 c 2
EndSplineSet
LCarets2: 1 0 
Colour: ff00ff
EndChar

StartChar: uni1E2D
Encoding: 7725 7725 174
Width: 267
VWidth: 999
Flags: HW
HStem: -164 44<151 238> -116 46<33 124> -77 10 -2 29<34 59 219 245> 422 20<161.75 177.219> 522 96<94.332 173.668>
VStem: 86 96<530.332 609.668> 102 75<33.5056 383>
LayerCount: 2
Fore
SplineSet
202 -120 m 0
 224 -120 238 -110 252 -68 c 1
 276 -74 l 1
 264 -134 235 -164 189 -164 c 0
 167 -164 146 -152 125 -138 c 0
 107 -127 88 -116 71 -116 c 0
 45 -116 32 -131 22 -164 c 1
 -2 -159 l 1
 12 -100 35 -70 78 -70 c 0
 108 -70 130 -84 150 -98 c 0
 166 -110 183 -120 202 -120 c 0
86 570 m 0
 86 596 108 618 134 618 c 0
 160 618 182 596 182 570 c 0
 182 544 160 522 134 522 c 0
 108 522 86 544 86 570 c 0
180 439 m 2
 180 439 177 371 177 321 c 2
 177 72 l 2
 177 43 188 32 219 29 c 2
 238 27 l 2
 243 26 247 24 247 19 c 2
 247 0 l 1
 245 -2 l 1
 205 -1 176 0 138 0 c 0
 102 0 74 -1 34 -2 c 1
 32 0 l 1
 32 19 l 2
 32 24 35 26 40 27 c 2
 59 29 l 2
 93 33 102 43 102 72 c 2
 102 321 l 2
 102 371 94 381 80 383 c 2
 37 387 l 1
 35 411 l 1
 106 422 148 431 176 442 c 0
 178 442 180 441 180 439 c 2
EndSplineSet
LCarets2: 1 0 
Colour: ff00ff
EndChar

StartChar: uni1E2E
Encoding: 7726 7726 175
Width: 293
VWidth: 999
Flags: HW
HStem: -2 29<20 52 242 274> 618 29<19 52 242 274> 702 96<12.332 91.668 201.332 280.668> 782 107
VStem: 4 96<710.332 789.668> 106 81<35.3322 609.22> 118 155 193 96<710.332 789.668>
LayerCount: 2
Fore
SplineSet
225 889 m 1
 247 877 263 863 273 844 c 1
 162 793 l 2
 146 785 137 782 130 782 c 0
 123 782 118 789 118 796 c 0
 118 802 120 806 130 814 c 2
 225 889 l 1
193 750 m 0
 193 776 215 798 241 798 c 0
 267 798 289 776 289 750 c 0
 289 724 267 702 241 702 c 0
 215 702 193 724 193 750 c 0
4 750 m 0
 4 776 26 798 52 798 c 0
 78 798 100 776 100 750 c 0
 100 724 78 702 52 702 c 0
 26 702 4 724 4 750 c 0
187 574 m 2
 187 71 l 2
 187 41 202 32 242 29 c 2
 268 27 l 2
 272 27 276 24 276 19 c 2
 276 0 l 1
 274 -2 l 1
 226 0 197 0 147 0 c 0
 97 0 69 0 20 -2 c 1
 18 0 l 1
 18 19 l 2
 18 24 21 27 25 27 c 2
 52 29 l 2
 94 32 106 43 106 71 c 2
 106 574 l 2
 106 604 91 613 52 616 c 2
 25 618 l 2
 21 618 17 621 17 626 c 2
 17 645 l 1
 19 647 l 1
 69 646 96 645 146 645 c 0
 196 645 225 646 274 647 c 1
 276 645 l 1
 276 626 l 2
 276 621 273 618 268 618 c 2
 242 616 l 2
 202 613 187 602 187 574 c 2
EndSplineSet
LCarets2: 1 0 
Colour: ff00ff
EndChar

StartChar: uni1E2F
Encoding: 7727 7727 176
Width: 267
VWidth: 999
Flags: HW
HStem: -2 29<34 59 219 245> 422 20<161.75 177.219> 527 92<7.3474 84.653 167.347 244.653>
VStem: 0 92<534.347 611.653> 102 75<33.5056 383> 160 92<534.347 611.653>
LayerCount: 2
Fore
SplineSet
177 740 m 1
 179 741 184 742 188 742 c 0
 193 742 212 741 230 722 c 1
 232 712 l 1
 144 616 l 2
 132 603 126 599 121 599 c 0
 115 599 110 605 110 611 c 0
 110 621 113 624 119 635 c 2
 177 740 l 1
0 573 m 0
 0 598 21 619 46 619 c 0
 71 619 92 598 92 573 c 0
 92 548 71 527 46 527 c 0
 21 527 0 548 0 573 c 0
160 573 m 0
 160 598 181 619 206 619 c 0
 231 619 252 598 252 573 c 0
 252 548 231 527 206 527 c 0
 181 527 160 548 160 573 c 0
180 439 m 2
 180 439 177 371 177 321 c 2
 177 72 l 2
 177 43 188 32 219 29 c 2
 238 27 l 2
 243 26 247 24 247 19 c 2
 247 0 l 1
 245 -2 l 1
 205 -1 176 0 138 0 c 0
 102 0 74 -1 34 -2 c 1
 32 0 l 1
 32 19 l 2
 32 24 35 26 40 27 c 2
 59 29 l 2
 93 33 102 43 102 72 c 2
 102 321 l 2
 102 371 94 381 80 383 c 2
 37 387 l 1
 35 411 l 1
 106 422 148 431 176 442 c 0
 178 442 180 441 180 439 c 2
EndSplineSet
LCarets2: 1 0 
Colour: ff00ff
EndChar

